<svg xmlns="http://www.w3.org/2000/svg" width="16" height="16" viewBox="0 0 16 16">
    <path fill="#E6C44D" fill-rule="evenodd" d="M14.5 13.25c.276 0 .5.224.5.5v.5c0 .276-.224.5-.5.5h-13c-.276 0-.5-.224-.5-.5v-.5c0-.276.224-.5.5-.5h13zm-1.5-3c.276 0 .5.224.5.5v.5c0 .276-.224.5-.5.5H3c-.276 0-.5-.224-.5-.5v-.5c0-.276.224-.5.5-.5h10zm0-3c.276 0 .5.224.5.5v.5c0 .276-.224.5-.5.5H3c-.276 0-.5-.224-.5-.5v-.5c0-.276.224-.5.5-.5h10zm0-3c.276 0 .5.224.5.5v.5c0 .276-.224.5-.5.5H3c-.276 0-.5-.224-.5-.5v-.5c0-.276.224-.5.5-.5h10zm1.5-3c.276 0 .5.224.5.5v.5c0 .276-.224.5-.5.5h-13c-.276 0-.5-.224-.5-.5v-.5c0-.276.224-.5.5-.5h13z"/>
</svg>
