<svg xmlns="http://www.w3.org/2000/svg" width="16" height="16" viewBox="0 0 16 16">
    <path fill="#EB58AA" fill-rule="evenodd" d="M8.227 0c.276 0 .5.224.5.5v2.893h3.38c.275 0 .5.225.5.5l-.001 2.894H15.5c.276 0 .5.225.5.5v2.88c0 .276-.224.5-.5.5l-2.894-.001V15.5c0 .276-.224.5-.5.5H8.742c-.276 0-.5-.224-.5-.5v-2.41H5.333v2.41c0 .276-.224.5-.5.5H.5c-.276 0-.5-.224-.5-.5v-4.333c0-.276.224-.5.5-.5l1.924-.001V7.757H.5c-.276 0-.5-.223-.5-.5V3.895c0-.276.224-.5.5-.5l4.348-.001V.5c0-.276.224-.5.5-.5h2.88z"/>
</svg>
