<svg xmlns="http://www.w3.org/2000/svg" width="16" height="16" viewBox="0 0 16 16">
    <path fill="#448EF2" fill-rule="evenodd" d="M8.028 0c3.042 0 5.558 2.412 5.91 5.54.837.16 1.482.861 1.555 1.726l.007.164v2.323c0 1.013-.782 1.843-1.775 1.92l-.15.005h-1.426c-.246 0-.45-.176-.492-.41l-.008-.09V6.005c0-.02 0-.04.003-.06-.159-1.982-1.724-3.532-3.624-3.532-1.87 0-3.427 1.506-3.62 3.453l-.015.203-.006.216v3.181H4.38v.155l.005.205c.075 1.515.97 2.799 2.22 3.356.188-.116.409-.182.645-.182h.5c.69 0 1.25.56 1.25 1.25s-.56 1.25-1.25 1.25h-.5c-.566 0-1.043-.376-1.198-.891-1.238-.55-2.227-1.608-2.739-2.93h-.887C1.362 11.678.5 10.815.5 9.752V7.43c0-.959.702-1.754 1.62-1.901C2.472 2.417 4.98 0 8.028 0z"/>
</svg>
