<svg xmlns="http://www.w3.org/2000/svg" width="16" height="16" viewBox="0 0 16 16">
    <path fill="#FC91AD" fill-rule="evenodd" d="M15.5 0c.276 0 .5.224.5.5v4c0 .276-.224.5-.5.5h-1.25v5.75c0 1.869-1.464 3.395-3.308 3.495l-.192.005c-1.86 0-3.391-1.453-3.495-3.309l-.005-.191v-5.5c0-1.105-.895-2-2-2-1.054 0-1.925.817-1.995 1.854l-.005.146V11H4.5c.276 0 .5.224.5.5v4c0 .276-.224.5-.5.5h-4c-.276 0-.5-.224-.5-.5v-4c0-.276.224-.5.5-.5h1.25V5.25c0-1.869 1.464-3.395 3.308-3.495l.192-.005c1.86 0 3.391 1.453 3.495 3.309l.005.191v5.5c0 1.105.895 2 2 2 1.054 0 1.925-.817 1.995-1.854l.005-.146V5H11.5c-.276 0-.5-.224-.5-.5v-4c0-.276.224-.5.5-.5h4zm-12 12.5h-2v2h2v-2zm11-11h-2v2h2v-2z"/>
</svg>
