<svg xmlns="http://www.w3.org/2000/svg" width="16" height="16" viewBox="0 0 16 16">
    <g fill="none" fill-rule="evenodd">
        <path fill="#37C5AB" d="M8.75 15.5c0 .276-.224.5-.5.5h-.5c-.276 0-.5-.224-.5-.5V14H5v1.5c0 .276-.224.5-.5.5H4c-.276 0-.5-.224-.5-.5V14h-1c-.276 0-.5-.224-.5-.5v-1H.5c-.276 0-.5-.224-.5-.5v-.5c0-.276.224-.5.5-.5H2V8.75H.5c-.276 0-.5-.224-.5-.5v-.5c0-.276.224-.5.5-.5H2V5H.5C.224 5 0 4.776 0 4.5V4c0-.276.224-.5.5-.5H2v-1c0-.276.224-.5.5-.5h1V.5c0-.276.224-.5.5-.5h.5c.276 0 .5.224.5.5V2h2.25V.5c0-.276.224-.5.5-.5h.5c.276 0 .5.224.5.5V2H11V.5c0-.276.224-.5.5-.5h.5c.276 0 .5.224.5.5V2h1c.276 0 .5.224.5.5v1h1.5c.276 0 .5.224.5.5v.5c0 .276-.224.5-.5.5H14v2.25h1.5c.276 0 .5.224.5.5v.5c0 .276-.224.5-.5.5H14V11h1.5c.276 0 .5.224.5.5v.5c0 .276-.224.5-.5.5H14v1c0 .276-.224.5-.5.5h-1v1.5c0 .276-.224.5-.5.5h-.5c-.276 0-.5-.224-.5-.5V14H8.75v1.5z"/>
        <rect width="4" height="4" x="6" y="6" fill="#FFF" rx=".5"/>
    </g>
</svg>
