<svg xmlns="http://www.w3.org/2000/svg" width="16" height="16" viewBox="0 0 16 16">
    <g fill="none" fill-rule="evenodd">
        <path fill="#151826" d="M7.531 4h.938c.276 0 .5.224.5.5l-.001.03-.273 4.5c-.016.264-.235.47-.499.47h-.392c-.264 0-.483-.206-.5-.47l-.272-4.5c-.017-.275.193-.512.469-.53h.03z"/>
        <rect width="2" height="2" x="7" y="10.5" fill="#151826" rx=".75"/>
        <path fill="#EFC302" d="M4.379 1.362l.433.25c.239.138.32.444.183.683l-3.29 5.698 3.29 5.698c.122.212.071.478-.11.63l-.073.053-.433.25c-.213.123-.478.071-.631-.11l-.052-.073-3.5-6.062c-.07-.122-.084-.26-.049-.386-.035-.125-.022-.264.049-.386l3.5-6.062c.138-.24.443-.321.683-.183zm7.293 0c.239-.138.544-.056.683.183l3.5 6.062c.07.122.083.261.048.386.035.125.022.264-.048.386l-3.5 6.062-.052.074c-.154.18-.419.232-.631.109l-.433-.25-.074-.052c-.181-.153-.232-.419-.11-.631l3.29-5.698-3.29-5.698c-.138-.24-.056-.545.184-.683z"/>
    </g>
</svg>
