<svg xmlns="http://www.w3.org/2000/svg" width="16" height="16" viewBox="0 0 16 16">
    <g fill="none" fill-rule="evenodd">
        <path fill="#AB62E3" d="M8 .5c4.142 0 7.5 3.358 7.5 7.5 0 4.142-3.358 7.5-7.5 7.5C3.858 15.5.5 12.142.5 8 .5 3.858 3.858.5 8 .5z"/>
        <path fill="#FFF" d="M3.035 7.25H2.5c-.276 0-.5.224-.5.5v.5c0 .276.224.5.5.5h1l.105-.007c.242-.035.455-.185.566-.408L5.5 6.357l3.33 4.978c.06.124.155.228.273.3l.098.053c.335.146.735.029.935-.29l2.278-2.648H13.5c.276 0 .5-.224.5-.5v-.5c0-.276-.224-.5-.5-.5H12l-.11.008c-.215.032-.409.157-.526.345L9.572 9.77 6.171 4.664c-.073-.145-.19-.262-.336-.335-.37-.185-.82-.035-1.006.335L3.035 7.25z"/>
    </g>
</svg>
