<svg xmlns="http://www.w3.org/2000/svg" width="16" height="16" viewBox="0 0 16 16">
    <g fill="none" fill-rule="evenodd">
        <path fill="#37C5AB" d="M2.5 0H10l4 4v11.5c0 .276-.224.5-.5.5h-11c-.276 0-.5-.224-.5-.5V.5c0-.276.224-.5.5-.5z"/>
        <path fill="#9AE1D4" d="M10 0l4 4h-3.5c-.276 0-.5-.224-.5-.5V0z"/>
        <path fill="#FFF" d="M4.53 8.066c-.293.293-.293.768 0 1.06l2.122 2.122c.268.268.69.29.988.063l.078-.069 3.53-3.53c.293-.293.293-.767 0-1.06l-.077-.067c-.294-.224-.715-.202-.984.067L7.18 9.658 5.59 8.066c-.293-.293-.768-.293-1.06 0z"/>
    </g>
</svg>
