<svg xmlns="http://www.w3.org/2000/svg" width="16" height="16" viewBox="0 0 16 16">
    <g fill="none" fill-rule="evenodd">
        <path fill="#EFC302" d="M2.5 0H10l4 4v11.5c0 .276-.224.5-.5.5h-11c-.276 0-.5-.224-.5-.5V.5c0-.276.224-.5.5-.5z"/>
        <path fill="#F2E1A6" d="M10 0l4 4h-3.5c-.276 0-.5-.224-.5-.5V0z"/>
        <path fill="#151826" d="M8.25 10.5c.414 0 .75.336.75.75v.5c0 .414-.336.75-.75.75h-.5c-.414 0-.75-.336-.75-.75v-.5c0-.414.336-.75.75-.75h.5zM8.469 4c.276 0 .5.224.5.5l-.001.03-.273 4.5c-.016.264-.235.47-.499.47h-.392c-.264 0-.483-.206-.5-.47l-.272-4.5c-.017-.275.193-.512.469-.53h.968z"/>
    </g>
</svg>
