<svg xmlns="http://www.w3.org/2000/svg" width="16" height="16" viewBox="0 0 16 16">
    <path fill="#FC91AD" fill-rule="evenodd" d="M.5 16c-.276 0-.5-.224-.5-.5V.5C0 .224.224 0 .5 0H1c.276 0 .5.224.5.5v14h14c.276 0 .5.224.5.5v.5c0 .276-.224.5-.5.5H.5zM8.991 3.244l.004.002 3.49 1.732 1.589.37c.264.061.43.323.376.588l-.102.49c-.056.27-.32.444-.591.388l-.011-.002-1.645-.38-.15-.05-2.692-1.404-3.663 7.533c-.104.213-.343.324-.572.266L3.3 12.342c-.268-.068-.43-.34-.362-.607l.122-.485c.068-.268.34-.43.607-.363l.934.236 3.72-7.648c.121-.248.42-.352.669-.231z"/>
</svg>
