<svg xmlns="http://www.w3.org/2000/svg" width="16" height="16" viewBox="0 0 16 16">
    <path fill="#ED3137" fill-rule="evenodd" d="M1.813.752l4.763 4.764h6.035l-.365-.366c-.237-.237-.282-.592-.136-.875l.064-.102.072-.084c.267-.266.684-.29.977-.072l.084.073 2.155 2.158c.176.176.175.461 0 .637-.064.063-.144.105-.23.122l-.088.01-7.068-.001L10.07 9.01h4.872c.415 0 .75.336.75.75 0 .38-.282.693-.648.743l-.102.007H11.57l3.678 3.677c.195.195.195.512 0 .707l-.354.354c-.195.195-.512.195-.707 0L9.45 10.51H3.255l.365.366c.236.237.281.593.135.875l-.063.102-.073.084c-.266.266-.683.29-.977.072l-.084-.073L.403 9.778c-.175-.176-.175-.46 0-.636.064-.064.144-.106.23-.123l.089-.009h7.227L5.955 7.016H.923c-.414 0-.75-.336-.75-.75 0-.38.282-.693.648-.743l.102-.007h3.532L.752 1.813c-.195-.195-.195-.512 0-.707l.354-.354c.195-.195.512-.195.707 0z"/>
</svg>
