<svg xmlns="http://www.w3.org/2000/svg" width="16" height="16" viewBox="0 0 16 16">
    <g fill="none" fill-rule="evenodd">
        <path fill="#7A6FF0" d="M15.5 2c.276 0 .5.224.5.5v9c0 .276-.224.5-.5.5h-1v1.5c0 .276-.224.5-.5.5h-.5c-.276 0-.5-.224-.5-.5V12h-1.375v1.5c0 .276-.224.5-.5.5h-.5c-.276 0-.5-.224-.5-.5V12H8.75v1.5c0 .276-.224.5-.5.5h-.5c-.276 0-.5-.224-.5-.5V12H5.875v1.5c0 .276-.224.5-.5.5h-.5c-.276 0-.5-.224-.5-.5V12H3v1.5c0 .276-.224.5-.5.5H2c-.276 0-.5-.224-.5-.5V12h-1c-.276 0-.5-.224-.5-.5v-9c0-.276.224-.5.5-.5h15z"/>
        <rect width="10" height="1.5" x="3" y="6.25" fill="#FFF" rx=".5"/>
    </g>
</svg>
