<svg xmlns="http://www.w3.org/2000/svg" width="16" height="16" viewBox="0 0 16 16">
    <path fill="#42C5E1" fill-rule="evenodd" d="M12.948 1.78c.034.068.052.144.052.221V13.71c0 .276-.224.5-.5.5-.077 0-.153-.018-.222-.053l-5.062-2.509-1.119 2.553c-.08.182-.26.299-.458.299H3.133c-.139 0-.25-.112-.25-.25 0-.035.007-.069.02-.1l1.411-3.22H4c-1.657 0-3-1.344-3-3V7.78c0-1.656 1.343-3 3-3h1.766l6.512-3.228c.247-.122.547-.021.67.226zm1.054 4.282c.552 0 1 .448 1 1v1.586c0 .553-.448 1-1 1h-.252V6.062z"/>
</svg>
