<svg xmlns="http://www.w3.org/2000/svg" width="16" height="16" viewBox="0 0 16 16">
    <path fill="#7A6FF0" fill-rule="evenodd" d="M14.5 12.5c.245 0 .45.177.492.41L15 13v2.5c0 .245-.177.45-.41.492L14.5 16h-13c-.245 0-.45-.177-.492-.41L1 15.5V13c0-.245.177-.45.41-.492l.09-.008h13zM8.364 4.551c.22 0 .4.18.4.4v3.871l1.018-1.017c.195-.195.512-.195.707 0l.353.354c.196.195.196.512 0 .707l-2.475 2.475c-.195.195-.511.195-.707 0L5.185 8.866c-.195-.195-.195-.512 0-.707l.354-.354c.195-.195.512-.195.707 0l1.019 1.017-.001-3.87c0-.222.179-.4.4-.4h.7zM14.5 0c.245 0 .45.177.492.41L15 .5V3c0 .245-.177.45-.41.492l-.09.008h-13c-.245 0-.45-.177-.492-.41L1 3V.5c0-.245.177-.45.41-.492L1.5 0h13z"/>
</svg>
