<svg xmlns="http://www.w3.org/2000/svg" width="16" height="16" viewBox="0 0 16 16">
    <g fill="none" fill-rule="evenodd">
        <path fill="#F3743E" d="M2.5 0H10l4 4v11.5c0 .276-.224.5-.5.5h-11c-.276 0-.5-.224-.5-.5V.5c0-.276.224-.5.5-.5z"/>
        <path fill="#F9B99E" d="M10 0l4 4h-3.5c-.276 0-.5-.224-.5-.5V0z"/>
        <path fill="#FFF" d="M11.942 10.76c.415 0 .75.336.75.75s-.335.75-.75.75H6.255l.365.366c.266.267.29.683.072.977l-.073.084c-.293.293-.768.292-1.06 0l-2.156-2.159c-.175-.176-.175-.46 0-.636.085-.085.2-.132.319-.132zM9.246 6.34c.293-.293.768-.293 1.061 0l2.155 2.158c.176.176.175.461 0 .637-.085.084-.2.131-.318.131H3.923c-.414 0-.75-.336-.75-.75s.336-.75.75-.75h5.688L9.246 7.4c-.267-.267-.29-.683-.072-.977z"/>
    </g>
</svg>
