<svg xmlns="http://www.w3.org/2000/svg" width="16" height="16" viewBox="0 0 16 16">
    <g fill="none" fill-rule="evenodd">
        <path fill="#90D4F4" d="M2.484 0c-.277 0-.5.224-.5.5V2h.004v.6c0 .22.178.4.4.4h.7c.22 0 .4-.18.4-.4V1.5h8.996v13h-9v-1.1c0-.22-.18-.4-.4-.4h-.7c-.221 0-.4.18-.4.4v2.1c0 .276.223.5.5.5h11c.276 0 .5-.224.5-.5V.5c0-.276-.224-.5-.5-.5h-11z"/>
        <path fill="#21AAEA" d="M5.94 3.54c-.084 0-.166.027-.234.077L.22 7.594c-.223.163-.273.475-.111.699.031.043.069.08.112.112l5.485 3.962c.18.13.43.089.559-.09.05-.068.076-.15.076-.234V10h4.13c.277 0 .5-.224.5-.5v-3c0-.276-.223-.5-.5-.5h-4.13V3.94c0-.22-.18-.4-.4-.4z"/>
    </g>
</svg>
