<svg xmlns="http://www.w3.org/2000/svg" width="16" height="16" viewBox="0 0 16 16">
    <g fill="none" fill-rule="evenodd">
        <rect width="1.5" height="8" x="7.15" y="4.089" fill="#448EF2" rx=".5" transform="rotate(30 7.9 8.09)"/>
        <path fill="#9FC5F8" d="M4.33 1.362l.432.25c.24.138.321.444.183.683l-3.29 5.698 3.29 5.698c.123.212.072.478-.109.63l-.074.053-.433.25c-.212.123-.478.071-.63-.11l-.053-.073-3.5-6.062c-.07-.122-.083-.26-.048-.386-.035-.125-.022-.264.048-.386l3.5-6.062c.138-.24.444-.321.683-.183zm7.35 0c.24-.138.545-.056.683.183l3.5 6.062c.07.122.084.261.049.386.035.125.021.264-.049.386l-3.5 6.062-.052.074c-.153.18-.418.232-.63.109l-.434-.25-.074-.052c-.18-.153-.231-.419-.109-.631l3.29-5.698-3.29-5.698c-.138-.24-.056-.545.183-.683z"/>
    </g>
</svg>
