<svg xmlns="http://www.w3.org/2000/svg" xmlns:xlink="http://www.w3.org/1999/xlink" width="16" height="16" viewBox="0 0 16 16">
    <defs>
        <path id="aleq7ww32a" d="M8 0c4.418 0 8 3.582 8 8 0 1.286-.304 2.502-.843 3.579L8 8 .843 11.579C.303 10.502 0 9.286 0 8c0-4.418 3.582-8 8-8z"/>
    </defs>
    <g fill="none" fill-rule="evenodd">
        <use fill="#ED3137" xlink:href="#aleq7ww32a"/>
        <use fill="#FFF" fill-opacity=".75" xlink:href="#aleq7ww32a"/>
        <path fill="#ED3137" d="M13.244 4.455c.12-.069.3.02.404.2.104.18.09.38-.029.45l-3.211 2.22c.06.215.092.441.092.675 0 1.38-1.12 2.5-2.5 2.5S5.5 9.38 5.5 8 6.62 5.5 8 5.5c.645 0 1.233.244 1.676.645z"/>
        <path fill="#FFF" d="M8 7c-.552 0-1 .448-1 1s.448 1 1 1 1-.448 1-1-.448-1-1-1z"/>
    </g>
</svg>
