<svg xmlns="http://www.w3.org/2000/svg" width="16" height="16" viewBox="0 0 16 16">
    <g fill="none" fill-rule="evenodd">
        <path fill="#9FC5F8" d="M15.5 1c.276 0 .5.224.5.5v13c0 .276-.224.5-.5.5H13v-1.5h1.5v-11H13V1h2.5zM3 2.5H1.5v11H3V15H.5c-.276 0-.5-.224-.5-.5v-13c0-.276.224-.5.5-.5H3v1.5z"/>
        <path fill="#448EF2" d="M10.081 5.113c.217-.27.456-.533.727-.753.505-.41 1.082-.478 1.67-.163.557.3.58.812.468 1.322-.131.594-.548.966-1.186 1.029-.375.037-.769.002-1.142-.064-.794-.14-1.58.548-1.39 1.305.2.795.467 1.576.739 2.353.189.541.613.795 1.224.738l1.024-.095c-.408 1.093-1.406 1.02-2.196 1.158-2.011.347-2.639-.93-2.921-2.599-.486.65-.857 1.176-1.265 1.677-.203.249-.449.48-.716.666-.507.353-1.066.43-1.608.075-.47-.308-.585-.778-.465-1.276.14-.581.528-.979 1.174-1.048.353-.038.723-.023 1.073.035 1.062.174 1.72-.496 1.424-1.48-.179-.59-.348-1.185-.558-1.765-.347-.957-.748-1.159-1.805-.962-.135.025-.272.038-.418.057.047-.708.346-.894 1.895-1.158.773-.131 1.615-.199 2.148.433.46.547.717 1.25 1.066 1.888.318-.423.664-.908 1.038-1.373z"/>
    </g>
</svg>
