<svg xmlns="http://www.w3.org/2000/svg" width="16" height="16" viewBox="0 0 16 16">
    <g fill="none" fill-rule="evenodd">
        <path fill="#7A6FF0" d="M2.5 0H10l4 4v11.5c0 .276-.224.5-.5.5h-11c-.276 0-.5-.224-.5-.5V.5c0-.276.224-.5.5-.5z"/>
        <path fill="#FFF" d="M9.718 6.04c.23-.119.511-.044.65.173l1.524 2.37c.009.012.016.026.023.04.064.121.072.257.034.377.038.12.03.256-.034.377-.007.014-.014.028-.023.04l-1.523 2.37-.059.074c-.15.159-.391.203-.592.1l-.45-.234-.077-.049c-.187-.145-.25-.408-.137-.625l.01-.02.013-.02L10.372 9 9.077 6.988l-.023-.04c-.127-.246-.032-.547.213-.675zm-3.436 0l.45.233c.246.128.341.43.214.674l-.023.04L5.628 9l1.295 2.012.012.02.011.02c.113.218.05.481-.137.626l-.076.049-.451.233c-.2.104-.441.06-.592-.099l-.059-.074-1.523-2.37c-.009-.012-.016-.026-.023-.04-.063-.12-.072-.256-.034-.377-.038-.12-.03-.256.034-.377.007-.014.014-.028.023-.04l1.523-2.37c.14-.217.422-.292.65-.173z"/>
        <path fill="#BCB6F7" d="M10 0l4 4h-3.5c-.276 0-.5-.224-.5-.5V0z"/>
    </g>
</svg>
