<svg xmlns="http://www.w3.org/2000/svg" width="16" height="16" viewBox="0 0 16 16">
    <path fill="#42C5E1" fill-rule="evenodd" d="M3 1.5c0-.276.224-.5.5-.5H4c.276 0 .5.224.5.5V3h7V1.5c0-.276.224-.5.5-.5h.5c.276 0 .5.224.5.5V3h2.014c.276 0 .5.224.5.5v11.542c0 .276-.224.5-.5.5H1.019c-.276 0-.5-.224-.5-.5V3.5c0-.276.224-.5.5-.5H3V1.5zm1.5 10H4c-.245 0-.45.177-.492.41L3.5 12v.5c0 .245.177.45.41.492L4 13h.5c.245 0 .45-.177.492-.41L5 12.5V12c0-.276-.224-.5-.5-.5zm4 0H8c-.245 0-.45.177-.492.41L7.5 12v.5c0 .245.177.45.41.492L8 13h.5c.245 0 .45-.177.492-.41L9 12.5V12c0-.276-.224-.5-.5-.5zm-4-3H4c-.245 0-.45.177-.492.41L3.5 9v.5c0 .245.177.45.41.492L4 10h.5c.245 0 .45-.177.492-.41L5 9.5V9c0-.276-.224-.5-.5-.5zm4 0H8c-.245 0-.45.177-.492.41L7.5 9v.5c0 .245.177.45.41.492L8 10h.5c.245 0 .45-.177.492-.41L9 9.5V9c0-.276-.224-.5-.5-.5zm4 0H12c-.245 0-.45.177-.492.41L11.5 9v.5c0 .245.177.45.41.492L12 10h.5c.245 0 .45-.177.492-.41L13 9.5V9c0-.276-.224-.5-.5-.5zm-8-3H4c-.245 0-.45.177-.492.41L3.5 6v.5c0 .245.177.45.41.492L4 7h.5c.245 0 .45-.177.492-.41L5 6.5V6c0-.276-.224-.5-.5-.5zm4 0H8c-.245 0-.45.177-.492.41L7.5 6v.5c0 .245.177.45.41.492L8 7h.5c.245 0 .45-.177.492-.41L9 6.5V6c0-.276-.224-.5-.5-.5zm4 0H12c-.245 0-.45.177-.492.41L11.5 6v.5c0 .245.177.45.41.492L12 7h.5c.245 0 .45-.177.492-.41L13 6.5V6c0-.276-.224-.5-.5-.5z"/>
</svg>
