<svg xmlns="http://www.w3.org/2000/svg" width="16" height="16" viewBox="0 0 16 16">
    <g fill="none" fill-rule="evenodd">
        <path fill="#42C5E1" d="M14.5 0c.276 0 .5.224.5.5v15c0 .276-.224.5-.5.5h-13c-.276 0-.5-.224-.5-.5V.5c0-.276.224-.5.5-.5h13z"/>
        <path stroke="#FFF" stroke-width="1.5" d="M8 3.75c1.174 0 2.236.476 3.005 1.245.77.769 1.245 1.831 1.245 3.005s-.476 2.236-1.245 3.005c-.769.77-1.831 1.245-3.005 1.245s-2.236-.476-3.005-1.245C4.225 10.236 3.75 9.174 3.75 8s.476-2.236 1.245-3.005C5.764 4.225 6.826 3.75 8 3.75z"/>
        <path fill="#FFF" stroke="#42C5E1" stroke-width="1.5" d="M6.782 9.044c.656-1.403.997-1.25 1.25-1.25.306 0 .611.112.851.335h0l3.739 3.057c.43.401.63.857.671 1.28.05.506-.124.987-.488 1.351-.342.342-.79.513-1.237.513-.461 0-.922-.181-1.268-.543h0L7.116 9.895c-.223-.24-.334-.545-.334-.85z"/>
    </g>
</svg>
