<svg xmlns="http://www.w3.org/2000/svg" width="16" height="16" viewBox="0 0 16 16">
    <g fill="none" fill-rule="evenodd">
        <circle cx="8" cy="8" r="8" fill="#448EF2"/>
        <path fill="#FFF" d="M11.767 5.5c.352 0 .662.055.929.164.267.109.49.264.667.466.178.202.312.447.4.735.09.287.134.611.134.971 0 .331-.046.637-.138.917-.093.28-.228.524-.406.732l.55.861c.01.016.015.035.015.054 0 .055-.045.1-.1.1h-.97c-.031 0-.06-.014-.08-.039l-.303-.392c-.106.033-.217.058-.334.076-.116.018-.238.027-.364.027-.353 0-.662-.053-.93-.16-.266-.108-.489-.263-.667-.465-.178-.201-.311-.447-.4-.736-.09-.29-.134-.614-.134-.975 0-.36.045-.684.134-.971.089-.288.222-.533.4-.735.178-.202.4-.357.668-.466.267-.11.576-.164.929-.164zm-3.718.096c.028 0 .055.012.073.032l.021.035 1.614 4.6c.004.01.006.022.006.033 0 .042-.025.077-.061.092l-.04.008h-1.23c-.034 0-.065-.017-.083-.043l-.014-.03-.18-.646c-.008-.032-.033-.057-.063-.068l-.033-.005H6.635c-.034 0-.065.017-.083.044l-.014.03-.176.645c-.01.032-.034.057-.065.068l-.032.005H5.067c-.01 0-.022-.002-.033-.005-.039-.014-.064-.05-.066-.089l.005-.039 1.614-4.6c.01-.027.03-.047.054-.058l.04-.009H8.05zm-2.832 0c.055 0 .1.045.1.1v.926c0 .055-.045.1-.1.1H3.419c-.056 0-.1.044-.1.1v.626c0 .056.044.1.1.1h1.567c.055 0 .1.045.1.1v.926c0 .055-.045.1-.1.1H3.419c-.056 0-.1.044-.1.1v1.522c0 .055-.045.1-.1.1H2.1c-.055 0-.1-.045-.1-.1v-4.6c0-.055.045-.1.1-.1zm6.55.974c-.301 0-.54.102-.719.306-.178.203-.267.524-.267.96 0 .437.09.757.267.96.178.205.418.307.719.307s.54-.102.719-.306c.178-.204.267-.524.267-.96 0-.437-.09-.758-.267-.961-.178-.204-.418-.306-.72-.306zm-4.452.416l-.013.022-.426 1.494-.002.014c0 .018.01.034.025.043l.025.007h.862c.022-.007.036-.021.04-.038v-.026l-.428-1.494c-.005-.016-.018-.03-.034-.034-.018-.005-.036 0-.049.012z"/>
    </g>
</svg>
