<svg xmlns="http://www.w3.org/2000/svg" width="16" height="16" viewBox="0 0 16 16">
    <path fill="#37C5AB" fill-rule="evenodd" d="M14 0c1.105 0 2 .895 2 2 0 .839-.517 1.557-1.249 1.854v8.368c.732.297 1.249 1.016 1.249 1.854 0 1.105-.895 2-2 2-.868 0-1.607-.553-1.884-1.325H3.884c-.277.772-1.016 1.325-1.884 1.325-1.105 0-2-.895-2-2 0-.839.517-1.557 1.25-1.854V3.855C.517 3.558 0 2.839 0 2 0 .895.895 0 2 0c.84 0 1.558.517 1.855 1.25h8.29C12.442.517 13.161 0 14 0zm0 13.576c-.276 0-.5.224-.5.5 0 .277.224.5.5.5s.5-.223.5-.5c0-.276-.224-.5-.5-.5zm-12 0c-.276 0-.5.224-.5.5 0 .277.224.5.5.5s.5-.223.5-.5c0-.276-.224-.5-.5-.5zM12.146 2.751H3.854c-.203.5-.602.9-1.103 1.103v8.368c.475.193.86.563 1.07 1.028h8.357c.212-.465.596-.836 1.072-1.028V3.855c-.501-.203-.901-.603-1.104-1.104zM10.5 5c.276 0 .5.224.5.5v5c0 .276-.224.5-.5.5h-5c-.276 0-.5-.224-.5-.5v-5c0-.276.224-.5.5-.5h5zM14 1.5c-.276 0-.5.224-.5.5s.224.5.5.5.5-.224.5-.5-.224-.5-.5-.5zm-12 0c-.276 0-.5.224-.5.5s.224.5.5.5.5-.224.5-.5-.224-.5-.5-.5z"/>
</svg>
