<svg xmlns="http://www.w3.org/2000/svg" width="16" height="16" viewBox="0 0 16 16">
    <g fill="none" fill-rule="evenodd">
        <path fill="#42C5E1" d="M8 .25c2.623 0 4.75 2.127 4.75 4.75v1H14c.552 0 1 .448 1 1v8c0 .552-.448 1-1 1H2c-.552 0-1-.448-1-1V7c0-.552.448-1 1-1h1.25V5C3.25 2.45 5.26.369 7.783.255zm0 1.5C6.205 1.75 4.75 3.205 4.75 5v1h6.5V5c0-1.733-1.356-3.15-3.066-3.245z"/>
        <path fill="#FFF" d="M8 9c.828 0 1.5.672 1.5 1.5 0 .565-.313 1.057-.774 1.313.016.06.024.122.024.187v.75c0 .414-.336.75-.75.75s-.75-.336-.75-.75V12c0-.065.008-.127.024-.187-.461-.256-.774-.748-.774-1.313C6.5 9.672 7.172 9 8 9z"/>
    </g>
</svg>
