<svg xmlns="http://www.w3.org/2000/svg" width="16" height="16" viewBox="0 0 16 16">
    <path fill="#42C5E1" fill-rule="evenodd" d="M12.5 1.5c0-.245.177-.45.41-.492L13 1h2.5c.245 0 .45.177.492.41L16 1.5v13c0 .245-.177.45-.41.492L15.5 15H13c-.245 0-.45-.177-.492-.41l-.008-.09v-13zM4.551 7.636c0-.22.18-.4.4-.4h3.871L7.805 6.217c-.195-.195-.195-.512 0-.707l.354-.353c.195-.196.512-.196.707 0l2.475 2.475c.195.195.195.511 0 .707l-2.475 2.475c-.195.195-.512.195-.707 0l-.354-.354c-.195-.195-.195-.512 0-.707l1.017-1.019-3.87.001c-.222 0-.4-.179-.4-.4v-.7zM0 1.5c0-.245.177-.45.41-.492L.5 1H3c.245 0 .45.177.492.41l.008.09v13c0 .245-.177.45-.41.492L3 15H.5c-.245 0-.45-.177-.492-.41L0 14.5v-13z"/>
</svg>
