<svg xmlns="http://www.w3.org/2000/svg" width="16" height="16" viewBox="0 0 16 16">
    <g fill="none" fill-rule="evenodd">
        <path fill="#42C5E1" d="M15.5 0c.276 0 .5.224.5.5v15c0 .276-.224.5-.5.5H.5c-.276 0-.5-.224-.5-.5V.5C0 .224.224 0 .5 0h15z"/>
        <path fill="#FFF" d="M12 10.25c.276 0 .5.224.5.5v.5c0 .276-.224.5-.5.5H4c-.276 0-.5-.224-.5-.5v-.5c0-.276.224-.5.5-.5h8zm0-3c.276 0 .5.224.5.5v.5c0 .276-.224.5-.5.5H4c-.276 0-.5-.224-.5-.5v-.5c0-.276.224-.5.5-.5h8zm0-3c.276 0 .5.224.5.5v.5c0 .276-.224.5-.5.5H4c-.276 0-.5-.224-.5-.5v-.5c0-.276.224-.5.5-.5h8z"/>
    </g>
</svg>
