<svg xmlns="http://www.w3.org/2000/svg" width="16" height="16" viewBox="0 0 16 16">
    <g fill="none" fill-rule="evenodd">
        <path fill="#EFC302" d="M15.5 0c.276 0 .5.224.5.5v11c0 .276-.224.5-.5.5h-3.769l-4.405 3.79c-.21.18-.525.156-.705-.053-.078-.091-.121-.207-.121-.326L6.499 12H.5c-.276 0-.5-.224-.5-.5V.5C0 .224.224 0 .5 0h15z"/>
        <path fill="#151826" d="M8.25 8.25c.414 0 .75.336.75.75v.5c0 .414-.336.75-.75.75h-.5c-.414 0-.75-.336-.75-.75V9c0-.414.336-.75.75-.75h.5zm.219-6.5c.276 0 .5.224.5.5l-.001.03-.273 4.5c-.016.264-.235.47-.499.47h-.392c-.264 0-.483-.206-.5-.47l-.272-4.5c-.017-.275.193-.512.469-.53h.968z"/>
    </g>
</svg>
