<svg xmlns="http://www.w3.org/2000/svg" width="17" height="16" viewBox="0 0 17 16">
    <g fill="none" fill-rule="evenodd">
        <path fill="#F3743E" d="M15.5 1.5c.276 0 .5.243.5.542v11.916c0 .3-.224.542-.5.542H.5c-.276 0-.5-.243-.5-.542V2.042c0-.3.224-.542.5-.542h15z"/>
        <path fill="#FFF" fill-rule="nonzero" d="M13.861 3.792l.278.416c.153.23.09.54-.139.693L8.277 8.716c-.168.112-.386.112-.554 0L2 4.901c-.23-.153-.292-.463-.139-.693l.278-.416c.153-.23.463-.292.693-.139l4.89 3.26c.169.111.387.111.555 0l4.89-3.26c.23-.153.541-.09.694.139z"/>
    </g>
</svg>
