<svg xmlns="http://www.w3.org/2000/svg" width="16" height="16" viewBox="0 0 16 16">
    <g fill="none" fill-rule="evenodd">
        <circle cx="8" cy="8" r="8" fill="#448EF2"/>
        <path fill="#FFF" d="M7.586 5.598c.39 0 .722.125.997.374.277.25.416.55.416.904 0 .473-.264.883-.793 1.233l.459.61.381-.4.012-.01c.044-.033.107-.024.14.02l.488.647c.03.039.026.094-.008.13-.234.242-.374.385-.42.428l.524.725c.013.017.02.037.02.058 0 .055-.045.1-.1.1H8.59c-.033 0-.063-.016-.082-.042l-.15-.215c-.336.227-.681.34-1.035.34-.41 0-.757-.142-1.043-.426-.287-.286-.43-.632-.43-1.036 0-.526.267-.944.801-1.254-.239-.31-.359-.62-.359-.929 0-.347.126-.644.377-.89.25-.244.555-.367.917-.367zM3.606 5.5c.348 0 .655.054.919.16.263.108.483.26.66.458.175.198.307.438.395.72.088.282.132.6.132.952 0 .325-.046.625-.137.9-.091.274-.225.513-.4.717l.54.84c.01.017.015.036.015.055 0 .055-.044.1-.1.1h-.955c-.031 0-.06-.014-.079-.039l-.3-.384c-.105.032-.215.057-.33.075-.115.018-.235.027-.36.027-.348 0-.655-.053-.919-.158-.263-.105-.483-.257-.66-.455-.175-.198-.307-.439-.395-.722-.088-.284-.132-.602-.132-.956 0-.353.044-.67.132-.952.088-.282.22-.522.396-.72.176-.198.396-.35.66-.457.263-.107.57-.161.918-.161zm9.263.196c.029 0 .055.012.074.032l.021.036 1.529 4.506c.003.01.005.021.005.032 0 .041-.025.077-.06.092l-.04.008h-1.157c-.034 0-.065-.017-.083-.044l-.014-.03-.169-.629c-.008-.033-.033-.058-.064-.068l-.032-.006h-1.342c-.034 0-.065.017-.083.044l-.013.03-.167.629c-.008.032-.033.058-.064.069l-.032.005h-1.126c-.01 0-.021-.002-.032-.005-.039-.014-.065-.049-.067-.088l.005-.04 1.529-4.505c.009-.027.029-.048.054-.06l.04-.008h1.288zM7.26 8.661c-.147.087-.22.205-.22.352 0 .108.035.201.105.28.069.075.154.113.257.113.108 0 .214-.043.316-.13zM3.606 6.549c-.298 0-.535.1-.71.3-.176.2-.264.513-.264.941 0 .429.088.743.264.942.175.2.412.3.71.3s.535-.1.71-.3c.176-.2.264-.513.264-.942 0-.428-.088-.742-.264-.941-.175-.2-.412-.3-.71-.3zm8.618.437c-.018-.005-.036 0-.048.013l-.013.022-.402 1.486-.001.013c0 .019.01.035.024.043l.026.007h.805l.013-.002c.018-.004.03-.018.035-.035v-.026l-.404-1.486c-.004-.017-.018-.03-.035-.035zM7.688 6.57c-.036 0-.07.006-.101.02-.031.013-.059.03-.083.053-.024.023-.043.05-.057.08-.014.03-.021.062-.021.095 0 .092.074.25.223.475.193-.19.29-.347.29-.472 0-.071-.025-.131-.073-.18-.048-.047-.108-.071-.178-.071z"/>
    </g>
</svg>
