<svg xmlns="http://www.w3.org/2000/svg" width="16" height="16" viewBox="0 0 16 16">
    <g fill="none" fill-rule="evenodd">
        <path fill="#96C537" d="M8.01 0c.013 0 .033.006.046.027 1.285 2.1 5.348 2.152 6.782.158.05-.07.133-.047.156.035L15 .266V8l-.02.32c-.432 5.455-5.22 6.406-6.884 7.607L8 16c-1.567-1.237-6.54-2.116-6.98-7.68L1 8V.266c0-.117.104-.163.162-.081C2.596 2.179 6.66 2.126 7.944.027c.008-.014.02-.021.031-.024L8.01 0z"/>
        <path fill="#FFF" d="M5.137 6.712c-.293.293-.293.768 0 1.061l2.121 2.121c.293.293.768.293 1.06 0l3.536-3.535c.293-.293.293-.768 0-1.06l-.077-.068c-.293-.224-.715-.201-.983.067L7.787 8.303l-1.59-1.59c-.292-.294-.767-.294-1.06 0z"/>
    </g>
</svg>
