<svg xmlns="http://www.w3.org/2000/svg" width="16" height="16" viewBox="0 0 16 16">
    <path fill="#42C5E1" fill-rule="evenodd" d="M9.2 0c.368 0 .667.298.667.667v1.21c.4.121.781.28 1.143.474l.856-.856c.26-.26.682-.26.942 0l1.697 1.697c.26.26.26.682 0 .942l-.856.856c.194.362.353.744.474 1.143h1.21c.369 0 .667.299.667.667v2.4c0 .368-.298.667-.667.667h-1.21c-.121.4-.28.781-.474 1.143l.856.856c.26.26.26.682 0 .942l-1.697 1.697c-.26.26-.682.26-.942 0l-.856-.856c-.362.193-.744.353-1.143.474v1.21c0 .369-.299.667-.667.667H6.8c-.368 0-.667-.298-.667-.667v-1.21c-.399-.121-.781-.28-1.143-.474l-.856.856c-.26.26-.682.26-.942 0l-1.697-1.697c-.26-.26-.26-.682 0-.942l.856-.856c-.193-.362-.353-.744-.474-1.143H.667C.298 9.867 0 9.568 0 9.2V6.8c0-.368.298-.667.667-.667h1.21c.121-.4.28-.781.474-1.143l-.856-.856c-.26-.26-.26-.682 0-.942l1.697-1.697c.26-.26.682-.26.942 0l.856.856c.362-.194.744-.353 1.143-.474V.667C6.133.298 6.432 0 6.8 0h2.4zM8 5.333C6.527 5.333 5.333 6.527 5.333 8c0 1.473 1.194 2.667 2.667 2.667 1.473 0 2.667-1.194 2.667-2.667 0-1.473-1.194-2.667-2.667-2.667z"/>
</svg>
