<svg xmlns="http://www.w3.org/2000/svg" width="17" height="16" viewBox="0 0 17 16">
    <g fill="none" fill-rule="evenodd">
        <path fill="#E6C44D" d="M15.5 0c.276 0 .5.224.5.5v11c0 .276-.224.5-.5.5h-3.769l-4.405 3.79c-.21.18-.525.156-.705-.053-.078-.091-.121-.207-.121-.326L6.499 12H.5c-.276 0-.5-.224-.5-.5V.5C0 .224.224 0 .5 0h15z"/>
        <path fill="#FFF" d="M4 7c.552 0 1-.448 1-1s-.448-1-1-1-1 .448-1 1 .448 1 1 1zM8 7c.552 0 1-.448 1-1s-.448-1-1-1-1 .448-1 1 .448 1 1 1zM12 7c.552 0 1-.448 1-1s-.448-1-1-1-1 .448-1 1 .448 1 1 1z"/>
    </g>
</svg>
