<svg xmlns="http://www.w3.org/2000/svg" xmlns:xlink="http://www.w3.org/1999/xlink" width="16" height="16" viewBox="0 0 16 16">
    <defs>
        <path id="xcllor8lua" d="M9.75 1c.245 0 .45.177.492.41l.008.09V15c0 .245-.177.45-.41.492l-.09.008h-3.5c-.245 0-.45-.177-.492-.41L5.75 15V1.5c0-.245.177-.45.41-.492L6.25 1h3.5zm5.75 0c.245 0 .45.177.492.41L16 1.5V15c0 .245-.177.45-.41.492l-.09.008H12c-.245 0-.45-.177-.492-.41L11.5 15V1.5c0-.245.177-.45.41-.492L12 1h3.5z"/>
    </defs>
    <g fill="none" fill-rule="evenodd">
        <use fill="#F5ABD4" xlink:href="#xcllor8lua"/>
        <use fill="#FFF" fill-opacity=".5" xlink:href="#xcllor8lua"/>
        <path fill="#EB58AA" d="M4 1c.245 0 .45.177.492.41l.008.09V15c0 .245-.177.45-.41.492L4 15.5H.5c-.245 0-.45-.177-.492-.41L0 15V1.5c0-.245.177-.45.41-.492L.5 1H4z"/>
    </g>
</svg>
