<svg xmlns="http://www.w3.org/2000/svg" width="16" height="16" viewBox="0 0 16 16">
    <g fill="none" fill-rule="evenodd">
        <path fill="#42C5E1" d="M15.5 1c.276 0 .5.224.5.5v13c0 .276-.224.5-.5.5H.5c-.276 0-.5-.224-.5-.5v-13c0-.276.224-.5.5-.5h15z"/>
        <path fill="#F5F6FB" d="M11.942 8.76c.415 0 .75.336.75.75 0 .38-.282.693-.648.743l-.102.007H6.255l.365.366c.236.237.281.593.135.875l-.063.102-.073.084c-.266.266-.683.29-.977.072l-.084-.073-2.155-2.158c-.175-.176-.175-.46 0-.636.064-.064.144-.106.23-.123l.089-.009h8.22zM9.246 4.34c.267-.267.684-.29.977-.073l.084.073 2.155 2.158c.176.176.175.461 0 .637-.064.063-.144.105-.23.122l-.088.01H3.923c-.414 0-.75-.337-.75-.75 0-.38.282-.694.648-.744l.102-.007h5.688L9.246 5.4c-.237-.237-.282-.592-.136-.875l.064-.102.072-.084z"/>
    </g>
</svg>
