<svg xmlns="http://www.w3.org/2000/svg" xmlns:xlink="http://www.w3.org/1999/xlink" width="680" height="406" viewBox="0 0 680 406">
    <defs>
        <path id="7sldgjs6ea" d="M0 0.249L44.139 0.249 44.139 0.907 0 0.907z"/>
        <path id="tak5oteiyc" d="M0 0.445L44.139 0.445 44.139 1.103 0 1.103z"/>
        <path id="nif74te50e" d="M0.483 0.643L286.124 0.643 286.124 1.3 0.483 1.3z"/>
        <path id="c2fdxu0ktg" d="M0.379 0.391L18.696 0.391 18.696 16.439 0.379 16.439z"/>
    </defs>
    <g fill="none" fill-rule="evenodd">
        <path fill="#151826" fill-rule="nonzero" d="M212.868 183v-39.53h29.584v-11.22h-29.584V74.102h-12.496v58.146h-79.57L173.085 9.58h-13.262l-54.32 125.985v7.906h94.87V183h12.496zm131.425 3.06c46.415 0 73.448-36.214 73.448-89.77 0-53.81-27.033-89.77-73.448-89.77-46.415 0-73.703 35.96-73.703 89.77 0 53.556 27.288 89.77 73.703 89.77zm0-11.731c-38.764 0-60.697-31.369-60.697-78.039s21.933-78.039 60.697-78.039c38.51 0 60.442 31.369 60.442 78.04 0 46.67-21.933 78.038-60.442 78.038zM549.931 183v-39.53h29.583v-11.22h-29.583V74.102h-12.496v58.146h-79.57L510.148 9.58h-13.262l-54.32 125.985v7.906h94.87V183h12.496z" opacity=".2"/>
        <text fill="#151826" font-family="Campton-Bold, Campton" font-size="54.598" font-weight="bold" letter-spacing="-1.606">
            <tspan x="107.307" y="390">PAGE NOT FOUND</tspan>
        </text>
        <g>
            <path fill="#F5F5F5" d="M12.304 175.476L12.304 192.973 9.383 192.973 9.383 194.873 12.304 194.873 12.304 206.583 66.913 206.583 66.913 195.927 62.868 195.927 62.868 193.606 66.913 193.606 66.913 190.124 68.711 190.124 68.711 188.542 66.576 188.542 66.576 175.476z" transform="translate(215.718 113.466)"/>
            <path fill="#E1E1E1" d="M52.411 175.527L52.411 206.389 66.913 206.389 66.913 195.733 62.868 195.733 62.868 193.606 66.913 193.678 66.913 190.197 68.746 190.199 68.711 188.4 66.576 188.347 66.576 175.476z" transform="translate(215.718 113.466)"/>
            <g>
                <path fill="#E1E1E1" d="M53.445 51.105c0 .107-9.882.194-22.069.194-12.19 0-22.07-.087-22.07-.194 0-.108 9.88-.194 22.07-.194 12.187 0 22.069.086 22.069.194M53.445 49.327c0 .107-9.882.194-22.069.194-12.19 0-22.07-.087-22.07-.194 0-.106 9.88-.194 22.07-.194 12.187 0 22.069.088 22.069.194M56.28 44.544c0 .107-9.882.194-22.07.194-12.19 0-22.07-.087-22.07-.194 0-.107 9.88-.194 22.07-.194 12.188 0 22.07.087 22.07.194M56.552 57.579c0 .107-9.881.194-22.068.194-12.192 0-22.071-.087-22.071-.194 0-.107 9.88-.194 22.07-.194 12.188 0 22.07.087 22.07.194" transform="translate(215.718 113.466) translate(0 143.516)"/>
                <path fill="#F5F5F5" d="M2.998 4.448L2.998 21.945 0.077 21.945 0.077 23.844 2.998 23.844 2.998 35.556 57.607 35.556 57.607 24.9 53.563 24.9 53.563 22.578 57.607 22.578 57.607 19.097 59.405 19.097 59.405 17.514 57.271 17.514 57.271 4.448z" transform="translate(215.718 113.466) translate(0 143.516)"/>
                <path fill="#E1E1E1" d="M43.106 4.499L43.106 35.36 57.608 35.36 57.608 24.705 53.562 24.705 53.562 22.578 57.608 22.65 57.608 19.169 59.44 19.171 59.405 17.371 57.27 17.319 57.27 4.448z" transform="translate(215.718 113.466) translate(0 143.516)"/>
                <g transform="translate(215.718 113.466) translate(0 143.516) translate(0 23.015)">
                    <mask id="x9mtgmsshb" fill="#fff">
                        <use xlink:href="#7sldgjs6ea"/>
                    </mask>
                    <path fill="#E1E1E1" d="M44.139.579c0 .106-9.881.193-22.069.193C9.88.772 0 .685 0 .579 0 .47 9.88.385 22.07.385 34.258.385 44.14.47 44.14.579" mask="url(#x9mtgmsshb)"/>
                </g>
                <g transform="translate(215.718 113.466) translate(0 143.516) translate(0 21.042)">
                    <mask id="26vp53z6yd" fill="#fff">
                        <use xlink:href="#tak5oteiyc"/>
                    </mask>
                    <path fill="#E1E1E1" d="M44.139.774c0 .107-9.881.194-22.069.194C9.88.968 0 .88 0 .774 0 .667 9.88.58 22.07.58 34.258.58 44.14.667 44.14.774" mask="url(#26vp53z6yd)"/>
                </g>
                <path fill="#E1E1E1" d="M46.974 17.032c0 .107-9.882.194-22.069.194-12.191 0-22.07-.087-22.07-.194 0-.107 9.879-.193 22.07-.193 12.187 0 22.069.086 22.069.193M47.246 30.068c0 .106-9.882.194-22.068.194-12.192 0-22.07-.088-22.07-.194 0-.108 9.878-.194 22.07-.194 12.186 0 22.068.086 22.068.194" transform="translate(215.718 113.466) translate(0 143.516)"/>
                <path fill="#F5F5F5" d="M221.534 31.634L221.534 49.132 218.613 49.132 218.613 51.031 221.534 51.031 221.534 62.742 276.144 62.742 276.144 52.086 272.099 52.086 272.099 49.765 276.144 49.765 276.144 46.283 277.941 46.283 277.941 44.701 275.807 44.701 275.807 31.634z" transform="translate(215.718 113.466) translate(0 143.516)"/>
                <path fill="#E1E1E1" d="M261.642 31.685L261.642 62.547 276.144 62.547 276.144 51.892 272.098 51.892 272.098 49.765 276.144 49.837 276.144 46.356 277.977 46.357 277.941 44.558 275.807 44.506 275.807 31.635z" transform="translate(215.718 113.466) translate(0 143.516)"/>
                <path fill="#E1E1E1" d="M262.675 50.78c0 .107-9.882.194-22.068.194-12.192 0-22.07-.087-22.07-.194 0-.108 9.878-.194 22.07-.194 12.186 0 22.068.086 22.068.194M262.675 49.002c0 .107-9.882.194-22.068.194-12.192 0-22.07-.087-22.07-.194 0-.106 9.878-.193 22.07-.193 12.186 0 22.068.087 22.068.193M265.51 44.219c0 .107-9.881.194-22.069.194-12.191 0-22.07-.087-22.07-.194 0-.107 9.879-.194 22.07-.194 12.188 0 22.069.087 22.069.194M265.783 57.254c0 .107-9.882.194-22.07.194-12.19 0-22.07-.087-22.07-.194 0-.107 9.88-.194 22.07-.194 12.188 0 22.07.087 22.07.194" transform="translate(215.718 113.466) translate(0 143.516)"/>
                <path fill="#F5F5F5" d="M217.784 0.527L217.784 18.024 214.862 18.024 214.862 19.923 217.784 19.923 217.784 31.635 272.392 31.635 272.392 20.979 268.348 20.979 268.348 18.658 272.392 18.658 272.392 15.176 274.19 15.176 274.19 13.593 272.055 13.593 272.055 0.527z" transform="translate(215.718 113.466) translate(0 143.516)"/>
                <path fill="#E1E1E1" d="M257.891 0.578L257.891 31.44 272.392 31.44 272.392 20.784 268.347 20.784 268.347 18.658 272.392 18.729 272.392 15.248 274.225 15.25 274.19 13.451 272.055 13.398 272.055 0.527z" transform="translate(215.718 113.466) translate(0 143.516)"/>
                <path fill="#E1E1E1" d="M258.924 19.672c0 .108-9.881.194-22.069.194-12.19 0-22.07-.086-22.07-.194 0-.107 9.88-.194 22.07-.194 12.188 0 22.069.087 22.069.194M258.924 17.895c0 .107-9.881.194-22.069.194-12.19 0-22.07-.087-22.07-.194 0-.107 9.88-.194 22.07-.194 12.188 0 22.069.087 22.069.194M261.759 13.112c0 .107-9.881.194-22.069.194-12.191 0-22.07-.087-22.07-.194 0-.108 9.879-.194 22.07-.194 12.188 0 22.069.086 22.069.194M262.031 26.147c0 .107-9.881.194-22.068.194-12.192 0-22.071-.087-22.071-.194 0-.108 9.88-.194 22.07-.194 12.188 0 22.07.086 22.07.194" transform="translate(215.718 113.466) translate(0 143.516)"/>
            </g>
            <path fill="#1A2E35" d="M218.562 173.578L265.123 173.578 265.123 167.18 218.562 167.18z" transform="translate(215.718 113.466)"/>
            <path fill="#1A2E35" d="M218.641 173.497h46.401v-6.237h-46.4v6.237zm-.159.16h46.72V167.1h-46.72v6.558z" transform="translate(215.718 113.466)"/>
            <path fill="#1A2E35" d="M222.879 171.448L229.581 204.511 254.378 204.511 260.857 173.577z" transform="translate(215.718 113.466)"/>
            <path fill="#375A64" d="M222.879 201.384L226.454 206.299 256.594 206.299 260.857 201.384z" transform="translate(215.718 113.466)"/>
            <g>
                <path fill="#1A2E35" d="M43.482 92.68c-.092 0-.209-15.317-.262-34.207-.053-18.898-.022-34.213.069-34.213.092 0 .21 15.314.262 34.212.054 18.89.023 34.209-.07 34.209M53.854 54.35c.01.005-.034.127-.125.355l-.416.992-.304.714-.31.87-.359.997c-.124.353-.222.739-.344 1.137-.509 1.587-.913 3.534-1.303 5.7-.338 2.178-.593 4.589-.72 7.13-.226 5.086.06 9.7.367 13.022.15 1.662.302 3.006.412 3.933l.118 1.07c.023.245.03.374.018.376-.011.002-.04-.125-.085-.367l-.179-1.062c-.15-.923-.337-2.264-.516-3.926-.368-3.324-.694-7.951-.467-13.062.129-2.552.394-4.977.751-7.164.408-2.177.84-4.13 1.38-5.719.13-.398.235-.784.369-1.137l.384-.995.338-.863c.115-.261.233-.494.332-.706l.474-.969c.111-.22.174-.332.185-.327" transform="translate(215.718 113.466) translate(196.612 79.733)"/>
                <path fill="#1A2E35" d="M52.663 41.96c.011.005-.04.18-.148.506l-.484 1.424-.357 1.026-.374 1.237c-.272.887-.588 1.894-.87 3.027l-.465 1.77-.438 1.938c-.325 1.333-.56 2.781-.86 4.294-.512 3.042-.964 6.406-1.277 9.953-.293 3.55-.421 6.943-.467 10.029-.009 3.086.03 5.868.157 8.2.041 1.166.116 2.22.176 3.145.053.927.112 1.724.171 2.374l.114 1.5c.022.344.029.525.017.526-.01.001-.04-.177-.084-.519l-.175-1.495c-.08-.649-.157-1.445-.228-2.371-.077-.926-.17-1.98-.225-3.149-.157-2.333-.22-5.12-.228-8.213.028-3.093.147-6.496.442-10.055.313-3.558.775-6.93 1.307-9.979.31-1.515.555-2.966.892-4.301l.457-1.938.49-1.77c.295-1.133.627-2.139.917-3.022l.402-1.232.384-1.019.544-1.404c.127-.32.199-.486.21-.481M40.537 95.39c-.006 0-.015-.06-.027-.178l-.043-.527c-.033-.488-.08-1.167-.137-2.028l-.467-7.462c-.405-6.298-.989-15-2.05-24.57-.54-4.784-1.168-9.328-1.821-13.448-.347-2.056-.662-4.013-1.02-5.834-.327-1.826-.68-3.516-1.004-5.06-.307-1.547-.648-2.934-.922-4.156-.27-1.224-.53-2.272-.749-3.127l-.483-1.974-.118-.515c-.025-.117-.035-.179-.03-.179.007 0 .027.056.062.17l.15.507c.13.472.313 1.127.544 1.959.238.85.517 1.894.804 3.116.292 1.22.65 2.604.97 4.15.34 1.541.707 3.232 1.047 5.058.37 1.82.695 3.778 1.05 5.836.67 4.122 1.308 8.67 1.85 13.46 1.062 9.58 1.61 18.29 1.954 24.593.171 3.153.29 5.704.362 7.468l.074 2.032.012.53c0 .118-.002.18-.008.18" transform="translate(215.718 113.466) translate(196.612 79.733)"/>
                <path fill="#FF2D34" d="M43.102 31.624c-.202-2.17-2.395-3.807-4.575-3.83-2.179-.022-4.21 1.285-5.543 3.01-1.333 1.724-2.068 3.829-2.669 5.924-1.468 5.112-2.27 10.483-1.642 15.765.627 5.283 2.77 10.483 6.56 14.214.616.607 1.414 1.214 2.26 1.033.462-.099.841-.42 1.192-.737 7.445-6.726 11.746-16.8 11.45-26.828-.059-2.009-.322-4.1-1.434-5.773-1.113-1.672-3.705-3.45-5.599-2.778" transform="translate(215.718 113.466) translate(196.612 79.733)"/>
                <path fill="#FF4F5B" d="M26.829 14.243l-3.07 5.56c-.072.128-.166.274-.314.286-.161.013-.282-.139-.37-.274-2.704-4.152-5.41-8.304-8.115-12.455l1.87-1.06 9.999 7.943z" transform="translate(215.718 113.466) translate(196.612 79.733)"/>
                <path fill="#000" d="M26.829 14.243l-3.07 5.56c-.072.128-.166.274-.314.286-.161.013-.282-.139-.37-.274-2.704-4.152-5.41-8.304-8.115-12.455l1.87-1.06 9.999 7.943z" transform="translate(215.718 113.466) translate(196.612 79.733)"/>
                <path fill="#FF2D34" d="M43.289 24.26L15.607 7.925c-.282-.167-.588-.363-.674-.68-.11-.41.198-.804.493-1.109C19.233 2.21 24.763-.069 30.219.325c5.457.391 10.703 3.543 13.374 8.317 2.671 4.773 2.76 11.086-.304 15.618" transform="translate(215.718 113.466) translate(196.612 79.733)"/>
                <path fill="#1A2E35" d="M19.597 2.711c0-.012.123-.027.363-.045.238-.012.59-.055 1.046-.05.909-.023 2.232.037 3.84.304 1.61.265 3.498.782 5.471 1.663 1.972.876 4.012 2.143 5.87 3.809 1.845 1.684 3.31 3.589 4.379 5.464 1.072 1.876 1.775 3.704 2.197 5.277.428 1.574.619 2.884.687 3.792.05.452.03.568.043.807.005.239-.203.603-.214.604-.03.001.153-.5.043-1.397-.107-.898-.333-2.191-.783-3.741-.876-3.083-2.908-7.24-6.573-10.56-3.668-3.315-8.006-4.923-11.16-5.486-1.587-.295-2.897-.39-3.8-.407-.905-.02-1.407-.004-1.41-.034" transform="translate(215.718 113.466) translate(196.612 79.733)"/>
                <path fill="#1A2E35" d="M39.543 12.986c.015.041-.518.288-1.4.636-.882.347-2.114.792-3.493 1.23-1.38.437-2.642.786-3.563 1.01-.921.226-1.499.332-1.51.289-.012-.046.545-.232 1.447-.515l3.526-1.101 3.514-1.134c.9-.291 1.462-.46 1.479-.415M35.184 1.276c.088-.008.285 1.373.327 3.088.044 1.717-.081 3.105-.171 3.101-.094-.003-.116-1.387-.16-3.093-.042-1.703-.09-3.087.004-3.096M15.366 7.615c-.014-.041.753-.32 2.011-.707 1.257-.388 3.01-.879 4.961-1.35 1.953-.47 3.736-.83 5.033-1.058 1.296-.228 2.104-.329 2.112-.286.008.047-.785.23-2.067.516-1.281.286-3.052.682-5 1.15-1.948.47-3.704.925-4.976 1.254-1.27.329-2.06.527-2.074.481" transform="translate(215.718 113.466) translate(196.612 79.733)"/>
                <path fill="#FF2D34" d="M31.613 26.915c-2.381-1.805-4.898-2.16-7.884-2.042-2.986.118-5.892 1.028-8.628 2.226-4.668 2.045-9.056 5.058-11.845 9.323-2.79 4.265-3.76 9.911-1.672 14.56.208.463.479.947.945 1.147.492.21 1.055.046 1.563-.12 5.31-1.732 10.656-3.48 15.537-6.192s9.325-6.482 11.944-11.414c.629-1.184 1.154-2.452 1.258-3.788.102-1.336-.267-2.755-1.218-3.7" transform="translate(215.718 113.466) translate(196.612 79.733)"/>
                <path fill="#1A2E35" d="M31.66 26.355c.003.012-.129.065-.382.155l-1.112.383-.806.27c-.292.104-.604.235-.942.365-.67.272-1.45.544-2.272.942l-1.301.593c-.452.209-.903.464-1.38.708-.963.472-1.936 1.077-2.972 1.689-2.036 1.287-4.19 2.835-6.286 4.661-2.08 1.848-3.89 3.787-5.427 5.643-.739.95-1.462 1.839-2.053 2.734-.302.442-.614.856-.878 1.277l-.754 1.216c-.5.763-.868 1.503-1.223 2.134-.173.318-.342.61-.484.887l-.37.765-.52 1.054c-.122.24-.192.363-.203.359-.01-.005.039-.138.142-.386l.466-1.083c.105-.238.22-.497.343-.78.134-.28.295-.578.461-.902.341-.642.697-1.393 1.186-2.168l.74-1.235c.26-.426.568-.847.867-1.295.586-.907 1.305-1.807 2.043-2.77 1.533-1.878 3.35-3.838 5.445-5.699 2.111-1.839 4.286-3.392 6.344-4.672 1.048-.61 2.033-1.208 3.007-1.673.482-.24.938-.491 1.396-.695l1.318-.577c.83-.387 1.62-.644 2.302-.9.342-.123.657-.246.953-.343l.818-.241 1.133-.324c.26-.071.397-.103.4-.092M13.06 36.427c.025.088-2.568.923-5.792 1.865-3.224.943-5.859 1.636-5.884 1.548-.026-.087 2.566-.923 5.792-1.865 3.223-.943 5.858-1.636 5.884-1.548" transform="translate(215.718 113.466) translate(196.612 79.733)"/>
                <path fill="#1A2E35" d="M12.821 49.207c-.044 0-.096-.69-.127-1.805-.03-1.115-.035-2.657.012-4.36.048-1.703.139-3.242.232-4.354.092-1.112.183-1.797.227-1.795.048.003.04.694.007 1.807l-.134 4.352-.11 4.35c-.03 1.114-.06 1.804-.107 1.805M23.77 43.63c-.093.006-.383-3.128-.65-7-.269-3.871-.411-7.015-.32-7.02.09-.007.382 3.126.65 6.998.267 3.871.41 7.015.32 7.021" transform="translate(215.718 113.466) translate(196.612 79.733)"/>
                <path fill="#1A2E35" d="M10.142 29.305c.002-.046.712-.064 1.856-.056 1.145.008 2.725.042 4.469.1 1.744.057 3.324.128 4.467.196 1.142.067 1.849.132 1.848.179 0 .045-.709.063-1.854.055-1.144-.007-2.725-.042-4.472-.1-1.746-.057-3.326-.128-4.468-.195-1.143-.068-1.848-.133-1.846-.179M36.42 67.435c-.012 0-.024-.127-.04-.37l-.048-1.066c-.042-.924-.052-2.265-.016-3.92.03-1.655.143-3.625.341-5.807.216-2.179.528-4.569.975-7.059.459-2.488 1.01-4.837 1.575-6.955.583-2.115 1.172-4.002 1.728-5.566.55-1.566 1.032-2.82 1.397-3.674l.422-.982c.099-.224.156-.339.167-.335.01.005-.026.128-.106.36l-.363 1.003c-.327.866-.774 2.13-1.295 3.7-.525 1.57-1.09 3.457-1.654 5.57-.548 2.115-1.087 4.457-1.544 6.937-.446 2.48-.765 4.86-.997 7.03-.215 2.173-.351 4.135-.412 5.786-.064 1.65-.09 2.987-.09 3.91l-.013 1.066c-.007.244-.015.372-.027.372" transform="translate(215.718 113.466) translate(196.612 79.733)"/>
                <path fill="#1A2E35" d="M37.88 49.31c.032.033-.388.499-1.104 1.212-.717.714-1.733 1.673-2.893 2.691-1.161 1.017-2.244 1.9-3.047 2.517-.801.616-1.318.97-1.346.936-.029-.038.436-.456 1.198-1.119l2.976-2.583 2.952-2.613c.756-.668 1.231-1.075 1.264-1.04M46.642 56.368c-.04.025-.479-.604-1.175-1.628l-2.736-3.993-2.793-3.953c-.718-1.01-1.156-1.64-1.118-1.669.035-.027.538.553 1.307 1.53.767.974 1.793 2.349 2.876 3.903 1.081 1.555 2.013 2.996 2.66 4.054.648 1.059 1.017 1.733.98 1.756M42.052 34.171c.05.077-2.86 2.037-6.5 4.376-3.64 2.34-6.63 4.175-6.68 4.098-.05-.077 2.86-2.036 6.5-4.377 3.64-2.34 6.63-4.174 6.68-4.097M50.26 43.03c-.065.065-2.036-1.757-4.403-4.069-2.368-2.313-4.235-4.24-4.17-4.306.064-.065 2.034 1.757 4.402 4.069 2.367 2.312 4.234 4.24 4.17 4.305" transform="translate(215.718 113.466) translate(196.612 79.733)"/>
                <path fill="#FF2D34" d="M52.324 42.852l2.498-.207c1.773-.147 3.495-.672 5.046-1.545.766-.432 1.536-.854 2.351-1.181 3.09-1.24 6.536-1.019 9.861-1.185 5.426-.272 10.795-1.645 15.686-4.011.282-.137.532-.345.683-.62.513-.935-.44-1.768-1.26-2.274-4.21-2.593-8.494-5.22-13.268-6.507-4.774-1.288-10.193-1.07-14.266 1.733-4.781 3.29-6.523 10.049-7.331 15.797" transform="translate(215.718 113.466) translate(196.612 79.733)"/>
                <path fill="#1A2E35" d="M88.506 33.796c-.006.01-.152-.059-.424-.198l-1.184-.62c-1.028-.54-2.507-1.337-4.375-2.234-1.87-.886-4.135-1.886-6.77-2.608-2.626-.73-5.654-1.112-8.776-.712-3.11.41-5.973 1.62-8 3.435-2.04 1.81-3.286 3.995-4.166 5.852-.878 1.872-1.419 3.465-1.813 4.556l-.445 1.26c-.104.287-.163.436-.174.433-.011-.003.028-.16.111-.454l.385-1.28c.357-1.105.865-2.713 1.723-4.614.86-1.883 2.1-4.115 4.176-5.98 2.065-1.874 4.995-3.121 8.159-3.537 3.176-.408 6.254-.008 8.9.745 2.66.747 4.93 1.778 6.793 2.694 1.863.926 3.325 1.755 4.334 2.33.478.28.862.506 1.154.675.262.159.397.246.392.257" transform="translate(215.718 113.466) translate(196.612 79.733)"/>
                <path fill="#1A2E35" d="M82.505 37.02c-.05.075-3.319-2.039-7.299-4.722-3.98-2.684-7.164-4.92-7.113-4.996.051-.076 3.319 2.037 7.3 4.721 3.978 2.683 7.163 4.921 7.112 4.997M79.02 27.13c.015.072-1.042.319-2.38.427-1.337.112-2.428.044-2.426-.03 0-.08 1.077-.136 2.398-.246 1.32-.107 2.391-.229 2.407-.151M64.714 25.266c.079.036-.401.785-1.072 1.674-.67.889-1.279 1.58-1.358 1.544-.079-.037.401-.787 1.073-1.676.67-.888 1.278-1.58 1.357-1.542M67.642 38.944c-.023.038-.629-.28-1.573-.852-.943-.573-2.22-1.413-3.583-2.402-1.362-.99-2.564-1.926-3.428-2.611-.863-.687-1.385-1.127-1.357-1.164.027-.036.598.338 1.497.976l3.483 2.53c1.358.987 2.607 1.852 3.516 2.474.909.622 1.47 1.008 1.445 1.05" transform="translate(215.718 113.466) translate(196.612 79.733)"/>
                <path fill="#FF2D34" d="M56.002 53.467c-2.383-.63-5.223 1.688-5.715 4.104-.49 2.416.414 4.886 1.475 7.112 2.348 4.925 5.588 9.493 9.855 12.894 4.268 3.4 9.613 5.576 15.07 5.548-1.008-4.68.266-9.57-.295-14.323-.49-4.15-2.426-8.114-5.394-11.054-2.97-2.939-6.954-4.834-11.107-5.282-1.52-.165-3.282-.404-3.889 1.001" transform="translate(215.718 113.466) translate(196.612 79.733)"/>
                <path fill="#1A2E35" d="M76.687 83.124c-.006.01-.122-.044-.34-.157-.214-.118-.525-.307-.89-.598-.75-.569-1.606-1.664-2.354-3.148-.38-.738-.805-1.539-1.22-2.426-.402-.89-.83-1.838-1.282-2.834-.454-.993-.954-2.024-1.575-3.03-.619-1.007-1.354-1.99-2.168-2.948-1.633-1.917-3.383-3.575-4.9-5.16-1.526-1.577-2.81-3.097-3.736-4.481-.937-1.38-1.504-2.616-1.826-3.487-.154-.44-.264-.783-.319-1.022-.06-.237-.086-.364-.075-.366.031-.009.166.487.514 1.34.356.85.948 2.055 1.9 3.401.941 1.354 2.23 2.844 3.761 4.404 1.524 1.567 3.285 3.22 4.934 5.156.822.967 1.567 1.968 2.192 2.994.629 1.026 1.127 2.072 1.577 3.073l1.253 2.844c.4.884.814 1.693 1.179 2.434.717 1.489 1.519 2.567 2.227 3.156.696.6 1.168.823 1.148.855" transform="translate(215.718 113.466) translate(196.612 79.733)"/>
                <path fill="#1A2E35" d="M64.363 79.235c-.043-.008.032-.622.219-1.603.186-.982.492-2.329.905-3.797.414-1.468.857-2.778 1.21-3.711.352-.936.61-1.499.65-1.483.044.016-.134.607-.428 1.558-.296.951-.7 2.265-1.112 3.726-.411 1.461-.752 2.792-.997 3.757-.244.965-.4 1.563-.447 1.553M76.235 67.749c-.014.045-.652-.117-1.68-.386-1.026-.269-2.443-.636-4.021-.991-1.579-.355-3.017-.632-4.06-.829-1.043-.197-1.688-.324-1.682-.371.006-.044.663 0 1.72.139 1.055.139 2.508.38 4.095.737 1.586.358 3.002.762 4.015 1.089 1.013.327 1.627.57 1.613.612M55.52 71.087c-.044-.01.047-.72.257-1.857.21-1.138.543-2.702.99-4.41.445-1.71.918-3.238 1.292-4.333.373-1.095.64-1.76.682-1.745.045.014-.143.705-.458 1.815-.315 1.11-.751 2.643-1.197 4.346-.443 1.703-.812 3.252-1.08 4.375-.267 1.123-.44 1.818-.487 1.809M70.767 57.738c-.01.091-2.984-.15-6.644-.537-3.66-.388-6.62-.777-6.61-.868.01-.09 2.985.15 6.645.538 3.66.388 6.62.776 6.61.867" transform="translate(215.718 113.466) translate(196.612 79.733)"/>
                <path fill="#375A64" d="M68.588 93.818c0 .091-10.458.166-23.357.166-12.903 0-23.359-.075-23.359-.166 0-.092 10.456-.166 23.36-.166 12.898 0 23.356.074 23.356.166M61.312 107.276c0 .092-7.047.167-15.737.167-8.693 0-15.738-.075-15.738-.167 0-.091 7.045-.165 15.738-.165 8.69 0 15.737.074 15.737.165M61.038 109.2c0 .092-6.923.167-15.462.167-8.542 0-15.464-.075-15.464-.166 0-.092 6.922-.166 15.464-.166 8.539 0 15.462.074 15.462.166M61.587 105.69c0 .092-7.289.167-16.278.167-8.993 0-16.28-.075-16.28-.167 0-.091 7.287-.165 16.28-.165 8.99 0 16.278.074 16.278.165" transform="translate(215.718 113.466) translate(196.612 79.733)"/>
            </g>
            <g transform="translate(215.718 113.466) translate(.658 205.328)">
                <mask id="fc0a8n439f" fill="#fff">
                    <use xlink:href="#nif74te50e"/>
                </mask>
                <path fill="#080D1D" d="M286.124.971c0 .095-63.947.172-142.813.172C64.418 1.143.483 1.066.483.97.483.876 64.418.8 143.311.8c78.866 0 142.813.076 142.813.171" mask="url(#fc0a8n439f)"/>
            </g>
            <path fill="#E1E1E1" d="M124.457 133.956L125.63 206.082 129.666 206.082 129.666 133.956zM174.906 132.521L174.906 206.101 178.829 206.125 178.829 132.521z" transform="translate(215.718 113.466)"/>
            <path fill="#E1E1E1" d="M125.679 151.935L175.41 151.935 175.41 147.558 125.679 147.558z" transform="translate(215.718 113.466)"/>
            <g>
                <path fill="#375A64" d="M120.163 134.46H50.096c-1.364 0-2.469-1.106-2.469-2.47v-7.465c0-1.365 1.105-2.47 2.469-2.47h70.067c1.363 0 2.469 1.105 2.469 2.47v7.466c0 1.363-1.106 2.468-2.469 2.468" transform="translate(215.718 113.466) translate(66.414 .167)"/>
                <path fill="#FFBF9D" d="M21.546 57.21l.394-19.756 6.122-13.747s.813-1.454 1.443-.71c.63.744-.137 1.65-.137 1.65s1.41-.3 1.157 1.064c-.25 1.363-.672 3.094-.672 3.094s.284 1.58-1.192 4.363c-1.476 2.783-1.58 4.02-1.58 4.02s1.861 2.604 3.331 3.231c1.47.628 2.753.18 3.806-.839 1.054-1.02 3.653-2.327 3.653-2.327l1.89 2.233s-2.834 3.086-3.363 4.15c-.529 1.063-2.108 5.084-3.745 6.47-1.638 1.387-2.032 6.143-2.032 6.143s-.827 4.968-9.075.962" transform="translate(215.718 113.466) translate(66.414 .167)"/>
                <path fill="#FF9A6C" d="M23.425 38.51c-.044-.018.214-.767.667-1.962.453-1.196 1.1-2.838 1.836-4.643l1.053-2.544c.171-.39.375-.766.65-1.058.276-.294.616-.49.957-.558.34-.073.683 0 .908.166.228.161.354.375.41.557.107.383-.058.58-.063.565-.033-.006.068-.207-.062-.52-.115-.301-.55-.697-1.14-.531-.281.07-.57.25-.8.511-.234.265-.412.61-.57.993l-1.025 2.548c-.736 1.805-1.419 3.433-1.93 4.605-.51 1.172-.848 1.888-.891 1.87M28.695 24.835c.05.043-.484.634-1.117 1.735-.647 1.095-1.308 2.726-1.963 4.565-.655 1.841-1.336 3.498-2.016 4.601-.334.552-.636.982-.877 1.251-.235.275-.373.418-.39.403-.05-.04.455-.654 1.056-1.773.615-1.114 1.249-2.757 1.905-4.599.655-1.84 1.365-3.49 2.078-4.574.163-.278.347-.509.5-.715.147-.21.292-.376.419-.506.245-.265.388-.403.405-.388M29.297 47.303c-.037.014-.235-.393-.324-1.11-.092-.711-.031-1.747.427-2.766.458-1.019 1.193-1.752 1.785-2.154.597-.41 1.032-.53 1.047-.495.024.05-.368.248-.9.688-.531.434-1.19 1.148-1.62 2.102-.428.953-.525 1.92-.498 2.606.024.69.136 1.114.083 1.129M28.696 50.893c-.017-.016.058-.176-.007-.511-.05-.329-.186-.8-.371-1.377-.372-1.155-.979-2.725-1.537-4.507-.272-.893-.514-1.756-.59-2.585-.047-.418.038-.846.147-1.181.103-.333.2-.65.294-.95.17-.574.188-1.058.135-1.384-.053-.327-.147-.494-.122-.507.015-.011.154.137.252.479.1.338.117.866-.03 1.471-.068.303-.167.625-.256.966-.096.35-.155.689-.106 1.077.087.777.333 1.63.603 2.513.553 1.767 1.126 3.355 1.442 4.54.158.592.261 1.081.272 1.433.03.356-.108.546-.126.523" transform="translate(215.718 113.466) translate(66.414 .167)"/>
                <path fill="#FF2D34" d="M17.348 179.06l1.2 18.126S.509 203.173.404 206.545l35.25.255-.713-28.32-17.592.58z" transform="translate(215.718 113.466) translate(66.414 .167)"/>
                <path fill="#FFF" d="M29.396 195.33c.688.166 1.182.918 1.045 1.612-.138.694-.898 1.203-1.589 1.049-.69-.153-1.311-1.038-1.097-1.712.214-.674 1.14-1.223 1.773-.908" transform="translate(215.718 113.466) translate(66.414 .167)"/>
                <path fill="#FFBABC" d="M35.653 206.8l-.072-2.854-34.046.94s-1.131.488-1.311 1.914h35.429z" transform="translate(215.718 113.466) translate(66.414 .167)"/>
                <path fill="#1A2E35" d="M17.972 197.025c.01.171.874.223 1.737.751.877.504 1.336 1.236 1.492 1.164.157-.039-.13-1.059-1.187-1.68-1.05-.63-2.084-.392-2.042-.235M14.323 198.665c-.034.167.72.437 1.326 1.147.627.692.798 1.474.97 1.462.162.022.251-.99-.52-1.857-.762-.875-1.777-.917-1.776-.752M12.359 203.15c.157.032.37-.835-.1-1.764-.464-.932-1.286-1.279-1.354-1.133-.094.144.444.634.818 1.403.393.759.464 1.482.636 1.495M18.157 192.863c.077.154.859-.106 1.833-.07.976.017 1.742.32 1.827.17.095-.127-.662-.742-1.81-.769-1.148-.036-1.939.537-1.85.669" transform="translate(215.718 113.466) translate(66.414 .167)"/>
                <path fill="#000" d="M17.59 182.65L17.8 185.88 35.11 185.199 35.043 182.284z" transform="translate(215.718 113.466) translate(66.414 .167)"/>
                <path fill="#1A2E35" d="M17.982 189.202c0 .07.684.156 1.764-.063.538-.11 1.17-.306 1.829-.623.33-.159.665-.347.997-.568.16-.11.348-.22.52-.432.185-.184.28-.644.051-.917-.188-.265-.51-.372-.765-.37-.26 0-.469.058-.659.111-.39.108-.754.248-1.086.41-.664.327-1.199.73-1.594 1.117-.795.781-1.054 1.432-.994 1.464.08.054.46-.496 1.273-1.146.406-.323.926-.661 1.547-.934.312-.136.648-.254 1.004-.343.37-.11.688-.122.788.041.037.062.042.087-.033.2-.078.102-.226.205-.382.314-.305.213-.614.399-.916.56-.605.324-1.187.55-1.686.706-1 .312-1.664.38-1.658.473" transform="translate(215.718 113.466) translate(66.414 .167)"/>
                <path fill="#1A2E35" d="M18.214 189.441c.061.025.384-.602.413-1.718.013-.553-.064-1.222-.3-1.924-.117-.35-.276-.708-.48-1.057-.217-.343-.483-.801-1.153-.858-.349-.002-.63.28-.722.514-.11.242-.126.448-.161.653-.053.413-.033.816.034 1.189.134.746.46 1.36.809 1.8.716.892 1.44 1.075 1.453 1.017.055-.088-.555-.402-1.109-1.264-.272-.424-.52-.988-.607-1.64-.045-.326-.05-.672.001-1.021.043-.376.175-.683.316-.649.175-.008.482.265.635.56.19.31.344.63.466.942.24.63.355 1.237.395 1.75.08 1.034-.085 1.683.01 1.706" transform="translate(215.718 113.466) translate(66.414 .167)"/>
                <path fill="#080D1D" d="M13.651 184.2s-1.376-61.976-.16-69.077c1.219-7.1 5.844-14.7 10.227-15.405 4.384-.704 43.469-3.462 43.469-3.462h29.089L88.842 124.5l-35.541.323-11.041.253-3.56 59.123H13.651z" transform="translate(215.718 113.466) translate(66.414 .167)"/>
                <path fill="#375A64" d="M41.564 115.773c.04-.015.267.449.525 1.24.259.79.53 1.915.666 3.182.133 1.266.101 2.423.014 3.25-.088.828-.212 1.328-.255 1.323-.106-.013.173-2.047-.1-4.538-.253-2.492-.952-4.423-.85-4.457M30.935 121.062c-.008-.022.15-.111.448-.246.299-.134.735-.323 1.298-.498.562-.17 1.263-.338 2.064-.3.806.022 1.66.373 2.408.867 1.49.987 2.805 1.907 3.758 2.582.95.677 1.524 1.115 1.497 1.154-.026.04-.648-.328-1.632-.954-.985-.62-2.331-1.517-3.807-2.493-.734-.482-1.497-.802-2.244-.841-.743-.052-1.421.08-1.978.219-1.115.297-1.792.564-1.812.51M21.205 183.257c-.095 0-.171-14.069-.171-31.42 0-17.357.076-31.422.171-31.422.095 0 .171 14.065.171 31.423 0 17.35-.076 31.42-.171 31.42M36.317 102.678c.005.068-1.214.072-3.091.56-1.866.472-4.393 1.542-6.6 3.508-2.207 1.967-3.559 4.355-4.243 6.154-.699 1.81-.843 3.02-.91 3.006-.02-.002-.001-.306.089-.846.088-.54.269-1.317.594-2.244.636-1.848 1.983-4.313 4.242-6.325 2.26-2.013 4.862-3.07 6.77-3.489.959-.217 1.75-.308 2.298-.333.547-.027.85-.01.85.009M50.615 101.108c.012.094-2.389.47-5.36.84-2.972.37-5.39.594-5.402.5-.012-.093 2.388-.47 5.36-.84 2.971-.37 5.39-.594 5.402-.5" transform="translate(215.718 113.466) translate(66.414 .167)"/>
                <path fill="#FF2D34" d="M84.382 179.333l-1.707 20.727-6.076 16.005c-.438 1.154.192 2.437 1.373 2.796.66.2 1.373.073 1.919-.35 3.475-2.695 16.21-12.67 16.25-14.194.047-1.765 3.252-21.745 3.252-21.745l-15.011-3.24z" transform="translate(215.718 113.466) translate(66.414 .167)"/>
                <g transform="translate(215.718 113.466) translate(66.414 .167) translate(77.593 202.53)">
                    <mask id="qqxw9ipbzh" fill="#fff">
                        <use xlink:href="#c2fdxu0ktg"/>
                    </mask>
                    <path fill="#FFBABC" d="M.379 16.33L18.696.39l-.093.877c-.08.758-.422 1.463-.974 1.988C16.153 4.66 11.993 8.451 2.36 15.988c-.561.438-1.307.568-1.982.343" mask="url(#qqxw9ipbzh)"/>
                </g>
                <path fill="#FFF" d="M92.747 195.801c-.556.304-.808 1.07-.527 1.638.28.568 1.057.83 1.618.537.562-.294.892-1.204.55-1.737-.342-.533-1.271-.792-1.745-.372" transform="translate(215.718 113.466) translate(66.414 .167)"/>
                <path fill="#1A2E35" d="M83.652 210.322c-.123.045-.476-1.087-1.644-1.8-1.148-.747-2.32-.576-2.334-.706-.012-.053.266-.186.758-.203.487-.02 1.179.121 1.819.523.639.404 1.065.967 1.257 1.415.196.451.196.76.144.771M81.886 212.936c-.107.08-.7-.663-1.738-1.082-1.028-.442-1.973-.34-1.993-.473-.048-.112.994-.446 2.169.052 1.18.484 1.676 1.46 1.562 1.503M86.768 207.061c-.107.089-1.014-1.058-2.57-1.851-1.544-.818-3.004-.901-2.992-1.04-.023-.112 1.545-.239 3.203.634 1.666.855 2.465 2.21 2.359 2.257M87.813 200.804c-.068.118-1.16-.48-2.642-.69-1.479-.231-2.697.022-2.728-.11-.046-.108 1.206-.586 2.796-.342 1.59.23 2.65 1.052 2.574 1.142M88.468 194.732c-.076.112-1.153-.698-2.73-.792-1.577-.129-2.756.522-2.816.4-.03-.047.223-.282.73-.508.502-.226 1.268-.405 2.117-.347.85.06 1.583.347 2.048.641.47.294.687.564.65.606M85.895 192.789c-.026-.003-.043-.286.055-.785.098-.497.321-1.219.837-1.984.264-.361.55-.83 1.155-1.042.302-.108.724-.01.94.29.216.293.257.64.23.969-.16 1.31-1.422 2.462-2.918 2.495-1.5.006-2.753-.981-3.222-2.177-.098-.307-.148-.677.05-1.01.194-.335.63-.431.92-.35.605.157.954.552 1.288.852.652.649 1.03 1.298 1.242 1.756.213.462.268.74.243.748-.079.047-.416-1.07-1.707-2.269-.328-.279-.703-.628-1.14-.715-.214-.044-.408.022-.504.188-.096.158-.08.423.007.665.4.98 1.547 1.88 2.814 1.855 1.262-.015 2.369-1.029 2.508-2.082.03-.254-.012-.517-.131-.683-.119-.162-.318-.225-.516-.167-.42.119-.736.526-.995.864-1.032 1.427-1.066 2.612-1.156 2.582" transform="translate(215.718 113.466) translate(66.414 .167)"/>
                <path fill="#FF4F5B" d="M75.029 31.696L64.761 28.18 47.248 34.597 45.911 37.052 63.557 35.132z" transform="translate(215.718 113.466) translate(66.414 .167)"/>
                <path fill="#080D1D" d="M105.833 106.804s-17.796 1.6-20.745 4.619c-2.95 3.02-4.11 10.152-4.882 14.778-.773 4.626-1.876 59.851-1.876 59.851l25.647.741 3.742-59.78s11.93-.73 13.878-8.765c1.949-8.034-2.917-21.992-2.917-21.992l-13.473 3.013.626 7.535z" transform="translate(215.718 113.466) translate(66.414 .167)"/>
                <path fill="#375A64" d="M107.918 116.882c.095.005.06 2.562-.079 5.713-.138 3.151-.327 5.702-.421 5.699-.094-.005-.06-2.562.079-5.714.138-3.15.326-5.702.421-5.698M112.522 117.038c.037 0 .1.637-.001 1.664-.099 1.025-.405 2.436-1.046 3.881-.644 1.443-1.488 2.616-2.182 3.375-.695.764-1.21 1.144-1.235 1.115-.091-.075 1.859-1.779 3.105-4.629 1.282-2.833 1.242-5.423 1.359-5.406M79.115 152.697c-.012 0-.02-.152-.023-.441v-1.262l.034-4.64c.043-3.919-.009-9.34.398-15.317.392-5.973 1.459-11.373 3.032-14.992.4-.9.738-1.725 1.153-2.391.39-.678.693-1.28 1.04-1.711l.745-1.022c.174-.231.269-.349.279-.342.009.008-.068.14-.223.383l-.69 1.054c-.328.439-.612 1.048-.982 1.728-.396.668-.715 1.494-1.097 2.391-1.502 3.612-2.525 8.971-2.915 14.926-.406 5.958-.393 11.377-.498 15.295-.047 1.96-.09 3.546-.143 4.641l-.064 1.261c-.019.289-.034.44-.046.44M89.636 182.125c-.005 0-.012-.06-.019-.18l-.021-.53-.053-2.037c-.043-1.769-.062-4.33-.047-7.494.029-6.33.276-15.075.976-24.708.706-9.637 1.73-18.327 2.62-24.592.445-3.133.835-5.664 1.134-7.408l.348-2.008.099-.521c.023-.117.04-.176.045-.176.005 0 .001.063-.011.182-.016.138-.039.31-.065.525l-.284 2.018c-.259 1.75-.612 4.285-1.025 7.42-.829 6.27-1.815 14.957-2.52 24.585-.698 9.624-.984 18.36-1.075 24.685-.046 3.162-.063 5.722-.061 7.49l-.013 2.038-.012.531c-.004.12-.009.18-.016.18" transform="translate(215.718 113.466) translate(66.414 .167)"/>
                <path fill="#FFBF9D" d="M64.12 101.41s-8.705 4.493-10.671 6.178c-1.966 1.684-6.39 6.22-8.424 8.564l-5.055 9.968s.124 5.466.472 6.804c.336 1.291 2.337 1.621 2.337.076 0-1.544.14-5.194.14-5.194l2.387-3.51-1.264 3.369s-.356 7.215.983 7.722c1.308.495 1.92-.117 1.92-1.661 0-1.545.142-5.797.142-5.797l2.356-3.958-.487 4.536s-.561 5.617.14 6.459c.703.842 1.967-.562 1.967-.562s1.684 3.23 2.386.141c.702-3.09 1.123-6.318 1.123-6.318l3.792-9.581 3.65-5.864 6.177-2.246s1.264-7.862-4.071-9.126" transform="translate(215.718 113.466) translate(66.414 .167)"/>
                <path fill="#FF9A6C" d="M53.236 123.463c.048.021-.188.613-.52 1.582-.333.97-.74 2.325-1.047 3.856-.303 1.532-.447 2.94-.511 3.963-.065 1.023-.074 1.66-.126 1.661-.043.002-.12-.635-.116-1.67.002-1.034.11-2.468.417-4.02.311-1.553.762-2.918 1.156-3.875.394-.957.71-1.515.747-1.497" transform="translate(215.718 113.466) translate(66.414 .167)"/>
                <path fill="#FF2D34" d="M70.124 31.815s13.821-1.037 19.177.863c5.355 1.901 13.82 5.01 15.203 12.094 0 0 7.256 22.113 7.947 26.26.69 4.146 3.456 17.622 3.456 17.622s4.319 3.628 4.319 7.256l-26.26 5.874s-20.042.691-26.78-5.528v-4.32s-1.727-1.9-2.245-3.973l-1.037-4.146s-13.303-10.884-15.03-14.34c-1.728-3.455-12.44-20.386-12.44-20.386s.519-7.256 7.257-10.711c6.737-3.456 26.433-6.565 26.433-6.565" transform="translate(215.718 113.466) translate(66.414 .167)"/>
                <path fill="#FF2D34" d="M48.874 69.477s-.086.342-.244.948c-1.24 4.778-6.926 26.047-10.195 27.5-3.686 1.638-11.45 3.89-16.774-3.071-5.323-6.961-2.756-38.55-2.756-38.55l12.79-.225.392 11.954 4.347-18.942 13.67 16.484-1.23 3.902z" transform="translate(215.718 113.466) translate(66.414 .167)"/>
                <path fill="#1A2E35" d="M74.55 31.532c.018 0 .036.306.053.875l.046 2.455v.013l-.003.015c-.835 3.074-2.354 8.112-4.12 13.786-1.094 3.524-2.098 6.798-2.902 9.513l-.175.594-.1-.61c-.186-1.128-.736-2.074-1.374-2.744-.629-.69-1.346-1.11-1.954-1.375-1.244-.517-2.052-.406-2.043-.465 0-.011.192-.031.557-.024.363.02.904.091 1.547.338.636.252 1.39.665 2.06 1.368.677.683 1.274 1.663 1.486 2.857l-.276-.017c.769-2.729 1.752-6.013 2.846-9.536l4.256-13.74-.004.027.047-2.455c.016-.569.034-.875.053-.875" transform="translate(215.718 113.466) translate(66.414 .167)"/>
                <path fill="#1A2E35" d="M69.976 32.798c.021.01-.083.303-.292.824l-.887 2.2c-.751 1.859-1.757 4.437-2.818 7.304l-2.687 7.358-.834 2.224c-.204.523-.327.808-.35.8-.022-.008.06-.308.224-.844l.732-2.26c.633-1.902 1.531-4.525 2.594-7.397 1.063-2.87 2.106-5.441 2.915-7.278.404-.919.742-1.657.99-2.161.246-.505.391-.78.413-.77M47.468 44.433c.032.018-.191.333-.369.984-.184.642-.268 1.646.055 2.804.307 1.161 1.097 2.4 2.221 3.532 1.128 1.131 2.52 2.239 4.003 3.35 2.406 1.786 4.797 3.194 6.757 4.21l-.198.144c-.247-1.704.173-3.106.58-3.97.206-.438.412-.755.56-.963.153-.205.244-.306.255-.298.033.022-.305.45-.672 1.324-.356.864-.72 2.233-.451 3.863l.043.264-.241-.12c-1.99-.982-4.413-2.38-6.836-4.178-1.496-1.122-2.885-2.237-4.026-3.406-1.136-1.167-1.94-2.47-2.23-3.69-.304-1.212-.177-2.254.053-2.905.11-.329.236-.568.33-.723.1-.152.156-.228.166-.222M75.33 80.267c-.003.012-.105-.01-.3-.065-.193-.054-.474-.154-.815-.331-.685-.34-1.595-1.033-2.403-2.147-.82-1.105-1.482-2.628-1.964-4.36-.51-1.724-.885-3.667-1.714-5.541-.823-1.88-1.889-3.538-2.826-5.065-.948-1.52-1.762-2.926-2.317-4.173-.557-1.245-.866-2.314-1-3.064-.08-.372-.09-.67-.115-.868-.02-.2-.024-.305-.012-.306.03-.004.092.412.258 1.146.172.734.51 1.774 1.089 2.99.576 1.218 1.403 2.598 2.365 4.109.95 1.515 2.033 3.18 2.872 5.094.848 1.92 1.214 3.88 1.703 5.591.463 1.723 1.084 3.21 1.858 4.306.763 1.104 1.621 1.804 2.27 2.171.652.373 1.063.48 1.052.513M93.41 80.969c.007.022-.356.14-1.018.332-.661.197-1.626.448-2.827.728-2.4.564-5.757 1.191-9.502 1.572-3.749.377-7.163.435-9.627.364-1.233-.035-2.229-.087-2.916-.148-.686-.056-1.066-.098-1.064-.122.001-.024.383-.026 1.07-.01.689.018 1.684.034 2.913.037 2.459.01 5.856-.086 9.589-.462 3.73-.38 7.078-.965 9.485-1.467 1.203-.25 2.176-.464 2.846-.62.671-.154 1.046-.227 1.052-.204M96.717 92.069c.002.024-.338.068-.953.13-.616.065-1.508.134-2.612.2-2.207.132-5.265.223-8.64.149-3.377-.078-6.427-.306-8.627-.538-1.1-.116-1.988-.225-2.6-.316-.611-.09-.949-.15-.945-.174.002-.023.344-.007.96.042l2.608.207c2.2.17 5.244.36 8.611.436 3.366.074 6.416.022 8.623-.049l2.613-.09c.618-.02.96-.02.962.003" transform="translate(215.718 113.466) translate(66.414 .167)"/>
                <path fill="#1A2E35" d="M81.728 92.87c-.019.032-.558-.246-1.24-.935-.679-.68-1.467-1.823-1.833-3.272-.365-1.45-.211-2.83.065-3.75.275-.93.618-1.43.65-1.411.051.024-.21.556-.415 1.47-.209.908-.315 2.227.033 3.608.347 1.38 1.065 2.49 1.678 3.19.614.709 1.097 1.054 1.062 1.1M63.904 83.817c-.007.01-.113-.059-.308-.196l-.845-.615-1.323-.99-1.705-1.373c-2.5-2.064-5.87-5.05-9.14-8.78-3.3-3.704-5.825-7.447-7.418-10.275-.803-1.412-1.377-2.595-1.759-3.418l-.413-.96c-.09-.221-.133-.34-.122-.345.01-.005.074.104.185.316l.47.93c.417.804 1.022 1.965 1.849 3.356 1.64 2.784 4.18 6.482 7.465 10.17 3.254 3.712 6.584 6.713 9.038 8.82l1.67 1.41 1.285 1.034c.325.27.591.489.805.665.181.155.273.24.266.25M35.064 93.843c-.031-.008.107-.527.286-1.473.19-.946.356-2.336.38-4.057.027-1.722-.151-3.772-.518-6.021-.375-2.25-.945-4.696-1.594-7.252-.654-2.547-1.361-4.988-1.603-7.281-.274-2.283-.322-4.348-.365-6.078-.033-1.731-.027-3.131-.013-4.1l.025-1.114c.01-.254.02-.389.032-.389s.025.135.037.39l.04 1.112.121 4.094c.073 1.725.148 3.785.436 6.045.256 2.266.964 4.674 1.622 7.237.65 2.56 1.213 5.018 1.573 7.284.352 2.268.507 4.34.45 6.078-.056 1.736-.262 3.135-.493 4.078-.09.477-.222.833-.287 1.08-.073.244-.118.37-.129.367M31.113 65.383c.01.022-.146.104-.435.233-.288.134-.72.29-1.263.451-1.086.326-2.651.6-4.39.55-1.739-.055-3.284-.425-4.348-.817-.533-.194-.954-.376-1.233-.528-.281-.146-.43-.237-.42-.258.023-.053.66.233 1.729.556 1.066.326 2.582.65 4.283.704 1.7.05 3.232-.18 4.317-.44 1.086-.258 1.74-.504 1.76-.45" transform="translate(215.718 113.466) translate(66.414 .167)"/>
                <path fill="#FF2D34" d="M87.163 61.48l3.685 29.893-34.192 11.466 5.733 12.284s43.575-6.011 45.043-9.213c1.218-2.653 2.253-9.214 2.253-9.214l-.51-37.28s-7.68-24.347-14.027-22.095c-6.347 2.253-9.247 13.926-7.985 24.16" transform="translate(215.718 113.466) translate(66.414 .167)"/>
                <path fill="#1A2E35" d="M99.594 98.255c-.07.038-.19-1.225-1.522-2.801-.657-.776-1.601-1.61-2.847-2.299-1.232-.696-2.773-1.269-4.508-1.41l.05-.005c-3.347 1-7.318 2.156-11.446 3.726-6.21 2.207-11.935 3.863-16.034 5.199-2.053.657-3.708 1.207-4.849 1.595l-1.315.445c-.302.098-.462.144-.466.134-.005-.012.148-.08.442-.2.295-.118.729-.294 1.294-.505 1.129-.426 2.774-1.013 4.818-1.7 4.082-1.395 9.8-3.09 15.994-5.29 4.134-1.572 8.124-2.717 11.481-3.688l.027-.008.025.003c1.793.161 3.36.765 4.607 1.495 1.26.72 2.208 1.59 2.86 2.398.652.813 1.014 1.559 1.188 2.087.1.259.127.474.165.61.032.14.044.213.036.214" transform="translate(215.718 113.466) translate(66.414 .167)"/>
                <path fill="#1A2E35" d="M86.945 54.347c.095-.01 1.017 8.322 2.062 18.607 1.044 10.29 1.815 18.634 1.72 18.644-.094.01-1.017-8.32-2.062-18.609-1.044-10.285-1.814-18.632-1.72-18.642M107.364 54.847c.012-.003.063.167.15.494l.36 1.432c.159.622.34 1.387.519 2.28.183.894.413 1.907.6 3.04.422 2.256.816 4.963 1.144 7.982.304 3.02.528 6.353.586 9.857.041 3.506-.09 6.844-.307 9.873-.244 3.027-.56 5.744-.918 8.012-.155 1.137-.357 2.156-.515 3.054-.153.899-.314 1.668-.454 2.294l-.32 1.442c-.077.328-.123.5-.135.498-.011-.003.012-.179.068-.512l.257-1.454c.12-.63.26-1.4.396-2.3.14-.9.324-1.92.463-3.058.327-2.266.617-4.98.843-8 .2-3.02.32-6.35.28-9.844-.058-3.494-.273-6.817-.559-9.83-.31-3.012-.677-5.716-1.067-7.972-.171-1.133-.385-2.148-.55-3.043-.16-.896-.323-1.663-.46-2.289l-.299-1.446c-.065-.332-.093-.508-.082-.51M70.43 113.808c-.062-.01.07-.828.05-2.151-.005-.662-.077-1.448-.217-2.309-.157-.858-.391-1.79-.737-2.737-.357-.942-.789-1.801-1.232-2.553-.456-.744-.915-1.386-1.344-1.89-.85-1.014-1.485-1.547-1.444-1.595.015-.018.184.102.477.338.297.229.694.604 1.15 1.1.46.491.949 1.131 1.43 1.882.468.759.92 1.635 1.284 2.6.354.967.584 1.925.727 2.804.127.883.174 1.687.149 2.36-.02.672-.077 1.216-.152 1.585-.069.368-.117.57-.14.566M97.215 39.86c.005.067-.831.1-2.12.434-.644.162-1.39.43-2.188.79-.79.38-1.626.865-2.436 1.472-.801.62-1.49 1.297-2.066 1.958-.561.673-1.018 1.322-1.344 1.901-.664 1.153-.919 1.95-.982 1.927-.022-.007.03-.209.142-.57.054-.182.128-.401.24-.646.11-.245.218-.535.388-.828.305-.606.752-1.285 1.313-1.986.577-.689 1.279-1.393 2.101-2.028.83-.624 1.696-1.113 2.513-1.486.825-.356 1.599-.605 2.263-.739.33-.086.636-.114.902-.154.266-.043.496-.056.686-.059.38-.013.587-.01.588.014M82.47 98.85c-.08.025-.407-1.349-.062-3.02.33-1.675 1.165-2.814 1.23-2.759.092.051-.58 1.223-.895 2.827-.332 1.6-.168 2.94-.272 2.951" transform="translate(215.718 113.466) translate(66.414 .167)"/>
                <path fill="#FAFAFA" d="M101.842 44.039c0 .004-.05 0-.143-.014l-.406-.067c-.35-.064-.862-.136-1.495-.2-1.265-.132-3.034-.172-4.959.098-1.924.276-3.613.805-4.792 1.284-.59.238-1.061.449-1.38.608l-.371.177c-.085.038-.131.057-.134.053-.002-.005.04-.031.122-.078l.36-.2c.31-.174.778-.399 1.367-.65 1.174-.504 2.87-1.052 4.809-1.33 1.938-.271 3.72-.216 4.989-.058.634.077 1.145.164 1.494.244l.401.092c.092.022.14.036.138.04M107.56 56.647c-.001.005-.07-.002-.204-.021l-.58-.09c-.503-.084-1.233-.189-2.137-.299-1.808-.222-4.322-.416-7.101-.368-2.78.054-5.286.34-7.084.63-.9.143-1.625.274-2.124.377-.216.04-.405.077-.577.11-.132.024-.202.034-.204.03 0-.005.067-.025.198-.057l.57-.135c.497-.12 1.222-.265 2.12-.421 1.799-.315 4.31-.617 7.098-.67 2.787-.049 5.308.16 7.116.408.904.123 1.634.243 2.133.343l.577.114c.13.028.2.045.2.05M109.864 68.212c0 .005-.075-.002-.217-.02l-.615-.084c-.533-.079-1.307-.178-2.265-.283-1.915-.213-4.574-.403-7.514-.372-2.942.035-5.596.284-7.507.54-.954.126-1.726.242-2.257.333l-.613.097c-.141.022-.215.03-.216.025 0-.004.072-.022.21-.052l.61-.122c.529-.107 1.3-.239 2.254-.377 1.909-.28 4.569-.546 7.517-.581 2.948-.03 5.613.175 7.527.413.959.118 1.73.231 2.262.327.231.04.432.077.612.109.14.026.212.042.212.047M110.537 77.124c-.001.005-.075.003-.217-.004l-.62-.037c-.538-.039-1.317-.082-2.28-.124-1.926-.085-4.592-.121-7.529.028-2.938.153-5.586.463-7.493.745-.954.14-1.724.264-2.256.357l-.612.102c-.14.02-.214.03-.216.025 0-.004.072-.022.21-.053l.61-.126c.527-.11 1.296-.248 2.25-.4 1.905-.308 4.556-.633 7.5-.787 2.943-.15 5.613-.098 7.54.012.964.054 1.743.113 2.28.167.233.025.436.046.618.063.142.017.215.027.215.032M110.16 88.904c0 .004-.069-.009-.198-.038l-.56-.134c-.486-.122-1.191-.284-2.067-.467-1.75-.368-4.192-.772-6.914-.973-2.722-.198-5.197-.155-6.983-.046-.892.053-1.614.11-2.112.161l-.574.05c-.131.01-.2.013-.2.009-.002-.004.066-.017.197-.036l.572-.076c.496-.067 1.218-.139 2.112-.205 1.786-.133 4.268-.192 6.999.006 2.729.202 5.175.622 6.923 1.016.875.195 1.578.371 2.06.51l.555.158c.126.038.192.06.19.065M106.8 106.334s-.032-.076-.078-.224l-.198-.647c-.08-.283-.185-.626-.342-1.013-.153-.388-.3-.841-.533-1.31-.215-.48-.455-1.002-.766-1.535-.28-.55-.65-1.096-1.023-1.68-.79-1.14-1.754-2.325-2.902-3.442-1.16-1.103-2.385-2.02-3.553-2.765-.599-.35-1.159-.698-1.72-.956-.545-.29-1.076-.51-1.562-.705-.48-.216-.938-.344-1.332-.481-.392-.142-.74-.234-1.025-.303l-.654-.172c-.15-.041-.227-.07-.227-.07.001-.003.08.011.232.043l.662.148c.289.06.639.145 1.035.28.397.132.86.253 1.344.465.49.19 1.027.407 1.578.693.566.255 1.131.602 1.735.95 1.18.743 2.414 1.665 3.583 2.774 1.154 1.124 2.122 2.32 2.91 3.47.373.59.741 1.14 1.019 1.697.308.539.544 1.065.754 1.549.23.475.37.932.517 1.325.15.39.25.737.321 1.022l.174.656c.037.15.056.23.051.23M91.191 110.468c-.004 0-.014-.062-.03-.18l-.058-.517c-.043-.45-.128-1.098-.256-1.893-.255-1.593-.753-3.775-1.611-6.082-.864-2.307-1.917-4.282-2.768-5.651-.424-.686-.785-1.231-1.046-1.6l-.295-.428c-.066-.1-.1-.153-.095-.155.004-.003.044.045.117.138l.316.415c.276.358.65.897 1.085 1.578.874 1.361 1.946 3.338 2.814 5.654.863 2.32 1.348 4.515 1.578 6.116.117.8.187 1.451.214 1.903l.033.52c.006.119.007.181.002.182M79.417 112.471c-.005 0-.006-.058-.002-.167l.02-.477c.022-.414.036-1.015.01-1.754-.035-1.481-.259-3.525-.78-5.725-.526-2.201-1.248-4.126-1.884-5.463-.31-.673-.594-1.202-.8-1.562-.084-.151-.16-.289-.233-.417-.052-.096-.078-.148-.074-.15.004-.002.038.044.098.136l.256.404c.22.352.517.877.84 1.547.662 1.333 1.402 3.262 1.931 5.473.523 2.21.733 4.267.743 5.754.013.744-.016 1.347-.054 1.76l-.046.476c-.012.109-.02.166-.025.165" transform="translate(215.718 113.466) translate(66.414 .167)"/>
                <path fill="#FAFAFA" d="M105.07 101.136s-2.236 1.215-6.054 2.726c-3.807 1.536-9.191 3.335-15.223 5.008-6.042 1.653-11.582 2.879-15.622 3.595-4.038.733-6.567.975-6.567.975s.156-.03.455-.075l1.307-.188c1.134-.168 2.773-.425 4.788-.807 4.032-.741 9.565-1.98 15.602-3.632 6.029-1.672 11.412-3.455 15.224-4.965.954-.376 1.818-.713 2.562-1.045.747-.325 1.398-.588 1.91-.843l1.196-.562c.273-.126.421-.187.421-.187M99.262 40.778s.995 3.267 2.218 8.646c.631 2.685 1.254 5.911 1.897 9.5.602 3.597 1.182 7.565 1.642 11.748.442 4.188.717 8.19.869 11.834.1 3.645.137 6.932.01 9.688-.028.69-.04 1.346-.076 1.966l-.12 1.75c-.067 1.094-.14 2.035-.234 2.801l-.193 1.766c-.046.403-.077.614-.077.614s.013-.213.05-.617l.166-1.768c.086-.766.152-1.706.212-2.8l.109-1.75c.032-.62.041-1.276.066-1.965.115-2.754.069-6.038-.04-9.68-.158-3.642-.437-7.64-.878-11.824-.46-4.18-1.035-8.146-1.631-11.741-.635-3.589-1.248-6.814-1.866-9.5-.288-1.349-.58-2.56-.843-3.624-.253-1.065-.479-1.98-.684-2.724l-.45-1.718c-.101-.393-.147-.602-.147-.602M94.731 93.211s-.117.069-.345.186l-1.007.51c-.88.43-2.162 1.032-3.766 1.733-3.204 1.412-7.697 3.205-12.693 5.093-5.002 1.878-9.558 3.501-12.865 4.648l-3.921 1.341-1.07.354c-.246.08-.376.115-.376.115s.124-.053.366-.141l1.062-.378 3.907-1.383c3.298-1.17 7.848-2.807 12.848-4.685 4.996-1.886 9.492-3.664 12.703-5.053 1.609-.69 2.897-1.278 3.782-1.693l1.016-.486c.234-.11.36-.16.36-.16M90.429 42.375c.037-.004 1.497 11.54 3.26 25.784 1.764 14.248 3.162 25.798 3.124 25.803-.037.004-1.496-11.538-3.26-25.787-1.763-14.242-3.162-25.795-3.124-25.8" transform="translate(215.718 113.466) translate(66.414 .167)"/>
                <path fill="#FAFAFA" d="M66.679 114.515c-.005 0-.017-.048-.038-.141l-.081-.407c-.065-.354-.171-.865-.315-1.493-.285-1.255-.762-2.972-1.47-4.803-.711-1.832-1.517-3.422-2.151-4.54-.317-.562-.584-1.01-.774-1.315l-.214-.357c-.048-.082-.071-.126-.067-.129.004-.002.035.037.09.114l.236.343c.205.297.483.739.812 1.294.658 1.11 1.482 2.7 2.196 4.54.711 1.839 1.175 3.568 1.437 4.832.132.632.223 1.147.272 1.505.02.146.04.282.056.411.011.095.015.145.01.146M68.451 68.261c0 .005-.075.012-.22.02l-.63.03c-.548.025-1.342.045-2.324.055-1.962.02-4.674-.03-7.662-.247-2.988-.219-5.68-.562-7.617-.866-.97-.153-1.753-.287-2.291-.391l-.62-.122c-.142-.028-.216-.046-.214-.051 0-.004.075.004.219.024l.624.096 2.296.347c1.94.28 4.63.608 7.613.826 2.984.217 5.692.283 7.652.287l2.322-.011.632-.005c.144 0 .22.003.22.008M88.004 65.523c.001.004-.063.026-.185.062l-.54.15c-.468.13-1.15.303-1.997.503-1.691.4-4.047.878-6.674 1.254-2.63.374-5.026.574-6.762.663-.868.045-1.571.07-2.057.076l-.56.006c-.128 0-.195-.002-.195-.007s.066-.012.195-.02l.558-.032 2.054-.12c1.732-.113 4.123-.328 6.747-.701 2.623-.376 4.978-.839 6.673-1.214.79-.18 1.46-.334 2.005-.46l.545-.125c.125-.028.192-.04.193-.035M63.794 60.99c0 .005-.08.01-.231.015l-.663.017c-.575.016-1.41.01-2.438-.023-2.058-.064-4.901-.298-7.996-.856-3.095-.564-5.84-1.342-7.79-2.004-.974-.33-1.757-.617-2.29-.834l-.615-.248c-.14-.058-.212-.09-.21-.095.001-.005.077.02.22.07l.624.224c.539.2 1.325.474 2.302.79 1.954.638 4.696 1.4 7.784 1.962 3.087.557 5.921.806 7.975.894 1.026.046 1.859.066 2.434.067l.662.008c.151.004.232.008.232.013M86.671 55.535c.01.037-4.709 1.196-10.535 2.588-5.829 1.392-10.56 2.49-10.568 2.454-.009-.038 4.707-1.196 10.536-2.588 5.827-1.392 10.558-2.49 10.567-2.454M86.372 45.878c0 .005-.052.014-.151.028l-.437.054-1.601.194c-1.352.174-3.213.457-5.248.878-2.035.424-3.856.905-5.164 1.284l-1.547.459-.421.125c-.097.027-.148.039-.15.034-.001-.004.047-.025.141-.06l.413-.15c.36-.128.885-.3 1.536-.501 1.304-.403 3.124-.9 5.164-1.325 2.04-.422 3.908-.691 5.264-.84.679-.075 1.228-.126 1.609-.151l.439-.029c.1-.004.152-.004.153 0M93.4 39.95c-.001.004-.068-.01-.196-.044l-.553-.15c-.48-.135-1.176-.321-2.039-.538-1.726-.435-4.131-.96-6.819-1.355-2.689-.392-5.144-.58-6.923-.657-.889-.04-1.609-.061-2.107-.069l-.574-.015c-.131-.005-.2-.01-.2-.014 0-.005.069-.01.2-.013l.574-.011c.499-.01 1.22-.001 2.111.026 1.782.053 4.244.225 6.939.618 2.693.396 5.1.936 6.823 1.396.861.23 1.555.43 2.03.581l.547.175c.124.041.19.065.187.07M69.756 49.105c-.019.017-.26-.25-.714-.606-.451-.356-1.135-.78-1.963-1.072-.83-.29-1.628-.383-2.204-.387-.576-.004-.932.054-.935.029-.002-.01.086-.03.246-.06.16-.031.396-.055.689-.065.583-.022 1.4.058 2.25.354.845.297 1.535.745 1.978 1.126.222.19.391.356.496.48.108.124.164.194.157.2M72.642 41.392c-.023.012-.17-.304-.486-.762-.313-.458-.818-1.045-1.496-1.556-.68-.507-1.385-.827-1.913-1-.528-.175-.871-.228-.868-.252.002-.01.089-.003.245.018.157.018.38.065.652.142.543.15 1.272.464 1.966.983.692.521 1.198 1.133 1.495 1.611.15.24.258.442.32.587.062.145.093.225.085.23" transform="translate(215.718 113.466) translate(66.414 .167)"/>
                <path fill="#FAFAFA" d="M71.879 32.32c.036.012-1.455 4.754-3.329 10.592-1.875 5.84-3.424 10.563-3.46 10.55-.035-.01 1.455-4.752 3.33-10.592 1.874-5.837 3.423-10.562 3.459-10.55M53.735 55.216c-.01.001-.027-.076-.052-.219-.027-.141-.043-.352-.041-.61.001-.518.125-1.241.472-1.958.35-.715.842-1.26 1.249-1.58.202-.161.377-.278.505-.345.127-.068.2-.102.204-.094.013.023-.265.178-.647.513-.382.333-.847.87-1.188 1.566-.337.697-.473 1.395-.498 1.901-.029.507.022.823-.004.826M48.223 50.55c-.01.001-.032-.082-.064-.236-.037-.152-.06-.38-.064-.66-.008-.561.139-1.35.555-2.108.42-.756 1.011-1.3 1.491-1.59.239-.148.445-.249.593-.298.148-.054.23-.08.233-.07.01.026-.318.14-.773.448-.455.306-1.016.842-1.424 1.576-.404.736-.56 1.496-.578 2.044-.02.55.059.889.031.893" transform="translate(215.718 113.466) translate(66.414 .167)"/>
                <path fill="#FAFAFA" d="M60.362 56.31c-.003.004-.06-.027-.165-.092l-.456-.285-1.666-1.073c-1.399-.916-3.34-2.166-5.458-3.593-1.052-.726-2.014-1.49-2.77-2.308-.76-.814-1.3-1.675-1.63-2.45-.331-.775-.455-1.454-.493-1.921-.034-.47.003-.728.003-.728.015 0 0 .26.05.723.054.461.19 1.127.529 1.888.336.759.878 1.603 1.634 2.401.751.805 1.708 1.559 2.754 2.282l5.435 3.625 1.64 1.109c.165.113.31.214.443.307.101.072.152.111.15.115M70.785 77.365c0 .006-.048.011-.139.017-.127.006-.258.014-.4.02-.346.016-.847.03-1.467.04-1.24.018-2.955.008-4.846-.071-1.892-.08-3.602-.213-4.836-.336-.617-.061-1.116-.117-1.46-.16l-.395-.055c-.091-.014-.138-.023-.138-.028 0-.005.05-.005.14 0l.399.029 1.463.118c1.235.098 2.943.215 4.832.295 1.889.079 3.601.105 4.84.11l1.468.006.4.004c.09.003.139.007.139.011M88.444 77.566c0 .005-.054.018-.16.038l-.461.08c-.403.069-.986.154-1.709.247-1.445.187-3.452.38-5.675.462-2.225.08-4.24.034-5.695-.048-.728-.04-1.316-.083-1.721-.122l-.467-.046c-.107-.013-.163-.021-.163-.026.001-.005.058-.005.165-.002l.468.021 1.722.078c1.455.056 3.466.088 5.686.008 2.218-.082 4.222-.26 5.668-.421l1.713-.203c.168-.02.321-.039.465-.055.107-.012.163-.015.164-.01M78.805 88.936c0 .006-.044.015-.13.03-.122.016-.247.036-.381.055-.33.046-.811.099-1.406.149-1.19.102-2.84.169-4.662.092-1.822-.08-3.462-.288-4.638-.493-.588-.1-1.062-.194-1.387-.27l-.374-.087c-.086-.022-.13-.036-.129-.04 0-.004.047 0 .134.013l.379.062c.328.06.803.138 1.393.227 1.177.179 2.812.372 4.628.451 1.815.076 3.461.026 4.65-.051.594-.038 1.074-.076 1.406-.106l.383-.03c.088-.005.134-.006.134-.002M88.412 87.99c.003.037-1.887.203-4.219.369-2.334.166-4.227.271-4.23.233-.002-.038 1.887-.203 4.22-.37 2.332-.166 4.226-.27 4.229-.233M76.027 96.325c-.001.01-.125.007-.35-.008-.224-.013-.548-.045-.946-.097-.798-.103-1.894-.31-3.07-.661-1.178-.353-2.207-.781-2.93-1.132-.362-.175-.651-.325-.846-.438-.196-.11-.3-.176-.297-.184.005-.009.12.04.322.137.276.128.56.26.861.397.73.328 1.76.738 2.928 1.088 1.17.349 2.256.57 3.045.696.327.05.638.096.939.14.222.031.344.053.344.062" transform="translate(215.718 113.466) translate(66.414 .167)"/>
                <path fill="#FAFAFA" d="M83.457 82.813s-.204-.721-.525-2.037c-.324-1.315-.769-3.223-1.267-5.594-1-4.739-2.206-11.318-3.395-18.612-.263-1.83-.427-3.637-.379-5.385.04-1.748.332-3.424.785-4.962.921-3.084 2.42-5.606 3.809-7.581 1.39-1.988 2.692-3.461 3.587-4.475.902-1.01 1.432-1.54 1.432-1.54s-.12.144-.357.41c-.257.29-.603.677-1.035 1.165-.882 1.024-2.172 2.505-3.547 4.495-1.377 1.977-2.86 4.494-3.769 7.561-.446 1.53-.732 3.194-.77 4.93-.046 1.738.118 3.537.379 5.363 1.189 7.286 2.381 13.871 3.355 18.612.486 2.372.917 4.282 1.224 5.6l.355 1.519c.082.347.118.53.118.53M83.448 91.355c-.007.006-.09-.075-.235-.23-.147-.15-.34-.389-.56-.697-.441-.615-.944-1.552-1.243-2.673-.295-1.123-.324-2.185-.245-2.937.038-.378.088-.68.141-.885.05-.205.081-.318.091-.315.026.006-.085.46-.135 1.207-.053.746-.01 1.79.281 2.895.295 1.103.774 2.032 1.189 2.653.415.624.736.964.716.982M76.873 96.895c-.014.008-.164-.238-.346-.666-.183-.427-.386-1.043-.505-1.744-.117-.702-.127-1.35-.095-1.813.033-.464.095-.747.11-.744.021.003-.006.288-.013.748-.008.46.018 1.095.134 1.786.117.69.3 1.3.459 1.732.157.432.276.691.256.701M70.017 91.802c-.008.005-.068-.096-.168-.28-.103-.183-.232-.459-.372-.807-.284-.697-.573-1.707-.674-2.855-.096-1.148.017-2.193.177-2.927.079-.368.16-.662.23-.86.067-.199.109-.307.117-.304.025.008-.119.449-.252 1.182-.134.733-.23 1.764-.135 2.897.099 1.133.37 2.133.627 2.832.256.7.473 1.11.45 1.122M70.104 98.204c-.009 0-.029-.087-.055-.249-.028-.16-.061-.394-.095-.683-.068-.579-.134-1.383-.158-2.272-.022-.89.001-1.696.04-2.278.019-.29.038-.526.058-.688.018-.162.033-.251.043-.25.02 0 .008.36-.005.942-.013.581-.022 1.383.001 2.27.023.886.075 1.687.118 2.266.043.58.073.94.053.942M51.871 55.532c.032-.02 4.037 6.138 8.944 13.756 4.908 7.619 8.86 13.81 8.828 13.831-.031.02-4.035-6.137-8.944-13.757-4.907-7.617-8.86-13.81-8.828-13.83M67.499 57.754s.034.09.088.262l.228.76c.193.661.483 1.615.856 2.787.744 2.347 1.859 5.562 3.285 9.038 1.43 3.474 2.9 6.544 4.021 8.736.56 1.096 1.023 1.979 1.352 2.583l.372.7c.083.162.121.25.121.25s-.054-.079-.146-.236l-.394-.687c-.343-.598-.82-1.474-1.39-2.566-1.146-2.182-2.63-5.25-4.063-8.728-1.427-3.48-2.53-6.705-3.25-9.061-.362-1.178-.639-2.136-.815-2.801-.08-.3-.146-.553-.204-.767-.044-.176-.061-.27-.061-.27M55.553 76.077s-.102-.091-.286-.273l-.8-.803c-.353-.346-.773-.777-1.234-1.305-.463-.524-1.014-1.102-1.559-1.796-.562-.678-1.173-1.426-1.777-2.268-.635-.82-1.241-1.747-1.894-2.713-1.258-1.961-2.533-4.189-3.684-6.621-1.131-2.443-2.026-4.85-2.727-7.072-.323-1.12-.647-2.179-.87-3.192-.26-1.004-.443-1.952-.605-2.819-.184-.862-.274-1.655-.38-2.346-.11-.692-.172-1.291-.213-1.782l-.104-1.13c-.021-.259-.026-.395-.026-.395s.023.135.054.392l.129 1.127c.05.49.118 1.087.236 1.776.112.69.21 1.481.4 2.34.166.865.355 1.81.619 2.81.227 1.01.555 2.065.88 3.182.706 2.215 1.603 4.614 2.731 7.05 1.149 2.427 2.417 4.65 3.666 6.612.649.965 1.25 1.892 1.88 2.714.599.843 1.204 1.593 1.76 2.275.539.695 1.084 1.276 1.542 1.805.454.531.868.967 1.213 1.319l.783.82c.177.19.266.293.266.293" transform="translate(215.718 113.466) translate(66.414 .167)"/>
                <path fill="#FAFAFA" d="M48.159 51.283c-.002.01-.166-.019-.458-.077l-1.238-.25c-1.046-.209-2.494-.481-4.101-.732-1.608-.249-3.07-.43-4.13-.548-.461-.05-.877-.097-1.255-.139-.297-.033-.46-.055-.46-.064 0-.01.166-.005.464.012.298.015.729.047 1.26.094 1.065.094 2.531.26 4.142.51 1.61.251 3.058.539 4.1.772.52.117.941.217 1.23.293.289.075.447.12.446.13M46.757 67.042s-.034.112-.11.32l-.338.911c-.29.792-.677 1.95-1.102 3.396-.873 2.89-1.737 6.968-2.803 11.448-1.065 4.483-2.402 8.461-3.76 11.166-.667 1.355-1.29 2.411-1.755 3.115-.465.706-.75 1.076-.75 1.076s.058-.102.179-.289c.117-.189.31-.453.526-.815.45-.712 1.06-1.772 1.712-3.13 1.332-2.707 2.65-6.677 3.715-11.155 1.065-4.476 1.945-8.557 2.843-11.444.869-2.894 1.643-4.6 1.643-4.6M40.934 58.222c.036.012-1.402 4.496-3.212 10.015-1.81 5.52-3.306 9.985-3.342 9.973-.036-.013 1.402-4.496 3.212-10.016 1.81-5.52 3.305-9.984 3.342-9.972" transform="translate(215.718 113.466) translate(66.414 .167)"/>
                <path fill="#FAFAFA" d="M46.93 76.913c-.005.002-.04-.058-.106-.176l-.278-.515c-.233-.451-.596-1.093-1.069-1.87-.94-1.553-2.39-3.616-4.278-5.648-1.895-2.029-3.85-3.622-5.333-4.67-.74-.526-1.354-.934-1.787-1.2-.186-.116-.348-.22-.496-.313-.112-.073-.17-.114-.167-.117.002-.004.064.028.182.093l.508.293c.443.25 1.066.647 1.816 1.164 1.502 1.031 3.475 2.62 5.377 4.656 1.895 2.041 3.34 4.122 4.261 5.693.463.785.814 1.435 1.033 1.894l.255.528c.058.121.086.186.081.188M42.588 89.78c-.004 0-.012-.06-.02-.177l-.032-.507c-.008-.22-.024-.49-.068-.8-.041-.31-.066-.667-.15-1.052-.125-.779-.359-1.69-.693-2.675-.353-.978-.819-2.027-1.424-3.066-.617-1.031-1.311-1.946-1.998-2.728-.701-.768-1.386-1.414-2.006-1.899-.298-.26-.598-.453-.85-.639-.251-.188-.479-.333-.668-.446l-.429-.272c-.098-.064-.148-.1-.145-.104 0 0 .893.417 2.151 1.386.632.478 1.33 1.12 2.041 1.89.697.783 1.4 1.703 2.022 2.743.61 1.046 1.076 2.106 1.425 3.094.33.995.556 1.915.67 2.7.241 1.569.174 2.553.174 2.553M33.907 99.821c-.004-.002.008-.044.037-.123l.13-.339c.118-.292.28-.718.471-1.248.384-1.057.856-2.542 1.232-4.217.373-1.677.58-3.221.682-4.342.052-.56.087-1.015.105-1.33l.027-.362c.007-.082.014-.126.018-.126.005 0 .008.044.01.128l-.002.363c-.002.315-.021.772-.062 1.335-.078 1.126-.27 2.68-.645 4.363-.377 1.684-.866 3.17-1.274 4.222-.204.527-.38.95-.513 1.235l-.154.33c-.037.074-.058.112-.062.111M25.426 66.523s.092.477.21 1.346c.122.869.256 2.132.372 3.697.26 3.126.272 7.467.764 12.222.264 2.375.68 4.62 1.247 6.61.567 1.99 1.268 3.727 2.006 5.106.733 1.382 1.456 2.429 2.004 3.11.26.354.499.597.642.778.148.177.22.275.22.275s-.345-.342-.904-1.019c-.561-.674-1.3-1.717-2.047-3.098-.752-1.38-1.467-3.121-2.043-5.118-.575-1.996-.997-4.248-1.262-6.63-.493-4.766-.489-9.104-.724-12.23-.103-1.564-.222-2.826-.327-3.696l-.123-1.002c-.028-.229-.035-.35-.035-.35M24.554 56.986c.009-.002.045.122.104.35.06.226.133.557.215.968.163.822.338 1.97.426 3.245.087 1.278.072 2.437.022 3.275-.025.418-.054.755-.081.989-.027.232-.046.36-.056.36-.01-.001-.008-.132.002-.365l.038-.989c.025-.834.025-1.989-.062-3.26-.087-1.27-.246-2.414-.385-3.237l-.171-.976c-.042-.23-.061-.358-.052-.36" transform="translate(215.718 113.466) translate(66.414 .167)"/>
                <path fill="#FAFAFA" d="M32.676 71.196s-.686.516-1.958 1.052c-.632.273-1.419.518-2.31.711-.893.174-1.894.285-2.946.272-1.053-.026-2.049-.176-2.936-.384-.883-.226-1.66-.5-2.281-.797-1.25-.584-1.917-1.125-1.917-1.125.003-.004.05.02.138.07l.38.226c.162.102.363.222.608.34.243.12.511.277.83.4.623.284 1.395.546 2.272.763.88.2 1.866.344 2.908.37 1.043.013 2.033-.093 2.92-.259.884-.184 1.666-.418 2.298-.677.324-.111.598-.257.846-.369.249-.108.454-.22.62-.316l.388-.21c.09-.048.138-.07.14-.067M34.746 79.576s-.127.201-.405.526c-.276.325-.723.761-1.343 1.211-1.23.91-3.254 1.745-5.59 1.933-2.336.186-4.443-.155-5.938-.42-.75-.136-1.354-.262-1.771-.351l-.479-.107c-.109-.027-.165-.042-.165-.047 0-.005.06.002.17.02l.485.081 1.776.31c1.498.239 3.597.562 5.91.378 2.313-.187 4.315-.997 5.546-1.876.621-.435 1.073-.855 1.36-1.168.288-.311.434-.498.444-.49M35.506 87.634s-.057.222-.221.605c-.161.382-.455.915-.916 1.5-.908 1.174-2.63 2.466-4.829 3.085-2.2.612-4.288.559-5.759.459-.739-.053-1.334-.121-1.745-.175l-.473-.067c-.107-.017-.163-.029-.163-.033.001-.005.058-.003.167.006l.474.04c.413.039 1.01.092 1.747.132 1.468.076 3.542.112 5.715-.495 2.17-.61 3.875-1.869 4.79-3.014.466-.57.769-1.088.944-1.46.177-.373.256-.589.269-.583M117.766 91.082c.014.035-1.76.778-3.962 1.658-2.204.88-4 1.566-4.015 1.531-.013-.035 1.76-.778 3.963-1.658 2.202-.88 4-1.567 4.014-1.531M114.183 81.496c.01.014-.154.163-.452.36-.298.198-.734.436-1.248.624-.514.187-1.001.286-1.356.326-.355.041-.577.033-.578.016-.004-.044.878-.097 1.887-.47 1.013-.365 1.723-.892 1.747-.856M112.586 71.744c.004.038-.45.109-1.012.159-.562.049-1.02.06-1.024.021-.003-.037.45-.108 1.012-.158s1.02-.06 1.024-.022M110.733 65.557c-.022.03-.309-.131-.64-.362-.332-.23-.583-.443-.561-.474.02-.03.308.131.639.362.331.23.583.442.562.474" transform="translate(215.718 113.466) translate(66.414 .167)"/>
                <path fill="#FAFAFA" d="M108.74 59.361s.04.128.1.374l.254 1.08c.214.938.499 2.303.799 3.999.598 3.39 1.203 8.124 1.342 13.38.072 2.623.14 5.134.605 7.36.223 1.113.547 2.145.946 3.07.403.926.86 1.753 1.23 2.53.776 1.544 1.09 2.95 1.041 3.919-.014.484-.093.855-.165 1.098-.07.244-.129.365-.129.365-.008-.003.042-.128.103-.373.062-.244.132-.612.138-1.091.03-.961-.291-2.344-1.075-3.875-.374-.773-.837-1.596-1.248-2.526-.405-.932-.737-1.972-.964-3.091-.476-2.24-.547-4.76-.62-7.382-.138-5.249-.726-9.977-1.3-13.368-.287-1.696-.557-3.062-.756-4.004l-.229-1.085c-.051-.248-.071-.38-.071-.38" transform="translate(215.718 113.466) translate(66.414 .167)"/>
                <path fill="#000" d="M32.465 70.023c1.633 2.334 3.225 4.715 4.424 7.3 1.198 2.584 1.996 5.396 1.962 8.245-.029 2.284-.735 4.763-2.632 6.036-.17-7.25-1.443-14.472-3.762-21.344M47.751 49.54c0 2.25 1.729 4.077 3.342 5.646 3.17 3.083 6.594 6.306 10.931 7.173l.187-5.462c1.667 1.465 3.12 3.172 4.296 5.053 2.173-2.842 3.52-6.244 4.356-9.722.836-3.478 1.186-7.051 1.532-10.611l-5.119 16.3c-.268-1.355-1.006-2.612-2.057-3.507-.638-.542-1.43-.964-2.266-.95-1.27.022-2.342 1.061-2.804 2.244-.462 1.183-.44 2.492-.413 3.762-4.422-2.608-8.447-5.889-11.89-9.696M69.923 98.112c2.126-1.48 4.511-2.585 7.014-3.25 1.87-.497 3.856-.77 5.48-1.821 1.52-.982 2.559-2.537 3.553-4.049.91-1.384 1.838-2.805 2.212-4.42.295-1.27.23-2.598.101-3.898-.342-3.492-1.118-6.93-1.505-10.416-.387-3.488-.368-7.103.834-10.4.931 10.572 2.184 21.169 3.115 31.74-6.769 2.145-13.86 4.268-20.627 6.414" transform="translate(215.718 113.466) translate(66.414 .167)"/>
                <path fill="#FFBF9D" d="M55.472 12.817c.091-.123 4.066-4.246 6.695.713 2.628 4.958-2.892 6.574-2.976 6.436-.084-.138-3.719-7.15-3.719-7.15" transform="translate(215.718 113.466) translate(66.414 .167)"/>
                <path fill="#FF9A6C" d="M59.71 17.285c.014-.028.118.014.3.004.177-.01.446-.095.652-.329.422-.47.422-1.535-.027-2.442-.227-.458-.549-.837-.898-1.109-.343-.282-.712-.41-1-.317-.296.078-.398.334-.385.506.007.174.091.256.07.279-.008.02-.15-.027-.22-.253-.031-.109-.035-.257.03-.414.068-.16.217-.302.411-.38.397-.176.927-.007 1.31.291.405.288.778.71 1.032 1.223.498 1.016.482 2.222-.124 2.81-.302.275-.648.324-.86.287-.219-.041-.304-.138-.291-.156" transform="translate(215.718 113.466) translate(66.414 .167)"/>
                <path fill="#080D1D" d="M33.113 3.005c-2.43 1.48-4.905 2.989-6.98 6.432-1.308 2.17-1.538 4.488-1.368 7.017.13 1.936.85 4.137 1.945 5.738 1.096 1.6 1.807 2.754 3.394 3.87" transform="translate(215.718 113.466) translate(66.414 .167)"/>
                <path fill="#FFBF9D" d="M69.015 34.863L54.44 8.827C50.459 1.714 41.553-.958 34.314 2.788c-7.5 3.88-10.369 13.155-6.357 20.586 3.338 6.183 7.012 12.833 9.066 16.057 4.41 6.918 12.057 3.677 12.057 3.677s1.11 2.172 2.508 4.854l10.428 5.774 6.999-18.873z" transform="translate(215.718 113.466) translate(66.414 .167)"/>
                <path fill="#FF9A6C" d="M49.08 43.108s4.442-2.4 7.3-8.246c0 0 .987 6.389-6.36 10.076l-.94-1.83z" transform="translate(215.718 113.466) translate(66.414 .167)"/>
                <path fill="#080D1D" d="M33.598 26.594c.307.537 1.016.72 1.584.41.565-.311.776-.998.469-1.535-.308-.537-1.016-.721-1.583-.41-.566.31-.777.998-.47 1.535M31.182 24.812c.203.053.611-.973 1.685-1.635 1.062-.677 2.19-.613 2.225-.817.021-.093-.25-.249-.747-.286-.491-.04-1.216.076-1.881.493-.666.417-1.075 1.012-1.241 1.463-.173.457-.139.761-.041.782M44.065 20.01c.307.538 1.016.72 1.583.41.566-.31.777-.997.47-1.535-.308-.537-1.017-.72-1.583-.41-.567.311-.777.998-.47 1.536M41.837 18.479c.204.053.613-.974 1.685-1.635 1.063-.676 2.191-.612 2.225-.816.021-.093-.248-.25-.747-.287-.49-.04-1.215.076-1.88.493-.666.418-1.075 1.012-1.242 1.463-.171.457-.138.761-.041.782M42.877 28.836c-.033-.063-.77.234-1.935.766-.29.141-.584.248-.746.09-.187-.158-.255-.524-.32-.925l-.483-2.585c-.716-3.663-1.416-6.606-1.563-6.577-.148.03.314 3.025 1.03 6.687l.525 2.577c.09.375.13.838.524 1.161.2.16.493.183.697.121.21-.054.365-.148.505-.223 1.123-.615 1.8-1.029 1.766-1.092M45.835 32.61c.19-.08-.413-1.31.209-2.698.618-1.39 1.995-1.898 1.92-2.074-.02-.086-.41-.095-.969.162-.55.249-1.256.812-1.637 1.662-.378.85-.302 1.7-.096 2.223.206.537.493.773.573.725M44.352 12.107c-.283-.23-1.28.556-2.64 1.162-1.349.635-2.595.876-2.605 1.24 0 .172.344.341.929.379.58.038 1.397-.083 2.209-.454.812-.373 1.437-.911 1.787-1.376.353-.467.45-.838.32-.95M31.856 18.83c-.362-.022-.71.827-1.39 1.622-.65.818-1.416 1.322-1.326 1.673.051.163.358.247.817.136.454-.108 1.04-.442 1.497-.995.457-.555.672-1.193.69-1.66.024-.471-.118-.757-.288-.775" transform="translate(215.718 113.466) translate(66.414 .167)"/>
                <path fill="#080D1D" d="M55.87 10.996s.752 1.598 1.116 2.379c.133.285 1.727 3.507 1.096 4.094-.542.506-2.119.692-3.416-.2-1.297-.894-4.135-3.204-4.839-4.612-.96-1.922-2.005-3.83-3.465-5.404-1.46-1.575-3.387-2.805-5.52-3.054-2.133-.25-4.456.623-5.594 2.444-.702 1.124-.912 2.484-1.473 3.685-.504 1.08-1.333 2.048-2.43 2.512-1.099.464-2.478.343-3.35-.47-.951-.887-1.114-2.394-.69-3.623.425-1.23 1.332-2.228 2.29-3.108 2.656-2.441 5.931-4.273 9.482-4.907C42.628.098 46.481.69 49.43 2.767c3.41 2.403 4.646 4.44 6.44 8.229" transform="translate(215.718 113.466) translate(66.414 .167)"/>
                <path fill="#080D1D" d="M27.695 12.036c-.29-.321-.294-.598-.59-.622-.337-.027-.507.687-.56.963-.017.088-.317-.033-.406-.037-.072-.003-.376-.324-.407-.39-.123-.27.233-.582.315-.869.082-.286.243-.545.432-.776.165-.202.4-.4.655-.349.195.04.331.215.43.388.098.172.178.357.205.552.026.196-.005.404-.117.567" transform="translate(215.718 113.466) translate(66.414 .167)"/>
                <path fill="#FF9A6C" d="M40.87 42.973c-.005.011-.08-.017-.218-.082-.135-.07-.352-.148-.591-.315-.507-.29-1.168-.827-1.885-1.582-1.453-1.505-2.96-3.975-4.452-6.744-1.527-2.754-2.9-5.256-3.875-7.076l-1.141-2.163c-.263-.514-.398-.804-.377-.816.02-.011.195.256.494.75l1.235 2.112c1.03 1.79 2.435 4.271 3.964 7.028 1.493 2.77 2.948 5.225 4.33 6.746 1.35 1.56 2.557 2.081 2.517 2.142" transform="translate(215.718 113.466) translate(66.414 .167)"/>
            </g>
        </g>
    </g>
</svg>
