<svg xmlns="http://www.w3.org/2000/svg" xmlns:xlink="http://www.w3.org/1999/xlink" width="680" height="411" viewBox="0 0 680 411">
    <defs>
        <path id="31c2fhcbfa" d="M0 0.09L239.489 0.09 239.489 0.531 0 0.531z"/>
    </defs>
    <g fill="none" fill-rule="evenodd">
        <path fill="#151826" fill-rule="nonzero" d="M162.227 190.54c35.96 0 58.912-24.227 58.912-56.106 0-30.859-23.208-52.026-58.912-52.026h-40.04l.256-56.871h91.045V14.06H110.456l-.255 79.824 50.75-.255c29.584 0 47.691 16.577 47.691 41.06 0 25.248-17.852 44.63-46.415 44.63-24.993 0-44.12-14.027-49.476-37.744H100c5.61 30.348 30.093 48.965 62.227 48.965zm162.538 0c46.416 0 73.449-36.214 73.449-89.77 0-53.81-27.033-89.77-73.449-89.77-46.415 0-73.703 35.96-73.703 89.77 0 53.556 27.288 89.77 73.703 89.77zm0-11.731c-38.764 0-60.697-31.369-60.697-78.039s21.933-78.039 60.697-78.039c38.51 0 60.442 31.369 60.442 78.04 0 46.67-21.932 78.038-60.442 78.038zm181.156 11.731c46.415 0 73.448-36.214 73.448-89.77 0-53.81-27.033-89.77-73.448-89.77-46.415 0-73.704 35.96-73.704 89.77 0 53.556 27.289 89.77 73.704 89.77zm0-11.731c-38.765 0-60.697-31.369-60.697-78.039s21.932-78.039 60.697-78.039c38.51 0 60.442 31.369 60.442 78.04 0 46.67-21.933 78.038-60.442 78.038z" opacity=".2"/>
        <text fill="#151826" font-family="Campton-Bold, Campton" font-size="54.598" font-weight="bold" letter-spacing="-1.606">
            <tspan x="1.084" y="395">INTERNAL SERVER ERROR</tspan>
        </text>
        <g>
            <g>
                <path fill="#ECECEC" d="M3.334.368S-2.481 2 2.617 14.528c5.098 12.528 8.833 18.834 8.833 18.834s.848 2.88-1.535 3.112c-2.383.232-7.477-1.033-8.769 1.748-1.338 2.885.584 5.878 4.758 8.717 4.174 2.839 13.091 9.393 13.895 9.989.79.585 1.514 1.953-.083 2.372-1.599.418-13.321.637-12.884 6.194.437 5.556 13.365 11.553 14.765 12.236 1.401.682 1.695 1.326 1.509 2.11-.187.786-4.133.488-7.465.687-3.331.2-7.16 1.014-6.639 4.198.521 3.185 7.864 10.41 26.895 13.931l8.925 1.055 5.517-7.145c10.875-16.01 10.9-26.31 9.002-28.92-1.9-2.609-5.17-.46-7.654 1.77-2.483 2.229-5.046 5.245-5.735 4.826-.69-.42-.94-1.081-.441-2.558.499-1.475 5.323-14.885 1.678-19.102-3.644-4.217-12.04 3.965-13.462 4.807-1.421.842-1.885-.635-1.745-1.608.141-.99 1.75-11.94 2.665-16.903.915-4.964.138-8.437-2.854-9.512-2.885-1.038-5.568 3.475-7.408 5.006-1.84 1.532-3.292-1.096-3.292-1.096s-1.858-7.09-7.184-19.522C8.585-2.68 3.22.409 3.22.409" transform="translate(201 107) translate(50.442 117.468)"/>
                <path fill="#E1E1E1" d="M43.73 98.169c-3.878-9.146-9.127-21.826-14.878-35.853-5.749-14.022-10.964-26.713-14.79-35.88l-4.54-10.85-1.232-2.953-.313-.77c-.068-.175-.097-.267-.097-.267s.048.084.126.254l.342.759 1.284 2.93c1.112 2.545 2.694 6.24 4.63 10.813 3.878 9.146 9.126 21.826 14.875 35.847 5.751 14.027 10.967 26.72 14.793 35.886" transform="translate(201 107) translate(50.442 117.468)"/>
                <path fill="#E1E1E1" d="M8.203 40.28c.009-.02.226.06.612.222.386.16.937.408 1.615.72 1.354.63 3.202 1.55 5.22 2.602l5.159 2.717 1.565.816c.37.191.571.307.563.326-.01.02-.227-.059-.614-.218-.386-.16-.937-.409-1.612-.73-1.349-.643-3.183-1.585-5.202-2.638l-5.175-2.678c-.616-.317-1.14-.587-1.57-.81-.37-.193-.57-.31-.561-.33M23.597 47.163c-.077-.035 1.647-3.929 3.85-8.695 2.205-4.767 4.054-8.601 4.13-8.566.078.036-1.646 3.928-3.85 8.696-2.203 4.765-4.052 8.6-4.13 8.565M31.456 69.098c-.015-.014.13-.2.407-.525l1.181-1.363c.996-1.151 2.367-2.745 3.815-4.559 1.454-1.81 2.713-3.493 3.617-4.718l1.073-1.45c.256-.34.405-.524.423-.512.017.012-.099.218-.325.58s-.563.878-.994 1.507c-.86 1.26-2.095 2.97-3.553 4.786-1.454 1.819-2.855 3.396-3.894 4.512-.522.556-.95 1-1.255 1.299-.304.3-.48.458-.495.443M16.162 65.936c.004-.02.221.002.612.058.39.057.952.148 1.645.268 1.387.24 3.3.592 5.409 1 2.11.409 4.015.795 5.392 1.09.688.147 1.244.272 1.627.364.383.092.593.154.589.175-.004.021-.222 0-.612-.058-.39-.056-.952-.148-1.645-.268-1.388-.24-3.3-.592-5.41-1-2.108-.408-4.014-.794-5.39-1.089-.69-.147-1.245-.271-1.629-.364-.383-.093-.592-.154-.588-.176M20.64 86.183c.004-.02.282.01.781.082l2.11.338c1.78.298 4.235.731 6.942 1.228 2.708.497 5.157.964 6.927 1.317l2.092.434c.493.109.764.18.76.2-.004.02-.282-.01-.782-.082l-2.11-.338c-1.78-.298-4.234-.731-6.942-1.228s-5.156-.964-6.926-1.317l-2.092-.434c-.494-.109-.764-.18-.76-.2M39.807 89.564c-.016-.014.163-.255.5-.677l1.435-1.782c1.212-1.504 2.879-3.587 4.655-5.938 1.78-2.348 3.337-4.514 4.455-6.09l1.326-1.865c.315-.439.498-.676.516-.664.017.011-.132.271-.417.73-.285.46-.709 1.118-1.246 1.922-1.073 1.61-2.605 3.8-4.388 6.153-1.78 2.355-3.478 4.42-4.733 5.891-.63.734-1.146 1.322-1.513 1.72-.365.4-.574.614-.59.6" transform="translate(201 107) translate(50.442 117.468)"/>
                <path fill="#F5F5F5" d="M114.949 98.117C102.275 89.984 98.848 74.099 98.77 59.7c-.013-2.403-.376-4.923.682-7.074 1.06-2.15 3.667-3.694 5.856-2.768 1.815.77 2.673 2.812 3.738 4.488 1.416 2.23 3.467 4.04 5.84 5.154 1.56.734 3.47 1.144 4.946.253 2.025-1.224 2.157-4.094 2.048-6.48l-.608-13.344c-.11-2.386-.212-4.823.44-7.118.655-2.295 2.212-4.464 4.458-5.19 2.246-.725 5.106.474 5.677 2.792.238.964.08 1.982.185 2.97.105.988.61 2.066 1.561 2.305.965.242 1.893-.472 2.58-1.199 2.369-2.507 3.919-5.677 5.359-8.827 1.441-3.149 2.833-6.37 4.966-9.086 2.132-2.717 5.143-4.922 8.553-5.25 3.412-.328 7.137 1.639 8.133 4.961.998 3.331-.83 6.823-2.86 9.63-3.01 4.167-6.62 7.889-10.678 11.013-.732.563-1.525 1.173-1.778 2.068-.455 1.611 1.115 3.133 2.707 3.595 1.802.522 3.725.261 5.595.407 1.87.146 3.919.888 4.692 2.62 1.074 2.4-.866 5.038-2.808 6.792-3.889 3.513-8.375 6.343-13.202 8.33-1.73.71-3.557 1.347-4.925 2.637-1.367 1.29-2.137 3.468-1.215 5.116.922 1.65 3.139 2.102 4.965 1.687 1.825-.413 3.432-1.476 5.16-2.206 3.23-1.368 7.476-1.309 9.689 1.444 1.454 1.81 1.678 4.4 1.067 6.649-.61 2.249-1.953 4.218-3.387 6.041-5.015 6.376-11.55 11.607-19.057 14.545-7.505 2.938-14.53 3.929-22.2 1.46" transform="translate(201 107) translate(50.442 117.468)"/>
                <path fill="#E1E1E1" d="M118.306 88.957c1.83-7.34 4.505-15.218 7.584-23.363l2.303-6.022c.761-1.974 1.515-3.932 2.37-5.803 1.696-3.747 3.612-7.221 5.534-10.462 1.92-3.243 3.861-6.25 5.696-9.049 1.843-2.796 3.609-5.37 5.319-7.646 3.406-4.569 6.584-7.921 8.86-10.134 1.135-1.11 2.044-1.943 2.668-2.499l.713-.628c.163-.138.248-.207.253-.202.006.006-.07.086-.222.236l-.684.66c-.604.577-1.493 1.43-2.61 2.556-2.235 2.248-5.366 5.621-8.73 10.2-1.69 2.282-3.437 4.86-5.262 7.66-1.821 2.806-3.748 5.816-5.655 9.057-1.907 3.238-3.808 6.704-5.488 10.433-.848 1.861-1.594 3.803-2.355 5.783-.756 1.979-1.522 3.987-2.3 6.02-3.076 8.137-5.755 15.993-7.603 23.304" transform="translate(201 107) translate(50.442 117.468)"/>
                <path fill="#E1E1E1" d="M130.688 53.748c-.03.006-.124-.354-.273-1.009-.151-.655-.339-1.61-.553-2.791-.431-2.364-.915-5.648-1.435-9.271-.52-3.625-1.048-6.893-1.514-9.243-.23-1.176-.425-2.126-.57-2.78-.139-.657-.202-1.023-.173-1.032.03-.008.149.345.34.99.194.642.437 1.585.705 2.756.546 2.343 1.126 5.617 1.646 9.244l1.307 9.284.415 2.81c.096.665.136 1.036.105 1.042" transform="translate(201 107) translate(50.442 117.468)"/>
                <path fill="#E1E1E1" d="M161.153 46.805c.002.03-.432.099-1.218.195-.785.101-1.921.24-3.32.459-2.798.414-6.645 1.121-10.854 2.087-4.21.974-7.981 2.017-10.687 2.85-1.357.408-2.446.767-3.2 1.011-.753.246-1.175.37-1.186.34-.01-.028.392-.206 1.13-.504.738-.294 1.814-.698 3.162-1.146 2.69-.913 6.462-2.008 10.683-2.985 4.222-.969 8.092-1.63 10.91-1.964 1.409-.18 2.554-.273 3.346-.32.793-.044 1.231-.054 1.234-.023M118.661 88.378c-.014.007-.09-.12-.226-.366-.153-.295-.34-.655-.568-1.09-.49-.948-1.162-2.339-1.97-4.068-1.62-3.458-3.705-8.305-5.934-13.684-2.232-5.381-4.27-10.24-5.814-13.726l-1.841-4.125c-.199-.45-.362-.82-.495-1.125-.11-.259-.16-.398-.146-.406.014-.006.091.12.226.367l.568 1.089c.49.949 1.162 2.34 1.97 4.069 1.62 3.457 3.705 8.303 5.936 13.685 2.23 5.38 4.268 10.238 5.812 13.725l1.842 4.124c.198.45.36.821.495 1.125.108.26.158.399.145.406" transform="translate(201 107) translate(50.442 117.468)"/>
                <path fill="#E1E1E1" d="M158.927 73.63c.004.014-.133.077-.398.183-.315.118-.701.266-1.17.443l-4.31 1.587c-3.641 1.34-8.647 3.25-14.178 5.368-5.53 2.12-10.56 3.985-14.229 5.25-1.834.633-3.323 1.131-4.36 1.454l-1.195.365c-.275.079-.422.113-.426.098-.005-.015.133-.077.398-.184l1.169-.442 4.31-1.588c3.641-1.34 8.648-3.25 14.179-5.369 5.53-2.118 10.558-3.983 14.227-5.249 1.835-.633 3.324-1.13 4.36-1.454.48-.145.874-.267 1.196-.364.275-.079.421-.112.427-.098" transform="translate(201 107) translate(50.442 117.468)"/>
            </g>
            <g transform="translate(201 107) translate(0 217.29)">
                <mask id="804f3zag0b" fill="#fff">
                    <use xlink:href="#31c2fhcbfa"/>
                </mask>
                <path fill="#080D1D" d="M239.489.356c0 .077-53.616.138-119.739.138C53.604.494 0 .433 0 .356 0 .28 53.604.217 119.75.217c66.123 0 119.739.062 119.739.14" mask="url(#804f3zag0b)"/>
            </g>
            <g>
                <path fill="#080D1D" d="M78.727 51.273c-.7 2.547-1.405 5.153-1.23 7.788.174 2.636 1.396 5.355 3.71 6.626 2.658 1.46 6.712 1.197 7.822 4.018.76 1.93-.474 4.33.604 6.102 1.528 2.509 5.666 1.085 8.097 2.735 1.882 1.278 2.116 3.941 1.908 6.206-.21 2.265-.637 4.715.5 6.685 1.314 2.276 4.333 3.166 5.58 5.48 1.535 2.845-.293 6.314-2.338 8.816-2.047 2.502-4.517 5.17-4.342 8.397l-38.117 1.169L58.54 54.63l20.188-3.358z" transform="translate(201 107) translate(69.558 .123)"/>
                <path fill="#375A64" d="M82.143 77.93c-.03.005-.072-.292-.279-.78-.21-.484-.632-1.142-1.349-1.762-.715-.62-1.699-1.202-2.862-1.682-1.158-.497-2.498-.94-3.767-1.724-.63-.39-1.201-.865-1.646-1.415-.448-.548-.772-1.16-.984-1.77-.418-1.229-.468-2.406-.43-3.366.042-.966.167-1.737.266-2.266.048-.264.094-.467.128-.605.034-.138.057-.209.066-.207.022.004-.022.298-.088.83-.065.53-.16 1.3-.176 2.253-.014.948.058 2.098.474 3.274.21.585.525 1.166.953 1.686.426.52.972.972 1.584 1.351 1.229.76 2.557 1.211 3.72 1.724 1.175.5 2.173 1.113 2.892 1.771.722.658 1.134 1.357 1.32 1.867.087.257.143.461.159.603.022.141.029.215.02.217" transform="translate(201 107) translate(69.558 .123)"/>
                <path fill="#080D1D" d="M23.627 193.773l-4.423 23.743h87.057s-2.983-14.049-15.378-29.607l-67.256 5.864z" transform="translate(201 107) translate(69.558 .123)"/>
                <path fill="#FF2D34" d="M22.373 171.042l-3.124-45.417 5.17-46.487 28.269-3.943 20.68 2.287 14.11 47.713 3.802 42.518s2.017 6.71 4.357 14.546c1.3 4.355-.47 9.065-4.352 11.427-3.36 2.044-8.384 3.634-15.649 2.876-16.75-1.747-35.746-4.803-44.917-3.275-9.17 1.528-10.48-.655-10.48-.655s-2.895-2.839-1.993-6.114c.901-3.275 4.127-15.476 4.127-15.476" transform="translate(201 107) translate(69.558 .123)"/>
                <path fill="#FFF" d="M90.352 167.444c.006.008-.076.076-.237.2l-.71.528-2.621 1.932c-2.206 1.64-5.213 3.96-8.505 6.562-3.292 2.602-6.271 4.963-8.454 6.638-1.091.838-1.979 1.509-2.6 1.962l-.719.52c-.166.115-.256.172-.261.165-.007-.008.072-.08.227-.21l.687-.56 2.545-2.031 8.403-6.702c3.294-2.601 6.323-4.9 8.562-6.501 1.117-.803 2.032-1.439 2.674-1.864l.74-.485c.171-.11.264-.162.27-.154" transform="translate(201 107) translate(69.558 .123)"/>
                <path fill="#1A2E35" d="M67.536 91.746c-.061.046-.715-.721-1.458-1.713-.744-.993-1.298-1.834-1.237-1.88.061-.046.714.721 1.458 1.714.744.992 1.298 1.833 1.237 1.879M70.938 84.747c-.071.048-.671-.914-1.771-1.723-1.09-.823-2.184-1.121-2.158-1.203.003-.068 1.178.12 2.323.981 1.152.85 1.67 1.923 1.606 1.945M44.183 90.848c.067.055-.678.875-1.094 2.136-.433 1.256-.339 2.359-.425 2.362-.064.023-.292-1.125.163-2.45.441-1.33 1.318-2.105 1.356-2.048M33.41 81.558c0 .08-1.225.106-2.71.325-1.488.211-2.668.534-2.693.457-.024-.068 1.139-.515 2.653-.73 1.513-.223 2.755-.123 2.75-.052" transform="translate(201 107) translate(69.558 .123)"/>
                <path fill="#000" d="M22.648 167.033c7.296-3.001 12.201-10.035 15.15-17.353 2.948-7.318 4.34-15.17 7.015-22.593.78-2.167 2.149-4.65 4.452-4.718 1.887-.057 3.346 1.583 4.428 3.13 5.116 7.311 8.354 15.735 12.288 23.744 3.935 8.008 8.83 15.905 16.215 20.913 1.365.924 2.871 1.762 4.516 1.856 1.646.093 3.445-.76 3.972-2.32.216-.639.206-1.328.194-2.002l-.22-12.017c-.079-4.327-.18-8.77-1.816-12.778-2.387-5.851-7.656-9.924-12.498-13.987-6.368-5.342-12.392-11.177-17.215-17.947-1.714-2.406-3.314-4.97-5.64-6.793-2.327-1.821-5.625-2.763-8.275-1.456-2.95 1.456-4.073 5.011-4.922 8.19-4.828 18.075-10.256 35.99-16.273 53.707" transform="translate(201 107) translate(69.558 .123)"/>
                <path fill="#FF2D34" d="M21.921 164.48c5.337-.457 9.431-6.355 10.892-11.509l11.724-41.36-17.902-12-7.138 23.785 4.923-44.258s-16.433 4.16-20.284 24.075C.87 120.102-.254 135.82.515 141.968c0 0 .118 24.337 21.406 22.512M52.468 115.083s8.14 20.605 16.178 32.552c7.685 11.424 20.673 22.935 29.012 21.572 8.34-1.363 12.694-22.62 12.694-30.56 0-7.94-10.2-40.607-10.2-40.607S98.109 79.682 80.35 77.482l-12.501-.61 18.981 46.967-7.982-9.524s1.024-2.562-.256-5.378c-1.281-2.818-9.733-9.99-9.733-9.99l-16.392 16.136z" transform="translate(201 107) translate(69.558 .123)"/>
                <path fill="#1A2E35" d="M19.94 117.503c-.02.003-.09-.23-.197-.655-.105-.426-.27-1.039-.49-1.79-.436-1.504-1.148-3.55-2.174-5.706-1.031-2.155-2.177-3.995-3.07-5.28-.447-.642-.82-1.156-1.085-1.505-.262-.352-.401-.552-.386-.565.014-.012.18.166.47.497.292.33.69.828 1.159 1.46.94 1.262 2.122 3.102 3.161 5.274 1.035 2.173 1.723 4.248 2.114 5.772.197.762.333 1.385.406 1.82.076.433.11.674.091.678M78.048 142.783c-.009.003-.05-.09-.122-.27l-.301-.791c-.133-.345-.285-.768-.43-1.27-.15-.5-.342-1.066-.49-1.707-.166-.638-.34-1.338-.479-2.1-.166-.757-.276-1.577-.404-2.439-.214-1.728-.346-3.643-.318-5.655.046-2.011.247-3.92.523-5.64.16-.856.299-1.672.493-2.423.166-.757.366-1.45.554-2.081.171-.636.384-1.193.552-1.688.164-.496.33-.915.476-1.253l.33-.78c.078-.177.123-.268.132-.265.008.004-.02.102-.08.286l-.282.797c-.128.343-.28.765-.43 1.264-.153.498-.352 1.057-.51 1.693-.175.632-.363 1.323-.518 2.078-.184.749-.314 1.56-.465 2.413-.261 1.711-.453 3.607-.499 5.605-.027 1.997.096 3.899.294 5.617.122.857.221 1.673.378 2.428.127.76.29 1.458.442 2.096.135.641.313 1.207.449 1.71.13.504.267.93.383 1.279l.252.807c.055.186.08.285.07.289M99.95 147.635c-.01-.002-.01-.088-.002-.253l.048-.716c.03-.31.056-.689.05-1.131 0-.442.031-.944-.018-1.499-.015-.278-.03-.568-.048-.87-.019-.301-.072-.613-.108-.938-.061-.65-.212-1.331-.35-2.051-.331-1.428-.813-2.972-1.5-4.52-.706-1.54-1.545-2.922-2.397-4.116-.448-.58-.86-1.144-1.307-1.62-.219-.242-.417-.487-.63-.702l-.621-.612c-.384-.403-.782-.712-1.112-1.005-.328-.297-.63-.527-.882-.71l-.568-.438c-.128-.103-.193-.16-.189-.169.006-.008.082.034.22.123l.6.397c.263.17.577.39.917.678.342.283.753.584 1.148.982.205.193.417.396.638.605.22.213.425.457.65.699.46.474.882 1.039 1.342 1.62.873 1.2 1.728 2.596 2.444 4.155.694 1.566 1.175 3.132 1.496 4.58.133.729.277 1.419.328 2.078.032.328.08.643.094.949l.031.879c.037.56-.01 1.066-.023 1.51-.009.446-.053.826-.098 1.136l-.1.713c-.025.163-.044.247-.053.246" transform="translate(201 107) translate(69.558 .123)"/>
                <path fill="#1A2E35" d="M100.458 133.137c-.033.025-.456-.491-1.155-1.309-.705-.809-1.679-1.938-2.93-2.984-1.242-1.054-2.575-1.751-3.62-1.942-1.04-.213-1.71-.055-1.716-.12-.003-.018.16-.053.462-.102.15-.034.337-.04.555-.033.112 0 .229.002.349.004l.387.058c1.095.148 2.496.848 3.76 1.923 1.275 1.066 2.234 2.227 2.904 3.073.332.425.591.778.761 1.028.17.25.258.393.243.404" transform="translate(201 107) translate(69.558 .123)"/>
                <path fill="#1A2E35" d="M104.187 129.358c-.042.096-1.958-1.062-4.604-1.603-2.65-.55-4.858-.133-4.862-.233-.005-.031.533-.169 1.426-.247.891-.078 2.144-.063 3.49.209 1.346.274 2.506.739 3.306 1.135.803.398 1.26.71 1.244.739M92.602 83.72c.004.009-.087.062-.261.154l-.768.391-.557.276c-.199.11-.403.25-.629.389-.445.287-.976.579-1.488 1.01l-.827.64c-.275.237-.544.505-.832.77-.596.512-1.116 1.174-1.712 1.82-1.1 1.379-2.16 3.01-3.071 4.83-1.804 3.664-2.697 7.286-3.204 9.905-.142.654-.22 1.255-.31 1.779-.092.524-.152.978-.199 1.35l-.12.854c-.03.195-.05.297-.06.297-.01-.002-.007-.105.005-.302.018-.228.04-.513.069-.862.03-.374.074-.831.152-1.36.076-.527.14-1.132.27-1.791.46-2.64 1.329-6.294 3.15-9.992.918-1.84 1.998-3.485 3.122-4.87.609-.65 1.14-1.314 1.75-1.825.296-.265.572-.532.853-.767l.849-.633c.524-.426 1.067-.71 1.525-.986.231-.134.44-.268.645-.372l.572-.256.793-.347c.182-.076.28-.111.283-.102M14.916 131.198c-.004-.001.01-.052.043-.15.036-.11.083-.254.146-.441l.588-1.704 2.253-6.414 7.994-22.526.05-.142.131.076c2.894 1.674 5.706 3.795 8.795 5.725l9.693 5.871.09.054-.03.102-.594 2.075c-4.78 16.591-9.062 31.46-11.912 41.356l-.002.005-.002.005c-1.818 4.04-4.03 6.936-6.047 8.311-1 .692-1.921.983-2.547 1.056-.315.032-.554.045-.716.028-.16-.006-.241-.016-.241-.016s.082-.008.242-.01c.16.008.398-.012.708-.052.617-.088 1.518-.39 2.498-1.087 1.974-1.38 4.154-4.28 5.936-8.3l-.003.01 11.82-41.382c.203-.711.406-1.42.595-2.075l.06.155-9.69-5.878c-3.101-1.942-5.906-4.066-8.78-5.736l.182-.067-8.088 22.493-2.32 6.39-.625 1.69-.165.434c-.038.097-.06.146-.062.144" transform="translate(201 107) translate(69.558 .123)"/>
                <path fill="#1A2E35" d="M15.341 130.841c.02.047-.705.338-1.79.962-1.085.62-2.508 1.62-3.84 2.987-1.327 1.372-2.285 2.823-2.874 3.926-.592 1.102-.862 1.835-.909 1.817-.018-.007.037-.194.152-.528.109-.337.306-.81.583-1.38.55-1.137 1.5-2.634 2.85-4.028 1.354-1.39 2.821-2.382 3.943-2.966.561-.293 1.028-.504 1.361-.624.332-.123.517-.183.524-.166M15.542 129.274c-.004.044-.547.013-1.422.03-.874.016-2.08.102-3.387.358-1.308.26-2.457.637-3.271.953-.816.317-1.307.551-1.327.512-.016-.028.445-.325 1.251-.691.804-.367 1.965-.782 3.293-1.045 1.33-.26 2.56-.317 3.442-.282.885.033 1.424.132 1.421.165M92.1 168.43s-.108-.034-.316-.117l-.916-.37c-.397-.178-.915-.341-1.477-.642l-1.956-1c-2.887-1.603-6.821-4.424-10.906-8.706-4.117-4.25-8.325-9.95-12.294-16.678-3.955-6.739-7.695-14.504-10.879-22.94-.354-.952-.699-1.9-1.02-2.851l-.026-.081.062-.06 18.216-17.69.092-.088.085.092c2.73 2.97 5.131 5.92 6.946 8.917.446.753.85 1.512 1.17 2.29.313.777.57 1.58.564 2.402 0 .412-.136.817-.248 1.172-.114.366-.196.735-.256 1.1-.045.366-.063.733.009 1.075.061.335.27.661.557.739l.034.01.017.016 8.176 8.492 2.176 2.277.556.592c.124.134.183.207.183.207s-.07-.061-.201-.19c-.136-.135-.327-.325-.574-.574l-2.21-2.244-8.236-8.434.05.026c-.421-.115-.631-.51-.709-.876-.082-.377-.062-.762-.017-1.142.06-.378.143-.757.258-1.13.117-.381.234-.73.234-1.12.004-.772-.246-1.557-.556-2.318-.318-.763-.72-1.513-1.165-2.257-1.809-2.967-4.216-5.91-6.939-8.858l.178.003-18.197 17.708.034-.142c.318.942.663 1.891 1.016 2.84 3.178 8.42 6.905 16.177 10.84 22.907 3.949 6.722 8.13 12.42 12.215 16.673 4.055 4.286 7.956 7.12 10.817 8.748l1.94 1.019c.557.308 1.07.479 1.462.663l.906.397c.203.09.305.144.305.144M62 144.447c0 .016-.258.017-.722-.027-.464-.043-1.134-.149-1.942-.364-1.609-.42-3.787-1.388-5.671-3.136-1.887-1.748-3.016-3.848-3.556-5.42-.275-.79-.431-1.449-.509-1.908-.079-.46-.097-.717-.081-.72.054-.01.183 1.018.774 2.56.58 1.534 1.713 3.574 3.559 5.286 1.846 1.71 3.964 2.688 5.538 3.15 1.582.473 2.618.524 2.61.579M78.56 179.899c.002.004-.036.033-.114.086l-.345.23-1.346.864c-.296.186-.622.393-.978.619-.363.215-.772.424-1.205.662-.872.46-1.841 1.037-2.986 1.525l-1.774.812c-.62.277-1.288.504-1.969.773-1.352.56-2.854.995-4.423 1.486-3.167.878-6.72 1.6-10.502 1.959-3.786.317-7.412.236-10.686-.066-1.63-.206-3.186-.367-4.616-.679-.717-.144-1.416-.25-2.075-.412-.656-.17-1.287-.33-1.89-.485-1.212-.278-2.268-.673-3.209-.972-.467-.157-.907-.29-1.303-.438l-1.07-.436-1.479-.611-.38-.165c-.086-.039-.129-.06-.127-.065.001-.005.048.01.137.039l.392.14c.361.135.862.323 1.494.562l1.078.412c.397.14.838.265 1.307.415.943.284 1.998.665 3.21.93l1.887.465c.657.158 1.355.257 2.07.396 1.425.3 2.975.452 4.6.65 3.26.287 6.868.36 10.636.045 3.762-.358 7.3-1.07 10.457-1.928 1.564-.484 3.061-.907 4.412-1.456.678-.263 1.347-.485 1.966-.756l1.775-.793c1.146-.474 2.117-1.037 2.995-1.483.434-.231.845-.433 1.212-.64l.987-.597 1.372-.819c.147-.083.265-.152.361-.207.082-.045.125-.067.128-.062M71.272 166.27c.008.006-.033.094-.119.26l-.386.716c-.167.313-.381.69-.66 1.107-.276.42-.569.915-.956 1.417l-.589.801c-.206.277-.445.546-.68.836-.462.585-1.016 1.158-1.586 1.772-1.178 1.192-2.558 2.42-4.123 3.561-1.576 1.126-3.177 2.048-4.68 2.79-.762.349-1.48.694-2.182.947-.689.286-1.35.5-1.953.69-.599.208-1.16.33-1.646.46-.485.133-.91.217-1.259.277-.322.057-.587.104-.802.14-.183.03-.28.041-.282.032-.002-.01.092-.04.272-.086l.79-.191c.344-.075.763-.175 1.242-.322.48-.143 1.034-.277 1.624-.497.597-.2 1.249-.423 1.93-.715.692-.261 1.401-.612 2.155-.963 1.484-.749 3.067-1.67 4.63-2.786 1.55-1.13 2.923-2.343 4.102-3.515.57-.604 1.126-1.167 1.593-1.742.236-.284.478-.548.688-.82l.599-.785c.394-.492.696-.975.983-1.385.29-.408.517-.774.697-1.078l.43-.689c.102-.156.16-.236.168-.231" transform="translate(201 107) translate(69.558 .123)"/>
                <path fill="#1A2E35" d="M59.015 116.55c-.049.05-.934-.866-1.597-2.27-.672-1.4-.824-2.664-.756-2.67.083-.019.35 1.19 1.006 2.551.644 1.366 1.412 2.336 1.347 2.39M64.06 111.164c-.07.03-.646-1.122-1.288-2.575-.641-1.453-1.104-2.656-1.035-2.686.07-.032.647 1.121 1.289 2.574.641 1.453 1.105 2.656 1.034 2.687M69.53 106.033c-.077.027-.499-1.075-1.183-2.35-.678-1.28-1.358-2.243-1.293-2.293.054-.045.846.859 1.537 2.162.697 1.3 1.007 2.462.939 2.481M36.198 114.22c-.074-.022.286-1.485.803-3.268.28-.962.547-1.82.743-2.394l-.003.012c.103-.527.182-.839.216-.833.035.005.02.326-.034.86v.002l-.003.01c-.141.59-.374 1.459-.653 2.42-.517 1.783-.996 3.212-1.07 3.19M30.588 102.717c.073.024-.204 1.042-.618 2.273-.414 1.232-.808 2.21-.88 2.185-.073-.024.204-1.041.618-2.273.414-1.231.808-2.21.88-2.185" transform="translate(201 107) translate(69.558 .123)"/>
                <path fill="#000" d="M15.131 131.066c-.032-.898-.714-1.67-1.518-2.069-.804-.4-1.72-.5-2.613-.593 1.31-.507 2.658-1.035 3.682-1.999 1.164-1.095 1.785-2.632 2.373-4.118 1.348-3.409 2.706-7.206 1.426-10.64-.199-.533-.297-1.37.267-1.447.377-.051.638.356.797.703l1.619 3.545M50.167 135.244c-.225 2.165.113 4.386.972 6.387.796 1.852 2.121 3.58 3.988 4.34 1.866.762 4.307.293 5.39-1.407-2.252-.815-4.542-1.651-6.444-3.106-1.901-1.455-3.386-3.655-3.386-6.048" transform="translate(201 107) translate(69.558 .123)"/>
                <path fill="#FFF" d="M84.434 78.599c.003.003-.053.061-.165.17l-.504.48-1.952 1.82c-1.714 1.583-4.178 3.856-7.218 6.66l-23.883 21.898-2.436 2.228-.091.083-.092-.08-22.82-19.768-6.814-5.94-1.835-1.62-.472-.424c-.105-.097-.158-.148-.155-.151.003-.004.061.04.173.13l.488.406 1.868 1.58 6.87 5.876 22.877 19.702-.183.002 2.435-2.228 23.938-21.837 7.277-6.596 1.988-1.783.522-.459c.119-.102.18-.153.184-.149M102.088 106.371c0 .02-.328.053-.92.098-.296.018-.657.046-1.075.104-.417.053-.895.092-1.416.193-.523.084-1.095.18-1.7.327-.61.12-1.25.31-1.924.494-1.338.408-2.783.939-4.244 1.627-1.454.703-2.777 1.492-3.935 2.276-.568.408-1.117.785-1.594 1.185-.496.378-.93.762-1.324 1.115-.406.341-.737.689-1.042.979-.307.288-.556.551-.757.77-.407.432-.639.667-.653.654-.015-.012.19-.27.573-.726.19-.23.428-.506.727-.806.296-.303.62-.662 1.02-1.015.389-.365.82-.76 1.311-1.15.477-.41 1.024-.798 1.593-1.216 1.162-.802 2.494-1.606 3.962-2.315 1.475-.696 2.938-1.225 4.292-1.623.683-.18 1.329-.362 1.947-.473.612-.138 1.19-.223 1.72-.296.525-.09 1.009-.115 1.43-.154.421-.044.785-.056 1.084-.058.596-.011.924-.008.925.01M104.187 163.31c-.008-.004.033-.12.118-.338l.383-.943c.167-.41.395-.9.577-1.501l.32-.952.176-.52c.054-.18.095-.367.145-.558.186-.766.435-1.595.557-2.515.066-.459.177-.927.215-1.419l.125-1.516c.09-2.078-.065-4.377-.591-6.722-.506-2.354-1.37-4.494-2.263-6.374-.88-1.892-1.89-3.485-2.737-4.817-.885-1.307-1.621-2.354-2.168-3.05l-.608-.818c-.137-.188-.205-.29-.198-.297.008-.005.09.085.241.263l.65.786c.573.677 1.336 1.708 2.245 3.008.872 1.323 1.905 2.914 2.804 4.814.913 1.888 1.792 4.045 2.303 6.424.532 2.37.682 4.697.576 6.797l-.137 1.531c-.043.496-.16.968-.231 1.43-.133.926-.395 1.76-.595 2.528-.054.191-.098.38-.155.56l-.186.52-.342.95c-.198.6-.441 1.086-.624 1.49l-.432.925c-.101.21-.159.318-.168.314M79.377 159.366c.006-.047.54.255 1.55.144.989-.1 2.439-.745 3.454-2.257 1.035-1.486 1.662-3.598 2.365-5.888.672-2.307 1.237-4.897 1.588-7.649.722-5.513.38-10.576-.164-14.167-.286-1.797-.59-3.24-.823-4.23l-.276-1.141c-.06-.262-.087-.4-.077-.403.008-.003.053.13.131.387l.326 1.13c.266.986.6 2.426.912 4.226.595 3.598.972 8.689.246 14.233-.353 2.768-.93 5.37-1.62 7.686-.72 2.296-1.363 4.41-2.449 5.928-.535.752-1.174 1.327-1.82 1.682-.64.364-1.268.527-1.782.57-.516.046-.918-.026-1.177-.103-.26-.074-.384-.148-.384-.148M75.339 123.62c.015.012-.132.226-.414.605-.137.193-.313.422-.545.665-.228.246-.471.543-.791.822-.307.291-.647.607-1.048.904-.381.321-.832.605-1.297.917-.956.583-2.064 1.135-3.288 1.557-1.23.405-2.446.638-3.56.753-.558.034-1.09.08-1.588.056-.498.006-.96-.038-1.38-.084-.423-.029-.797-.118-1.127-.175-.332-.054-.611-.129-.837-.199-.454-.13-.701-.212-.696-.23.016-.06 1.013.264 2.678.409.416.033.872.066 1.363.05.491.015 1.013-.04 1.563-.08 1.094-.128 2.287-.364 3.496-.763 1.203-.415 2.295-.949 3.242-1.51.462-.301.91-.574 1.292-.883.4-.285.743-.587 1.054-.866 1.237-1.124 1.834-1.986 1.883-1.947M82.058 117.79c.02 0 .018.201-.001.564-.013.362-.075.885-.189 1.525-.11.64-.302 1.392-.572 2.21-.282.811-.65 1.686-1.12 2.562-.478.871-1.012 1.656-1.54 2.335-.538.671-1.064 1.242-1.542 1.682-.474.444-.879.781-1.176.99-.294.213-.461.323-.472.308-.031-.04.607-.524 1.512-1.437.454-.454.957-1.03 1.477-1.7.509-.677 1.028-1.453 1.499-2.31.462-.861.83-1.719 1.122-2.515.278-.8.487-1.536.62-2.164.274-1.255.332-2.054.382-2.05M71.057 150.371c.003.003-.023.035-.078.095l-.244.26c-.237.24-.557.567-.963.981l-3.582 3.58c-3.064 3.024-7.279 7.184-11.965 11.812l-.075.074-.092-.053c-.245-.142-.51-.294-.777-.446l-15.081-8.71-4.555-2.667-1.231-.737-.317-.198c-.07-.046-.105-.071-.103-.076.002-.004.042.013.117.051l.33.175c.308.168.728.4 1.258.692l4.598 2.59 15.122 8.64.777.446-.165.021 12.024-11.752 3.643-3.517.998-.945.264-.24c.06-.054.093-.08.097-.076M52.633 138.537c.01 0 .016.06.02.18-.001.12-.021.3-.11.513-.164.427-.664.96-1.46 1.198-.806.267-1.841-.004-2.747-.552-.916-.558-1.802-1.296-2.78-2.015-1.936-1.464-3.679-2.801-4.932-3.78l-1.476-1.172c-.345-.28-.53-.443-.519-.459.012-.015.219.12.584.374l1.528 1.1c1.284.94 3.046 2.253 4.982 3.717.976.718 1.87 1.468 2.744 2.016.872.54 1.819.804 2.563.582.748-.197 1.234-.67 1.415-1.055.194-.388.154-.651.188-.647M60.336 131.558c.016.04-.55.284-1.441.724-.891.438-2.098 1.09-3.36 1.925-1.26.839-2.33 1.698-3.08 2.349-.75.65-1.196 1.077-1.226 1.048-.025-.024.372-.5 1.094-1.193.723-.692 1.786-1.587 3.06-2.433 1.274-.845 2.51-1.478 3.43-1.874.919-.397 1.512-.578 1.523-.546" transform="translate(201 107) translate(69.558 .123)"/>
                <path fill="#000" d="M78.417 114.77c-2.77 7.19-3.267 14.54-2.35 22.19.19 1.584.99 3.81 1.607 5.282s1.667 2.822 3.118 3.486c1.323.604 3.088.494 4-.639.65-.807.734-1.929.644-2.962-.231-2.657-1.408-5.125-2.417-7.594-2.57-6.287-4.152-12.978-4.67-19.75M96.89 129.117c2.755 2.194 4.698 5.385 5.382 8.84.184.925.29 1.899.79 2.7.498.8 1.548 1.363 2.4.957 1.04-.497 1.078-1.96.826-3.086-1.14-5.092-5.21-9.419-10.225-10.866" transform="translate(201 107) translate(69.558 .123)"/>
                <path fill="#FFF" d="M53.189 188.9c-.038.066-6.687-3.66-14.85-8.319-8.164-4.66-14.75-8.492-14.712-8.559.037-.066 6.685 3.658 14.85 8.32 8.162 4.659 14.75 8.491 14.712 8.557" transform="translate(201 107) translate(69.558 .123)"/>
                <path fill="#FFF" d="M63.623 186.776c.011.016-.173.165-.516.419l-1.465 1.058c-1.244.883-2.974 2.088-4.894 3.404l-1.482 1.013-.07.046-.072-.04c-1.661-.917-3.108-1.73-4.136-2.32l-1.2-.703c-.279-.17-.427-.269-.42-.283.009-.015.172.057.465.2l1.24.633c1.05.548 2.513 1.331 4.181 2.237l-.141.007 1.479-1.018c1.92-1.316 3.667-2.495 4.94-3.337l1.514-.986c.362-.228.566-.345.577-.33" transform="translate(201 107) translate(69.558 .123)"/>
                <path fill="#000" d="M75.516 182.001c-1.865-2.125-5.064-2.63-7.824-2.016-2.76.613-5.206 2.155-7.63 3.608-2.426 1.452-4.978 2.87-7.787 3.187-3.287.37-6.523-.803-9.768-1.448-3.244-.645-6.992-.628-9.404 1.636 0 0 10.33 3.517 22.733 1.575 9.103-1.424 19.68-6.542 19.68-6.542" transform="translate(201 107) translate(69.558 .123)"/>
                <path fill="#FFF" d="M36.802 135.812c-.003.019-.317-.014-.886-.092-.285-.036-.632-.088-1.031-.17-.4-.078-.859-.154-1.356-.283-1.001-.227-2.177-.569-3.46-1.017-1.276-.463-2.655-1.042-4.053-1.754-1.392-.722-2.665-1.509-3.784-2.277-1.111-.783-2.073-1.54-2.84-2.224-.393-.33-.722-.658-1.019-.937-.299-.277-.543-.53-.737-.74-.393-.418-.604-.655-.59-.668.013-.013.25.198.666.591.206.199.459.439.766.704.306.267.642.584 1.041.902.779.66 1.747 1.396 2.857 2.161 1.119.752 2.386 1.525 3.767 2.243 1.386.706 2.751 1.287 4.014 1.76 1.268.457 2.43.816 3.42 1.065.49.141.944.23 1.339.323.394.096.737.163 1.018.215.561.11.87.18.868.198M5.583 157.052c-.009.003-.037-.087-.082-.26l-.184-.764c-.04-.17-.081-.355-.127-.554-.04-.203-.066-.428-.104-.667-.064-.48-.168-1.025-.192-1.636l-.065-.957c-.02-.333-.004-.68-.007-1.039-.019-.72.057-1.485.117-2.292.18-1.605.514-3.358 1.079-5.138.586-1.775 1.34-3.392 2.136-4.8.425-.688.812-1.352 1.248-1.925.213-.289.404-.58.614-.838l.614-.737c.377-.482.781-.861 1.115-1.213.17-.172.323-.338.474-.48l.427-.375.597-.51c.138-.115.214-.17.22-.164.006.007-.058.078-.184.205l-.56.548c-.125.12-.26.25-.408.39-.145.146-.291.317-.455.493-.321.36-.711.745-1.076 1.23l-.594.742c-.205.26-.389.552-.596.841-.425.573-.8 1.236-1.214 1.92-.776 1.4-1.515 3.002-2.095 4.758-.558 1.76-.897 3.493-1.089 5.08-.066.798-.15 1.555-.14 2.268-.003.355-.024.7-.01 1.03l.046.95c.012.607.102 1.148.152 1.627.029.24.048.464.08.667l.102.555.133.771c.028.178.038.272.028.274M17.646 122.67c-.012.014-.225-.131-.599-.407l-1.578-1.172-5.229-3.839c-2.05-1.49-3.904-2.842-5.234-3.837-.665-.497-1.2-.905-1.565-1.193-.364-.287-.561-.454-.55-.47.011-.014.23.123.614.383l1.616 1.122c1.359.954 3.231 2.28 5.282 3.772 2.05 1.49 3.882 2.874 5.185 3.907.652.515 1.173.941 1.526 1.243.354.302.544.475.532.49" transform="translate(201 107) translate(69.558 .123)"/>
                <path fill="#080D1D" d="M74.538 15.64c.199 5.452 7.467 8.756 7.373 14.211-.04 2.341-1.492 4.443-1.777 6.767-.383 3.124 1.363 6.073 2.008 9.153 1.328 6.347-2.362 13.042-7.837 16.516-5.475 3.475-12.348 4.138-18.773 3.259M30.648 14.303c.216 2.927-1.717 5.542-3.664 7.737-1.948 2.196-4.115 4.484-4.536 7.388-.746 5.148 4.294 9.927 3.255 15.023-.557 2.731-2.794 4.925-3.193 7.684-.385 2.668 1.045 5.28 2.818 7.312 1.772 2.031 3.826 1.735 5.393 3.927 1.652 2.311 4.311 4.682 6.803 6.046 5.647 3.093 12.425-1.382 15.15-2.185" transform="translate(201 107) translate(69.558 .123)"/>
                <path fill="#080D1D" d="M75.632 18.779c.077-2.654-2.378-4.705-4.85-5.677-2.47-.972-5.217-1.339-7.42-2.822-1.95-1.313-3.261-3.36-4.912-5.034C54.4 1.14 48.076-.562 42.512.956c-5.564 1.518-10.148 6.196-11.552 11.79-.949 3.78-.301 8.25 2.679 10.761 3.458 2.916 8.586 2.268 13.017 1.361 4.431-.907 9.447-1.802 13.147.8 2.23 1.57 3.51 4.123 4.873 6.486 1.364 2.362 3.076 4.774 5.656 5.662 2.579.888 6.081-.645 6.181-3.371" transform="translate(201 107) translate(69.558 .123)"/>
                <path fill="#FFBF9D" d="M40.348 80.609c-.036-6.091-.072-12.026-.074-11.995 0 0-9.675-1.628-11.653-14.261-.983-6.283-.645-16.58-.096-24.995.495-7.575 5.534-16.859 13.081-16.043l23.559 6.01c2.292.247 4.014 2.207 3.964 4.513l-2.157 57.194c-.274 7.256-6.311 12.955-13.57 12.812-7.22-.143-13.01-6.015-13.054-13.235" transform="translate(201 107) translate(69.558 .123)"/>
                <path fill="#080D1D" d="M32.535 36.575c-.032.855.665 1.588 1.558 1.638.89.05 1.64-.601 1.672-1.457.033-.855-.665-1.589-1.555-1.638-.893-.05-1.643.602-1.675 1.457M30.747 34.72c.2.211 1.43-.694 3.172-.686 1.741-.016 3.018.884 3.208.67.093-.094-.111-.475-.667-.882-.547-.405-1.482-.8-2.567-.798-1.086.004-2 .401-2.526.81-.536.41-.719.79-.62.886M49.456 37.012c-.033.856.665 1.588 1.558 1.638.89.05 1.64-.601 1.672-1.457.033-.855-.665-1.588-1.556-1.638-.893-.05-1.642.602-1.674 1.457M47.877 35.083c.2.211 1.43-.694 3.172-.685 1.741-.017 3.02.882 3.208.67.093-.095-.108-.476-.667-.883-.547-.405-1.481-.8-2.567-.798-1.085.004-2 .401-2.525.81-.536.41-.72.79-.621.886M41.524 47.994c.008-.1-1.075-.289-2.83-.518-.445-.046-.866-.136-.94-.44-.104-.322.083-.801.3-1.318.42-1.076.86-2.204 1.323-3.386 1.839-4.82 3.17-8.785 2.976-8.857-.195-.073-1.844 3.776-3.681 8.597l-1.269 3.406c-.17.505-.46 1.078-.234 1.746.119.333.445.575.73.652.285.088.535.094.756.107 1.766.1 2.862.11 2.869.01" transform="translate(201 107) translate(69.558 .123)"/>
                <path fill="#FF9A6C" d="M40.274 68.614s8.494.567 16.923-4.474c-.143.03-4.658 8.779-16.759 7.456l-.164-2.982z" transform="translate(201 107) translate(69.558 .123)"/>
                <path fill="#080D1D" d="M47.527 26.453c.042.502 1.78.74 3.688 1.514 1.925.735 3.36 1.745 3.733 1.405.17-.164.01-.67-.514-1.287-.518-.615-1.421-1.311-2.57-1.765-1.15-.451-2.285-.557-3.084-.46-.803.096-1.265.356-1.253.593M31.1 29.77c.379.326 1.472-.318 2.883-.628 1.4-.358 2.665-.276 2.858-.738.08-.222-.189-.571-.787-.83-.591-.26-1.515-.382-2.48-.153-.91.122-1.542.377-2.146 1.253-.418.5-.5.934-.329 1.096" transform="translate(201 107) translate(69.558 .123)"/>
                <path fill="#080D1D" d="M70.51 61.572c-3.473.7-3.783-1.068-6.378-3.48-2.594-2.412-3.935-6.106-3.49-9.621.393-3.102 2.065-6.257.99-9.193-1.421-3.88-6.862-5.075-8.306-8.948-.839-2.251-.086-4.884-1.037-7.09-.895-2.075-3.077-3.27-5.201-4.037-2.125-.769-4.402-1.299-6.186-2.685-1.783-1.386-2.896-4.003-1.745-5.947 9.42 1.13 18.706 3.385 27.595 6.705 2.06.77 4.226 1.695 5.444 3.527 1.29 1.938 1.227 4.442 1.119 6.768l-1.587 34.017M78.453 35.81c.399-4.162 3.79-7.856 7.903-8.609 4.113-.752 8.592 1.502 10.44 5.253 1.755 3.566 1.147 7.907-.492 11.529-1.947 4.304-5.936 8.236-10.654 8.022-4.44-.201-8.014-4.1-9.294-8.357-1.28-4.256-.763-8.818-.235-13.23" transform="translate(201 107) translate(69.558 .123)"/>
                <path fill="#375A64" d="M80.927 53.105c.013.016.304-.2.66-.732.362-.526.767-1.39.943-2.528.185-1.133.151-2.511-.114-3.99-.257-1.486-.758-3.042-1.123-4.696-.372-1.647-.546-3.258-.275-4.672.258-1.406.92-2.601 1.21-3.711.32-1.109.28-2.086.076-2.702-.199-.622-.472-.88-.491-.861-.042.025.16.318.282.915.126.592.106 1.496-.242 2.533-.319 1.048-1.022 2.212-1.337 3.729-.318 1.509-.144 3.21.235 4.89.373 1.685.888 3.236 1.162 4.668.285 1.434.356 2.756.228 3.844-.235 2.216-1.323 3.257-1.214 3.313" transform="translate(201 107) translate(69.558 .123)"/>
                <path fill="#375A64" d="M81.11 37.94c-.045.032.555.911 1.936 1.896 1.358.98 3.59 1.987 6.207 2.034 2.617.045 4.884-.883 6.275-1.816 1.414-.935 2.044-1.792 2-1.826-.066-.071-.788.674-2.205 1.492-1.399.818-3.577 1.637-6.06 1.595-2.483-.045-4.631-.94-6-1.806-1.388-.867-2.084-1.637-2.153-1.569M81.736 39.92c-.054.025.256.84 1.07 1.982.806 1.14 2.181 2.56 4.022 3.671 1.845 1.105 3.743 1.655 5.128 1.832 1.39.184 2.256.075 2.253.015.002-.093-.853-.126-2.186-.402-1.331-.27-3.132-.857-4.91-1.92-1.771-1.072-3.134-2.388-3.997-3.436-.869-1.048-1.298-1.788-1.38-1.743M78.557 57.334c.008.005.055-.048.138-.158.078-.113.219-.268.348-.505.285-.457.628-1.194.832-2.208.203-1.008.221-2.314-.202-3.729-.396-1.412-1.379-2.928-2.94-3.953-1.498-1.056-3.449-1.792-4.688-3.473-.619-.82-.88-1.886-.686-2.966.17-1.083.665-2.145 1.1-3.276.964-2.263.974-5.09-.164-7.54-.573-1.219-1.423-2.354-2.562-3.183-1.13-.856-2.512-1.296-3.873-1.606-1.368-.312-2.733-.493-3.998-.875-1.263-.378-2.472-.944-3.35-1.832-.899-.876-1.28-2.09-1.451-3.313-.173-1.221-.264-2.489-.595-3.672-.618-2.368-1.821-4.466-3.408-5.974-1.587-1.517-3.53-2.388-5.365-2.662-1.842-.286-3.577.055-4.882.74-1.32.671-2.235 1.602-2.824 2.444-.587.853-.86 1.62-.988 2.143-.13.525-.122.813-.122.813.081.034.098-1.186 1.285-2.83.599-.798 1.507-1.674 2.787-2.293 1.266-.63 2.921-.927 4.682-.629 1.753.286 3.607 1.143 5.107 2.606 1.506 1.457 2.65 3.48 3.233 5.771.313 1.144.392 2.35.565 3.622.164 1.25.585 2.636 1.59 3.615.973.988 2.263 1.583 3.577 1.98 1.326.4 2.695.58 4.034.887 1.331.303 2.63.723 3.67 1.51 1.055.765 1.853 1.823 2.395 2.968 1.075 2.315 1.09 4.954.178 7.128-.417 1.113-.925 2.204-1.103 3.385-.21 1.175.106 2.426.796 3.31 1.378 1.811 3.386 2.517 4.84 3.526 1.512.967 2.449 2.367 2.863 3.722.435 1.35.452 2.615.286 3.598-.345 1.999-1.188 2.873-1.105 2.909" transform="translate(201 107) translate(69.558 .123)"/>
                <path fill="#375A64" d="M77.712 22.075s.118-.183.155-.583c.042-.391-.016-1.019-.419-1.676-.391-.65-1.089-1.346-2.111-1.747-1.035-.398-2.31-.385-3.627-.12-1.325.25-2.696.78-4.198 1.07-1.475.284-3.237.325-4.568-.718-1.343-1.02-2.015-2.789-2.705-4.545-.673-1.796-1.629-3.603-2.917-5.201-2.574-3.205-6.063-5.404-9.557-6.181-1.748-.38-3.511-.345-5.047.132-1.53.474-2.818 1.34-3.695 2.388-.891 1.042-1.325 2.272-1.398 3.347-.089 1.08.122 2.012.418 2.706.292.701.67 1.167.95 1.443.281.28.459.39.466.38.066-.05-.69-.528-1.216-1.902-.252-.679-.422-1.574-.309-2.598.1-1.02.53-2.154 1.388-3.12.844-.972 2.073-1.773 3.53-2.203 1.454-.432 3.129-.45 4.803-.074 3.35.772 6.74 2.92 9.232 6.028 1.254 1.559 2.172 3.282 2.847 5.055.698 1.742 1.39 3.61 2.901 4.753.737.57 1.637.857 2.494.936.864.085 1.694-.023 2.47-.175 1.56-.323 2.91-.87 4.19-1.137 1.268-.281 2.483-.312 3.439.027.96.344 1.644.977 2.037 1.57.406.601.495 1.18.49 1.557 0 .383-.077.58-.043.588M81.684 54.77c.015.007-.071.226-.267.604-.194.379-.512.91-.97 1.52-.906 1.218-2.468 2.732-4.592 3.733-2.124 1.002-4.287 1.245-5.803 1.168-.763-.035-1.375-.127-1.79-.218-.416-.09-.64-.162-.636-.178.01-.054.926.181 2.431.2 1.495.026 3.604-.243 5.68-1.222 2.075-.979 3.624-2.433 4.556-3.604.942-1.174 1.344-2.03 1.391-2.004" transform="translate(201 107) translate(69.558 .123)"/>
                <path fill="#FFBF9D" d="M41.937 59.928l5.644 8.202 1.087 4.742s.193-1.506.493-2.935c.301-1.43 0-5.72 0-5.72l-4.138-6.17s-2.409-3.387-.377-5.419l4.022 3.989s-3.42-4.754-1.087-6.516l3.315 2.806s-.94-1.125.34-2.028l8.536 8.221 1.054 13.772-.452 14.523L68.86 98.56l-12.285 12.093S45.052 91.87 44.375 89.01c-.678-2.86-.03-18.62-.03-18.62s-3.505-5.066-3.461-7.3c.043-2.235 1.053-3.161 1.053-3.161" transform="translate(201 107) translate(69.558 .123)"/>
                <path fill="#FF9A6C" d="M51.653 102.034c-.005.003-.038-.038-.098-.12l-.26-.374c-.228-.343-.555-.84-.982-1.486-.846-1.312-2.081-3.248-3.556-5.79-.726-1.277-1.544-2.687-2.24-4.343-.377-.835-.455-1.806-.52-2.758-.059-.963-.091-1.961-.105-2.993-.053-4.125.047-8.79.227-13.907l.04.138c-1.008-1.496-2-3.09-2.81-4.876-.2-.447-.382-.91-.522-1.398-.072-.244-.124-.499-.16-.76l-.028-.403.018-.385c.035-.514.126-1.032.299-1.534.177-.505.398-.98.812-1.418l.2-.212.176.255 5.655 8.194.028.042.012.049 1.091 4.74-.53.026.351-2.093.176-1.051c.048-.337.072-.692.082-1.05.041-1.436-.028-2.922-.121-4.407l.045.134-2.483-3.7-1.277-1.904c-.208-.319-.44-.634-.644-.986-.2-.348-.383-.703-.53-1.08-.28-.68-.46-1.421-.433-2.185.02-.76.329-1.545.886-2.082l.197-.191.192.19 4.02 3.99-.416.355c-.707-1.036-1.297-2.118-1.678-3.305-.185-.593-.308-1.22-.258-1.87.045-.647.368-1.32.91-1.717l.18-.132.163.147 3.395 3.067-.396.348c-.251-.402-.402-.834-.38-1.325.018-.493.332-.946.7-1.208l.179-.127.157.15 8.524 8.117.07.065.006.094 1.021 13.774.001.012v.01l-.509 14.523-.03-.099c2.56 3.459 4.589 6.197 5.982 8.078l1.571 2.157.396.561c.087.127.128.194.123.199-.006.004-.059-.054-.158-.173l-.429-.536-1.636-2.108-6.1-7.99-.032-.043.001-.056.395-14.525v.022l-1.085-13.769.075.16-8.548-8.092.335.022c-.277.208-.467.486-.48.817-.023.323.106.7.289.988l1.043 1.645-1.44-1.296-3.401-3.06.343.014c-.415.313-.652.794-.694 1.334-.043.54.063 1.11.236 1.66.353 1.101.936 2.17 1.604 3.146l-.415.355-4.023-3.987h.39c-.46.448-.703 1.065-.724 1.715-.023.65.132 1.323.393 1.955.136.347.31.682.495 1.006.184.32.41.626.622.952l1.278 1.907 2.484 3.705.041.062.005.071c.093 1.505.16 2.989.117 4.464-.011.37-.035.738-.09 1.115l-.18 1.067-.348 2.062-.228 1.347-.301-1.32-1.082-4.743.04.091-5.633-8.21.376.043c-.292.305-.533.764-.682 1.209-.158.452-.244.93-.279 1.408-.1.936.277 1.844.642 2.718.778 1.738 1.76 3.336 2.744 4.81l.043.065-.002.074c-.205 5.108-.334 9.772-.313 13.885.005 1.029.029 2.022.078 2.976.06.956.12 1.862.475 2.663.662 1.626 1.464 3.051 2.17 4.33 1.438 2.555 2.636 4.512 3.446 5.847.402.662.71 1.17.924 1.52l.231.393c.051.088.074.135.07.139" transform="translate(201 107) translate(69.558 .123)"/>
                <path fill="#FF9A6C" d="M54.16 70.744c-.077.003-.195-.897-.324-2.358-.13-1.46-.269-3.48-.39-5.711l-.031-.615.07.17c-1.402-1.556-2.633-2.964-3.5-3.995-.868-1.031-1.37-1.685-1.317-1.735.054-.049.655.517 1.596 1.482.94.965 2.22 2.33 3.63 3.879l.065.072.006.098.034.614c.12 2.232.198 4.254.228 5.72.029 1.466.009 2.374-.068 2.379M57.4 66.42c-.073.004-.182-.813-.301-2.155-.12-1.342-.25-3.208-.364-5.302l.082.183-.475-.464c-1.609-1.574-3.043-3.02-4.062-4.087-1.018-1.067-1.621-1.754-1.568-1.809.053-.054.753.534 1.842 1.53 1.089.995 2.566 2.397 4.174 3.97l.474.466.077.076.006.107c.103 2.094.169 3.963.19 5.31.02 1.347-.003 2.172-.076 2.175" transform="translate(201 107) translate(69.558 .123)"/>
                <path fill="#FFBF9D" d="M31.148 79.608s-.902-6.147-1.751-8.332c-.85-2.186-3.197-4.952-3.197-4.952s1.28-1.43 3.34-.221c2.677 1.572 2.535 5.147 2.535 5.147l-.927 8.358z" transform="translate(201 107) translate(69.558 .123)"/>
                <path fill="#FFBF9D" d="M31.82 71.834s-1.454-10.186-1.357-10.866c.097-.679 3.88-9.604 3.88-9.604s2.232-.194 1.94 1.94c-.29 2.134-1.067 4.463-1.067 4.463l6.016-6.985s2.231.484 1.358 2.716c0 0 2.037-.291 1.455 3.104l-2.69 5.155.306 5.359 4.421-5.808s2.135 1.31 1.068 3.444c-1.068 2.135-3.299 7.082-3.299 7.082L44.5 79.5s1.134 4.269 0 6.5c-1.133 2.231-2.2 4.269-2.2 4.269l-2.025 18.613-13.163-8.262 3.836-18.695.874-10.09z" transform="translate(201 107) translate(69.558 .123)"/>
                <path fill="#FF9A6C" d="M40.274 108.881c-.009-.001-.006-.111.009-.326l.078-.955.35-3.68 1.403-13.672.003-.034.017-.032 1.193-2.338.624-1.222c.212-.417.443-.827.574-1.25.27-.873.296-1.85.234-2.83-.068-.981-.229-1.993-.477-2.986l-.005-.02-.002-.018-.666-7.663-.006-.064.026-.057 2.414-5.208.627-1.351c.208-.468.44-.878.495-1.325.147-.898-.443-1.803-1.22-2.318l.347-.065-4.416 5.813-.443.583-.042-.732-.31-5.358-.004-.076.035-.067 2.688-5.155-.027.08c.078-.528.138-1.087.053-1.616-.074-.528-.345-1.001-.814-1.125-.123-.038-.282-.052-.383-.042l-.46.042.163-.417c.2-.508.26-1.058.033-1.486-.211-.43-.713-.732-1.192-.86l.268-.09-6.019 6.983-.871 1.011.408-1.274c.401-1.255.738-2.532.962-3.8.057-.315.107-.643.12-.924-.005-.285-.059-.558-.204-.77-.279-.426-.92-.587-1.47-.56l.22-.16-2.213 5.275-1.042 2.562c-.166.423-.333.845-.483 1.262-.032.1-.078.215-.102.304l-.038.132.001.134c.007.195.024.427.046.643.375 3.529.858 6.885 1.285 10.024l.004.026-.002.025-.909 10.087-.001.011-.002.01-2.9 13.706-.805 3.682-.222.95c-.053.213-.084.321-.093.32-.009-.002.005-.113.04-.33l.171-.961.709-3.702 2.733-13.74-.003.021.838-10.093.002.05c-.446-3.143-.944-6.483-1.337-10.04-.023-.226-.042-.44-.05-.693l.004-.202.05-.192c.035-.13.074-.224.111-.337.153-.433.319-.855.485-1.282l1.036-2.573 2.2-5.286.063-.152.157-.007c.368-.019.705.018 1.053.133.341.113.684.326.905.653.223.326.293.715.297 1.074-.015.368-.068.685-.125 1.012-.228 1.306-.566 2.59-.976 3.88l-.463-.263 6.011-6.989.112-.13.157.04c.335.086.613.217.891.401.271.184.516.435.674.744.33.632.219 1.366-.009 1.943l-.296-.375c.23-.022.413.004.614.059.349.098.666.333.86.628.19.295.308.622.347.937.099.635.028 1.235-.055 1.801l-.005.04-.022.041-2.692 5.154.03-.143.303 5.36-.485-.15 4.427-5.802.15-.197.197.132c.48.32.853.718 1.138 1.206.28.483.4 1.075.32 1.63-.074.563-.355 1.045-.549 1.483l-.629 1.345-2.427 5.186.02-.12.63 7.665-.006-.038c.253 1.037.408 2.058.474 3.074.056 1.013.028 2.027-.272 2.982-.158.487-.399.9-.608 1.308l-.634 1.219-1.214 2.33.02-.066-1.57 13.653-.448 3.67-.13.95c-.031.213-.052.32-.06.32" transform="translate(201 107) translate(69.558 .123)"/>
                <path fill="#FF9A6C" d="M34.542 68.663c-.151.02-.62-2.518-1.044-5.67-.124-.92-.231-1.79-.314-2.549l-.011-.1.051-.071c1.1-1.548 1.903-2.567 1.993-2.506.089.06-.558 1.185-1.584 2.783l.04-.172c.121.754.25 1.621.373 2.541.425 3.151.647 5.723.496 5.744M37.921 66.324c-.124.014-.47-2.149-.833-5.138l-.012-.095.057-.084 1.142-1.69c2.257-3.3 4.189-5.905 4.315-5.819.126.086-1.601 2.83-3.859 6.131l-1.16 1.678.044-.18c.296 2.998.431 5.183.306 5.197" transform="translate(201 107) translate(69.558 .123)"/>
            </g>
            <g>
                <path fill="#FF2D34" d="M35.722 37.276c-6.218-9.512-5.98-23.414 1.448-32.014 2.304-2.67 5.526-4.99 9.04-4.69 3.599.309 6.497 3.395 7.592 6.836 1.095 3.441.715 7.17.072 10.724-.9 4.975-2.408 10.066-5.86 13.761-3.451 3.696-7.855 7.807-12.292 5.383M38.493 82.74c-2.342-5.463-.643-12.382 3.962-16.14 1.43-1.167 3.3-2.07 5.083-1.597 1.826.485 3.04 2.338 3.292 4.21.252 1.872-.281 3.759-.934 5.531-.915 2.482-2.153 4.968-4.267 6.56-2.113 1.59-5.07 3.087-7.136 1.436M23.498 79.475c1.71-8.432-2.734-17.735-10.367-21.705-2.37-1.232-5.286-1.962-7.673-.766-2.445 1.224-3.62 4.207-3.426 6.934.194 2.728 1.505 5.244 2.953 7.564 2.028 3.248 4.514 6.406 7.977 8.039 3.463 1.632 8.093 2.883 10.536-.066M24.575 56.675c2.977-9.607-2.07-21.256-10.483-26.768-2.612-1.71-5.918-2.902-8.836-1.79C2.27 29.255.553 32.587.46 35.78c-.094 3.196 1.136 6.276 2.549 9.144 1.976 4.015 4.499 7.98 8.335 10.285 3.837 2.305 10.046 4.608 13.232 1.465" transform="translate(201 107) translate(3.717 90.388)"/>
                <path fill="#1A2E35" d="M30.555 103.633c-.014.002-.048-.159-.098-.465l-.2-1.34-.134-.969-.22-1.142c-.156-.82-.318-1.756-.587-2.772l-.387-1.602-.503-1.714c-.32-1.193-.794-2.426-1.237-3.74-.985-2.594-2.208-5.393-3.709-8.223-1.53-2.817-3.186-5.384-4.804-7.639-.85-1.095-1.617-2.172-2.433-3.099l-1.15-1.365-1.121-1.208c-.699-.786-1.39-1.438-1.987-2.022l-.83-.814-.732-.648-1.007-.908c-.227-.21-.342-.327-.333-.338.009-.01.14.085.386.275l1.057.85c.232.191.485.4.76.624.265.246.55.511.856.793.614.57 1.323 1.212 2.038 1.989l1.146 1.196 1.175 1.359c.833.922 1.613 1.997 2.477 3.094 1.645 2.256 3.322 4.835 4.86 7.668 1.512 2.848 2.732 5.67 3.703 8.287.437 1.326.9 2.57 1.21 3.774l.482 1.73.364 1.617c.251 1.025.394 1.97.53 2.797l.188 1.153.1.977.124 1.352c.024.309.03.472.016.473" transform="translate(201 107) translate(3.717 90.388)"/>
                <path fill="#1A2E35" d="M30.335 105.36c-.007 0-.007-.066 0-.191l.041-.557.197-2.136.152-1.54c.043-.564.058-1.18.092-1.84.05-1.32.176-2.82.13-4.483l-.013-2.609c-.01-.907-.095-1.848-.141-2.824-.066-1.955-.332-4.027-.566-6.21-.597-4.353-1.53-9.102-2.948-13.971-1.465-4.858-3.273-9.349-5.146-13.323-.993-1.96-1.9-3.842-2.91-5.516-.494-.843-.935-1.68-1.422-2.444l-1.412-2.194c-.868-1.42-1.792-2.61-2.553-3.69-.388-.533-.736-1.04-1.079-1.49-.352-.44-.675-.843-.967-1.21l-1.329-1.681-.338-.445c-.075-.102-.11-.155-.105-.16.006-.005.052.04.137.133l.368.419 1.39 1.635.997 1.189c.353.444.71.946 1.11 1.475.78 1.07 1.723 2.251 2.61 3.665l1.438 2.188c.496.763.945 1.6 1.447 2.442 1.027 1.674 1.95 3.558 2.956 5.521 1.9 3.982 3.726 8.49 5.198 13.37 1.426 4.892 2.351 9.666 2.93 14.038.225 2.195.48 4.277.531 6.24.039.98.117 1.926.118 2.836l-.014 2.618c.028 1.67-.118 3.174-.19 4.496-.045.661-.071 1.277-.126 1.841l-.187 1.541-.274 2.129-.08.552c-.02.124-.035.187-.042.186" transform="translate(201 107) translate(3.717 90.388)"/>
                <path fill="#1A2E35" d="M46.523 12.058c.006.004-.021.064-.08.178l-.267.499-1.063 1.897c-.228.414-.502.862-.766 1.371l-.832 1.673-.96 1.92c-.324.688-.632 1.43-.975 2.2-.332.776-.707 1.577-1.05 2.43l-1.033 2.679-.543 1.411-.5 1.48-1.041 3.088c-1.319 4.262-2.567 9.009-3.622 14.048-1.02 5.05-1.737 9.906-2.267 14.337-.453 4.44-.788 8.448-.88 11.823-.085 1.686-.103 3.212-.108 4.554-.022 1.34-.026 2.496.005 3.44l.03 2.175-.002.566c-.003.128-.008.194-.015.194-.006 0-.016-.065-.026-.192l-.039-.565-.106-2.174c-.057-.945-.075-2.101-.075-3.445-.016-1.343-.019-2.873.049-4.563.054-3.382.36-7.402.795-11.853.51-4.445 1.217-9.316 2.24-14.379 1.058-5.054 2.322-9.812 3.663-14.08l1.06-3.092.512-1.48.554-1.414 1.058-2.678c.353-.853.736-1.653 1.079-2.427.352-.769.67-1.51 1.004-2.195l.99-1.912.864-1.661c.275-.505.56-.949.799-1.357l1.13-1.862.304-.478c.07-.106.108-.16.114-.156M44.41 70.418c.023.016-.213.43-.661 1.161-.455.727-1.079 1.8-1.811 3.145-.738 1.343-1.541 2.982-2.356 4.834-.794 1.861-1.588 3.942-2.285 6.17-.683 2.235-1.2 4.4-1.594 6.386-.373 1.99-.634 3.796-.781 5.32-.155 1.524-.245 2.763-.28 3.62-.043.856-.08 1.33-.109 1.33-.027 0-.044-.474-.049-1.335-.014-.86.032-2.106.15-3.641.112-1.536.345-3.357.7-5.363.377-2.002.887-4.187 1.574-6.437.701-2.244 1.512-4.336 2.33-6.2.84-1.857 1.675-3.492 2.449-4.823.767-1.334 1.432-2.39 1.929-3.092.49-.707.771-1.09.794-1.075" transform="translate(201 107) translate(3.717 90.388)"/>
                <path fill="#375A64" d="M18.342 99.353L45.657 99.353 42.351 127.25 21.744 127.25z" transform="translate(201 107) translate(3.717 90.388)"/>
                <path fill="#080D1D" d="M19.339 124.239L21.659 127.25 42.352 127.25 44.738 124.335z" transform="translate(201 107) translate(3.717 90.388)"/>
                <path fill="#FAFAFA" d="M44.592 107.557c0 .113-5.668.204-12.659.204-6.993 0-12.66-.091-12.66-.204 0-.112 5.667-.203 12.66-.203 6.991 0 12.66.091 12.66.203M44.592 109.415c0 .112-5.668.203-12.659.203-6.993 0-12.66-.09-12.66-.203 0-.112 5.667-.204 12.66-.204 6.991 0 12.66.092 12.66.204M44.251 111.213c0 .112-5.47.204-12.215.204-6.749 0-12.217-.092-12.217-.204 0-.112 5.468-.203 12.217-.203 6.745 0 12.215.09 12.215.203" transform="translate(201 107) translate(3.717 90.388)"/>
                <path fill="#1A2E35" d="M22.515 39.227c.01 0 .008.092-.003.266l-.063.757-.28 2.78c-.25 2.345-.613 5.584-1.032 9.158l-.046.4-.014.12-.122.002c-3.509.054-6.667.088-8.948.099l-2.698-.001-.732-.014c-.167-.006-.255-.014-.255-.023 0-.01.087-.02.255-.032l.73-.037 2.698-.086c2.28-.06 5.437-.126 8.946-.183l-.135.123.047-.4c.418-3.575.812-6.81 1.111-9.149l.369-2.77.114-.75c.029-.172.049-.262.058-.26M16.304 30.884c.01 0 .017.094.022.274.001.21.003.469.007.783l-.027 2.878c-.034 2.43-.1 5.788-.192 9.495l-.01.438-.004.146-.145-.011c-3.595-.28-6.843-.283-9.184-.207-1.171.036-2.116.084-2.77.119l-.75.035c-.173.005-.264.004-.264-.005-.001-.01.088-.026.258-.05.171-.022.423-.055.749-.086.651-.067 1.596-.144 2.769-.206 2.345-.125 5.605-.154 9.213.125l-.148.134.01-.439c.09-3.707.188-7.063.273-9.493l.114-2.876.045-.782c.013-.179.025-.272.034-.272" transform="translate(201 107) translate(3.717 90.388)"/>
                <path fill="#1A2E35" d="M9.035 28.041c.02-.002.077.283.17.802l.405 2.196c.354 1.853.907 4.409 1.688 7.207l.083.293-.278-.133-.328-.158c-2.683-1.298-5.347-1.898-7.28-2.13-.969-.119-1.76-.163-2.306-.183-.547-.018-.85-.025-.85-.046-.001-.01.074-.02.219-.031.144-.01.357-.028.632-.03.55-.013 1.347.001 2.327.096 1.955.183 4.661.76 7.378 2.075l.332.16-.195.16c-.781-2.807-1.305-5.38-1.61-7.246-.155-.934-.26-1.69-.321-2.214-.062-.525-.084-.815-.066-.818M47.607 78.902c-.005.042-.792-.039-2.065-.09-1.274-.048-3.037-.046-4.968.162-.393.041-.777.091-1.143.14l-.131.019-.023-.13c-.295-1.65-.542-3.106-.708-4.151-.165-1.045-.248-1.678-.215-1.685.034-.006.18.616.392 1.653.213 1.036.494 2.486.8 4.135l-.154-.11c.37-.053.757-.104 1.153-.146 1.949-.21 3.73-.18 5.007-.081.64.05 1.155.114 1.51.166.353.057.548.1.545.118M50.187 73.776c-.01.043-.764-.134-2.001-.287-1.234-.151-2.96-.248-4.847-.048-.294.03-.582.068-.856.105l-.142.02-.014-.14c-.172-1.699-.312-3.204-.4-4.285-.087-1.081-.123-1.74-.088-1.742.035-.005.135.647.271 1.723s.309 2.577.49 4.274l-.157-.12c.277-.04.57-.08.868-.11 1.914-.203 3.664-.074 4.903.13.62.1 1.116.215 1.455.304.34.094.523.158.518.176M52.038 25.21c.004.01-.09.058-.271.142-.21.093-.475.21-.798.355-.733.311-1.733.738-2.954 1.258l-9.785 4.053-.528.216-.125.05-.054-.122-4.135-9.336c-.502-1.168-.914-2.123-1.216-2.823l-.318-.772c-.07-.177-.102-.272-.093-.276.009-.004.057.083.143.254l.364.75 1.296 2.789c1.087 2.4 2.566 5.667 4.21 9.302l-.178-.072.529-.216 9.816-3.979 2.987-1.176.818-.307c.188-.067.288-.098.292-.09M54.43 13.412c.005.008-.077.069-.24.177l-.716.462-2.667 1.663-8.897 5.425-.142.087-.059-.158-.161-.43c-1.45-3.913-2.763-7.453-3.728-10.06l-1.1-3.059-.287-.836c-.062-.193-.09-.295-.082-.298.01-.003.056.093.135.279l.334.818 1.183 3.03 3.805 10.032.16.43-.201-.072 8.94-5.353 2.712-1.588c.302-.17.547-.308.743-.42.171-.092.264-.137.269-.13" transform="translate(201 107) translate(3.717 90.388)"/>
                <path fill="#1A2E35" d="M53.647 7.116c.008.017-.203.134-.587.346-.384.212-.939.525-1.613.943-1.347.832-3.16 2.12-4.95 3.874l-.342.335.114-.468c.12-.488.23-1.003.315-1.533.456-2.84.1-5.47-.386-7.279-.243-.91-.512-1.624-.7-2.117-.2-.488-.31-.76-.292-.77.016-.007.159.25.391.727.22.483.52 1.194.79 2.108.54 1.815.934 4.486.47 7.374-.086.539-.2 1.062-.323 1.559l-.228-.132c1.816-1.764 3.667-3.039 5.048-3.833.691-.4 1.262-.69 1.662-.876.4-.185.624-.272.63-.258M22.478 68.36c.019.006-.03.255-.125.707-.096.451-.232 1.105-.381 1.92-.301 1.627-.625 3.906-.733 6.469l-.006.124-.125.007-.611.037c-2.709.164-5.161.297-6.937.379l-2.105.082c-.497.014-.772.013-.773-.007-.001-.019.272-.054.767-.1l2.099-.17c1.773-.133 4.223-.296 6.932-.46l.612-.036-.13.131c.115-2.58.473-4.869.824-6.493.174-.814.34-1.463.466-1.908.127-.445.21-.686.226-.681M17.111 60.665c.018.003 0 .255-.045.713l-.22 1.94c-.2 1.644-.493 3.926-.838 6.484l-.015.112-.114.008-.878.057c-2.776.188-5.279.475-7.087.71l-2.14.287c-.506.069-.787.099-.79.08-.004-.018.271-.085.772-.186.501-.1 1.229-.232 2.13-.374 1.805-.286 4.312-.604 7.096-.793l.881-.056-.128.118c.351-2.558.677-4.835.924-6.472l.306-1.93c.077-.452.128-.7.146-.698M10.793 57.352c.04.01-.126.75-.321 1.97-.197 1.218-.401 2.921-.44 4.833l-.002.154-.154-.02-.458-.059c-2.005-.247-3.835-.306-5.16-.305l-1.569.017c-.37.007-.577.005-.578-.015-.002-.018.202-.052.572-.093.37-.038.907-.08 1.572-.105 1.33-.05 3.176-.022 5.197.226.157.022.315.042.461.06l-.156.134c.043-1.93.281-3.645.528-4.861.123-.61.242-1.096.334-1.428.094-.333.156-.513.174-.508M46.779 65.046c.069.037-.523 1.256-1.219 2.772-.699 1.514-1.24 2.756-1.314 2.727-.07-.026.36-1.319 1.063-2.843.7-1.525 1.405-2.691 1.47-2.656" transform="translate(201 107) translate(3.717 90.388)"/>
                <path fill="#1A2E35" d="M50.212 68.683c.004.087-1.436.104-3.104.63-1.674.51-2.87 1.31-2.916 1.237-.046-.048 1.111-.975 2.834-1.502 1.718-.54 3.197-.43 3.186-.365" transform="translate(201 107) translate(3.717 90.388)"/>
            </g>
            <g>
                <path fill="#375A64" d="M35.984 45.133H.06V18.145C.06 8.225 8.1.182 18.02.182c9.92 0 17.963 8.042 17.963 17.963v26.988z" transform="translate(201 107) translate(193.274 172.689)"/>
                <path fill="#F5F5F5" d="M29.103 18.008c0 5.899-4.783 10.681-10.682 10.681s-10.68-4.782-10.68-10.68c0-5.9 4.781-10.682 10.68-10.682 5.9 0 10.682 4.782 10.682 10.681" transform="translate(201 107) translate(193.274 172.689)"/>
                <path fill="#1A2E35" d="M22.24 16.568c.065.085-1.486 1.37-3.683 3.07l-.358.278-.002-.456-.01-1.942c0-1.86.026-3.542.068-4.76.043-1.219.101-1.972.167-1.972.064 0 .123.753.165 1.971.043 1.219.069 2.902.069 4.761l-.01 1.942-.36-.18c2.232-1.653 3.89-2.796 3.955-2.712M27.977 39.301c-.011-.01-.02-.162-.032-.442l-.037-1.214-.083-4.44.152.151c-4.54.05-11.423.083-19.11.083.104-.105-.236.233.234-.234v1.572l-.002 1.544-.005 2.98-.228-.228c5.449.013 10.19.061 13.6.106 1.663.026 3.015.047 4.018.064l1.094.029c.252.01.389.02.399.03.01.01-.108.018-.343.028l-1.045.03-3.967.063c-3.396.045-8.21.094-13.756.106h-.228v-.228l-.005-2.98-.001-1.544-.001-.784V33.205l.236-.236c7.687 0 14.57.032 19.11.083l.155.001-.003.151-.083 4.532-.038 1.18c-.011.264-.02.396-.031.385" transform="translate(201 107) translate(193.274 172.689)"/>
            </g>
        </g>
    </g>
</svg>
