<svg xmlns="http://www.w3.org/2000/svg" width="24" height="24" viewBox="0 0 24 24">
    <path fill="#8D90A8" fill-rule="evenodd" d="M17.5 18.5c0-.276.224-.5.5-.5h.5c.276 0 .5.224.5.5v3c0 .276-.224.5-.5.5h-15c-.276 0-.5-.224-.5-.5v-19c0-.276.224-.5.5-.5h15c.276 0 .5.224.5.5v3c0 .276-.224.5-.5.5H18c-.276 0-.5-.224-.5-.5v-2h-13v17h13v-2zm.146-10.354c.196-.195.512-.195.708 0l3.535 3.536c.195.195.195.512 0 .707l-3.535 3.536c-.196.195-.512.195-.708 0l-.353-.354c-.195-.195-.195-.512 0-.707l2.079-2.079H11.5c-.276 0-.5-.223-.5-.5v-.5c0-.276.224-.5.5-.5h7.872l-2.08-2.078c-.194-.195-.194-.512 0-.707z"/>
</svg>
