<?xml version="1.0" encoding="utf-8"?>
<!-- Generator: Adobe Illustrator 24.3.0, SVG Export Plug-In . SVG Version: 6.00 Build 0)  -->
<svg version="1.1" id="레이어_1" xmlns="http://www.w3.org/2000/svg" xmlns:xlink="http://www.w3.org/1999/xlink" x="0px"
	 y="0px" viewBox="0 0 138.5 40" style="enable-background:new 0 0 138.5 40;" xml:space="preserve">
<style type="text/css">
	.st0{fill:#151826;}
</style>
<g>
	<path class="st0" d="M0.2,5.4c0-2.7,2.2-4.7,4.9-4.7c2.7,0,4.9,2,4.9,4.7c0,2.7-2.2,4.7-4.9,4.7C2.3,10.1,0.2,8.1,0.2,5.4z M9.3,14
		v25H0.9V14H9.3z"/>
	<path class="st0" d="M51.7,19.3V39h-6.5l-0.4-4.3c-2.5,3.1-6.2,4.9-11.1,4.9c-11,0-18.7-7.8-18.7-17.8c0-10.9,8-18.6,18.7-18.6
		c8.6,0,16,4.8,17.5,13.1h-9.2c-1.5-4.1-5-5.3-8.1-5.3c-6,0-10.1,4.3-10.1,10.5c0,5.5,4,10.1,10.2,10.1c4.1,0,7.2-2.1,8.9-5.5
		l-10.1-0.1v-6.9H51.7z"/>
	<path class="st0" d="M83.9,14v25h-8.3v-1.3c-1.9,1.2-4.1,2-6.9,2c-6.8,0-12.4-5.8-12.4-13.2c0-7.5,5.7-13.1,12.4-13.1
		c2.8,0,5,0.7,6.9,2V14H83.9z M75.5,30.3v-7.7c-1.6-1.8-3.4-2.2-5.2-2.2c-3.4,0-5.9,2.6-5.9,6.1s2.5,6.1,5.9,6.1
		C72.2,32.5,73.9,32.1,75.5,30.3z"/>
	<path class="st0" d="M109.6,38.4c-2.6,1.1-5.3,1.2-6.7,1.2c-6.8,0-10.9-4.4-10.9-11.2v-7.3h-4.9V14H92V5.5h8.4V14h8.5v7.2h-8.5v7.1
		c0,2.6,1.5,3.8,3.9,3.8c1.6,0,2.9-0.5,4.4-1L109.6,38.4z"/>
	<path class="st0" d="M137.7,28.5h-18.1c0.6,2.6,2.3,4.6,5.7,4.6c1.9,0,2.9-0.4,3.7-1.3h8.5c-1.5,4.9-6.1,7.9-12,7.9
		c-8.2,0-13.7-5.6-13.7-13.2c0-7.6,5.3-13.1,13-13.1C133.7,13.3,139,19.6,137.7,28.5z M119.7,23.7h10.4c-0.5-2.9-2.3-4.2-5.1-4.2
		C122.1,19.5,120.4,21.2,119.7,23.7z"/>
</g>
</svg>
