<svg xmlns="http://www.w3.org/2000/svg" width="64" height="64" viewBox="0 0 64 64">
    <g fill="none" fill-rule="evenodd">
        <path fill="#ED3137" d="M33.72 6.903L62.21 54.98c.564.95.25 2.177-.7 2.74-.309.183-.661.28-1.02.28H3.51c-1.105 0-2-.895-2-2 0-.359.096-.711.28-1.02L30.28 6.903c.563-.95 1.79-1.264 2.74-.7.288.17.53.412.7.7z"/>
        <path fill="#FFF" fill-rule="nonzero" stroke="#000" stroke-opacity=".05" d="M32.096 42.37c-.95 0-1.81.385-2.434 1.009-.623.624-1.01 1.485-1.01 2.434 0 .95.387 1.81 1.01 2.434.624.623 1.485 1.01 2.434 1.01.95 0 1.81-.387 2.434-1.01.624-.624 1.01-1.485 1.01-2.434 0-.95-.386-1.81-1.01-2.434-.623-.624-1.484-1.01-2.434-1.01zm.426-16.87c-3.58 0-5.902 1.465-7.724 4.082-.233.335-.313.732-.254 1.107s.258.728.583.974l1.833 1.39c.328.25.726.345 1.106.297.38-.047.743-.237 1-.56.946-1.185 1.632-1.913 3.126-1.913.601 0 1.28.207 1.78.567.362.262.644.61.644 1.042 0 .294-.115.52-.313.726-.334.349-.86.646-1.623 1.073-.932.522-2.005 1.138-2.737 2.101-.541.713-.906 1.61-.906 2.796v1.416c0 .42.17.8.445 1.074.275.275.655.446 1.075.446h3.079c.42 0 .8-.17 1.075-.446.275-.275.445-.655.445-1.074l.23-1.67c.288-.283.732-.53 1.227-.816.975-.563 2.126-1.243 2.913-2.364.566-.807.953-1.84.953-3.221 0-1.926-.947-3.636-2.379-4.889-1.52-1.331-3.585-2.138-5.578-2.138z"/>
    </g>
</svg>
